{"glyphs":{"0":{"ha":920,"x_min":40,"x_max":880,"o":"m 457 3 q 146 99 253 3 q 40 404 40 195 q 81 644 40 551 q 212 782 121 738 q 452 827 303 827 q 777 727 674 827 q 880 404 880 627 q 769 100 880 198 q 457 3 658 3 m 458 255 q 596 292 544 255 q 648 422 648 330 q 622 514 648 481 q 553 561 596 547 q 459 574 511 574 q 326 541 378 574 q 273 417 273 507 q 323 291 273 326 q 458 255 374 255 z "},"1":{"ha":533,"x_min":26,"x_max":458,"o":"m 26 787 q 54 815 26 815 l 429 815 q 456 787 456 815 q 454 629 456 708 q 453 471 453 550 q 456 250 453 360 q 458 28 458 139 q 431 0 458 0 l 224 0 q 196 28 196 0 q 197 291 196 159 q 199 553 199 422 q 191 562 199 562 l 57 562 q 29 590 29 562 q 28 689 29 640 q 26 787 26 738 z "},"2":{"ha":761,"x_min":37,"x_max":713,"o":"m 121 0 q 100 2 115 0 q 84 14 84 5 q 90 31 84 23 q 103 45 96 38 q 237 168 165 106 q 370 301 309 231 q 463 455 432 372 q 469 478 466 465 q 473 503 473 492 q 441 575 473 547 q 367 603 410 603 q 289 586 326 603 q 252 519 252 570 q 261 482 252 498 q 280 455 271 467 q 289 431 289 443 q 281 414 289 423 q 253 379 271 401 q 216 335 234 357 q 186 304 197 314 q 178 298 182 301 q 168 295 174 295 q 151 302 161 295 q 67 409 98 342 q 37 541 37 475 q 85 698 37 635 q 209 793 132 761 q 370 825 285 825 q 533 792 455 825 q 661 697 611 760 q 711 541 711 634 q 685 432 711 486 q 627 332 660 377 q 568 257 593 286 q 543 224 543 228 q 547 221 543 222 q 553 221 551 221 l 679 221 q 700 214 694 221 q 707 193 705 208 q 709 159 709 176 q 709 125 709 142 q 712 77 711 101 q 713 28 713 52 q 686 0 713 0 l 121 0 z "},"3":{"ha":697,"x_min":41,"x_max":642,"o":"m 589 815 q 609 813 596 815 q 623 800 623 810 l 623 795 q 603 759 621 787 q 562 695 586 731 q 513 624 537 659 q 473 562 489 588 q 456 528 456 535 q 459 526 458 527 q 463 524 461 524 q 494 511 478 517 q 524 495 509 505 q 614 402 587 458 q 642 276 641 347 l 642 273 q 595 118 642 181 q 474 23 549 55 q 315 -9 400 -9 q 225 0 275 -9 q 129 28 176 10 q 51 73 82 47 q 41 92 41 81 q 56 126 41 97 q 93 190 72 155 q 132 254 114 226 q 156 286 151 281 q 162 288 159 288 q 189 276 172 288 q 230 253 206 264 q 283 241 254 241 q 323 244 298 241 q 368 257 348 247 q 387 290 387 268 q 368 327 387 313 q 320 347 349 340 q 264 356 292 354 q 220 358 236 358 q 194 356 213 358 q 174 366 174 355 q 189 398 174 373 q 225 458 203 424 q 268 525 247 492 q 304 583 290 559 q 319 613 319 608 q 318 615 319 614 q 289 618 315 617 q 227 618 262 618 q 163 618 193 618 q 127 618 134 618 q 99 646 99 618 q 98 717 99 682 q 96 787 96 752 q 123 815 96 815 l 589 815 z "},"4":{"ha":838,"x_min":33,"x_max":801,"o":"m 459 0 q 431 28 431 0 l 431 144 q 423 153 431 153 l 65 153 q 44 155 56 153 q 33 171 33 158 q 36 184 33 178 q 43 195 39 190 q 149 364 96 280 q 253 533 201 448 q 335 674 295 602 q 422 812 376 745 q 446 825 431 825 l 656 825 q 683 797 683 825 q 681 648 683 722 q 679 498 679 573 q 679 467 679 493 q 679 410 679 441 q 680 355 680 378 q 680 332 680 332 q 702 325 683 326 q 743 325 722 324 q 770 326 764 326 q 791 319 785 326 q 797 299 796 313 q 800 240 800 270 q 801 181 801 211 q 774 153 801 153 l 692 153 q 683 144 683 153 q 685 86 683 115 q 687 28 687 58 q 660 0 687 0 l 459 0 m 292 326 l 431 326 l 431 557 q 361 441 396 499 q 292 326 327 384 z "},"5":{"ha":741,"x_min":41,"x_max":694,"o":"m 359 -9 q 199 12 284 -9 q 53 79 114 34 q 45 86 50 82 q 41 96 41 91 q 54 125 41 103 q 83 175 66 148 q 115 225 100 202 q 136 256 130 248 q 159 270 146 270 q 174 267 168 270 q 286 248 228 248 q 326 249 301 248 q 377 256 351 250 q 420 273 403 261 q 438 307 438 286 q 420 341 438 330 q 377 358 403 353 q 326 363 351 363 q 286 363 301 363 q 220 356 251 363 q 156 336 189 348 q 147 334 151 335 q 138 332 142 332 q 121 342 125 332 q 117 363 117 353 q 115 575 117 469 q 113 787 113 681 q 140 815 113 815 l 593 815 q 620 787 620 815 q 619 702 620 748 q 616 617 618 656 q 589 589 614 589 l 337 589 q 328 577 328 589 q 328 557 328 564 q 337 530 328 530 q 369 529 346 529 q 484 514 427 529 q 589 467 541 498 q 666 387 637 435 q 694 273 694 339 q 665 155 694 208 q 587 66 635 103 q 479 10 538 29 q 359 -9 420 -9 z "},"6":{"ha":829,"x_min":35,"x_max":796,"o":"m 424 -9 q 225 32 313 -9 q 86 155 137 74 q 35 351 35 235 q 67 516 35 440 q 155 655 100 592 q 280 766 210 718 q 425 850 350 815 q 443 854 433 854 q 460 846 453 854 q 520 777 490 812 q 579 707 550 742 q 588 696 584 702 q 592 682 592 690 q 582 667 592 671 q 564 661 571 663 q 460 619 510 643 q 369 554 410 595 q 358 543 363 549 q 349 530 353 538 l 352 528 q 367 533 359 530 q 380 538 374 536 q 498 560 435 560 q 652 530 585 560 q 758 438 720 499 q 796 286 796 378 q 764 152 796 208 q 679 60 732 96 q 559 7 625 24 q 424 -9 492 -9 m 404 228 q 456 232 424 228 q 514 249 488 235 q 539 290 539 262 q 515 323 539 313 q 463 337 492 334 q 418 340 434 340 q 372 338 401 340 q 319 326 343 336 q 290 295 294 317 q 290 287 290 291 q 290 278 290 282 q 311 245 290 256 q 360 231 333 235 q 404 228 388 228 z "},"7":{"ha":714,"x_min":37,"x_max":684,"o":"m 654 815 q 675 812 665 815 q 684 795 684 808 q 682 785 684 791 q 679 776 680 779 q 581 544 630 660 q 484 311 532 428 q 444 213 464 262 q 403 115 423 164 q 383 66 393 91 q 361 17 374 41 q 336 0 353 0 l 115 0 q 95 3 106 0 q 85 19 85 7 q 87 30 85 24 q 91 40 89 35 q 212 294 149 168 q 330 549 275 420 l 332 553 q 323 562 332 562 l 68 562 q 41 583 43 562 q 40 622 40 604 q 38 704 40 663 q 37 787 37 745 q 64 815 37 815 l 654 815 z "},"8":{"ha":728,"x_min":22,"x_max":705,"o":"m 22 274 q 59 401 22 353 q 160 488 97 448 q 165 496 165 492 q 151 514 165 500 q 121 556 136 528 q 106 630 106 584 q 131 719 106 682 q 196 780 156 756 q 284 814 237 803 q 375 825 331 825 q 460 814 415 825 q 545 780 505 803 q 609 723 585 758 q 634 640 634 688 q 620 563 634 591 q 570 503 606 534 q 565 495 566 498 q 588 475 567 488 q 637 438 610 462 q 685 374 664 414 q 705 273 705 334 q 676 155 705 208 q 597 66 646 103 q 489 10 549 30 q 371 -9 430 -9 l 356 -9 q 237 10 296 -9 q 129 67 178 30 q 51 156 81 104 q 22 274 22 209 m 284 608 q 309 561 284 574 q 363 547 334 547 q 414 561 393 547 q 436 608 436 574 q 413 655 436 640 q 361 669 391 669 q 308 655 332 669 q 284 608 284 640 m 260 288 q 293 229 260 244 q 363 213 326 213 q 431 229 398 213 q 463 288 463 245 q 428 346 463 331 q 357 361 393 361 q 292 344 323 361 q 260 288 260 328 z "},"9":{"ha":829,"x_min":35,"x_max":804,"o":"m 344 264 q 193 295 263 264 q 79 386 122 326 q 35 533 35 446 q 67 671 35 612 q 155 769 100 730 q 277 828 210 808 q 416 847 345 847 q 558 824 489 847 q 683 757 627 801 q 771 651 739 713 q 804 511 804 589 q 763 322 804 404 q 654 178 722 240 q 502 68 586 115 q 332 -19 418 20 q 319 -22 325 -22 q 308 -20 311 -22 q 300 -12 304 -17 q 271 19 292 -3 q 225 70 250 42 q 184 120 201 97 q 168 151 168 142 q 178 166 168 162 q 196 172 189 170 q 306 206 252 189 q 410 254 359 224 q 422 261 416 257 q 433 269 428 264 l 432 272 q 430 272 431 272 q 427 273 429 273 q 415 272 422 273 q 404 269 409 271 q 374 266 389 267 q 344 264 359 264 m 410 456 q 487 470 446 456 q 550 514 528 484 l 550 549 q 524 586 550 572 q 467 606 498 600 q 419 612 436 612 q 360 607 394 612 q 301 585 326 602 q 276 534 276 568 q 299 485 276 501 q 353 462 322 468 q 410 456 385 456 z "},"A":{"ha":1013,"x_min":24,"x_max":988,"o":"m 56 0 q 36 3 47 0 q 24 19 24 6 q 27 31 24 25 q 33 41 30 37 q 165 290 101 165 q 292 543 230 416 q 360 684 326 613 q 427 825 393 755 q 460 892 444 859 q 494 958 476 926 q 506 965 499 965 q 517 958 513 965 q 554 887 536 924 q 589 815 572 851 q 661 664 625 740 q 734 513 697 589 q 855 276 793 394 q 980 41 917 159 q 985 31 983 37 q 988 19 988 24 q 977 3 988 6 q 957 0 966 0 l 659 0 q 634 13 640 0 q 625 42 628 26 q 610 65 621 58 q 608 65 609 65 q 605 66 606 66 l 354 66 q 351 65 353 66 q 349 65 350 65 q 333 42 338 58 q 322 13 329 26 q 298 0 316 0 l 56 0 m 433 268 l 538 268 q 513 336 525 302 q 488 403 501 370 l 433 268 z "},"Á":{"ha":1013,"x_min":24,"x_max":988,"o":"m 56 0 q 36 3 47 0 q 24 19 24 6 q 27 31 24 25 q 33 41 30 37 q 165 290 101 165 q 292 543 230 416 q 360 684 326 613 q 427 825 393 755 q 460 892 444 859 q 494 958 476 926 q 506 965 499 965 q 517 958 513 965 q 554 887 536 924 q 589 815 572 851 q 661 664 625 740 q 734 513 697 589 q 855 276 793 394 q 980 41 917 159 q 985 31 983 37 q 988 19 988 24 q 977 3 988 6 q 957 0 966 0 l 659 0 q 634 13 640 0 q 625 42 628 26 q 610 65 621 58 q 608 65 609 65 q 605 66 606 66 l 354 66 q 351 65 353 66 q 349 65 350 65 q 333 42 338 58 q 322 13 329 26 q 298 0 316 0 l 56 0 m 433 268 l 538 268 q 513 336 525 302 q 488 403 501 370 l 433 268 m 719 1260 q 742 1259 725 1260 q 760 1249 760 1257 q 742 1220 760 1241 q 695 1172 724 1199 q 637 1120 667 1145 q 582 1078 607 1095 q 545 1061 556 1061 l 479 1061 q 460 1064 472 1061 q 448 1078 448 1067 q 459 1108 448 1085 q 486 1160 471 1131 q 516 1213 502 1188 q 535 1246 530 1237 q 559 1260 543 1260 l 719 1260 z "},"Â":{"ha":1013,"x_min":24,"x_max":988,"o":"m 56 0 q 36 3 47 0 q 24 19 24 6 q 27 31 24 25 q 33 41 30 37 q 165 290 101 165 q 292 543 230 416 q 360 684 326 613 q 427 825 393 755 q 460 892 444 859 q 494 958 476 926 q 506 965 499 965 q 517 958 513 965 q 554 887 536 924 q 589 815 572 851 q 661 664 625 740 q 734 513 697 589 q 855 276 793 394 q 980 41 917 159 q 985 31 983 37 q 988 19 988 24 q 977 3 988 6 q 957 0 966 0 l 659 0 q 634 13 640 0 q 625 42 628 26 q 610 65 621 58 q 608 65 609 65 q 605 66 606 66 l 354 66 q 351 65 353 66 q 349 65 350 65 q 333 42 338 58 q 322 13 329 26 q 298 0 316 0 l 56 0 m 433 268 l 538 268 q 513 336 525 302 q 488 403 501 370 l 433 268 m 574 1076 q 540 1094 556 1076 q 511 1130 524 1112 q 486 1148 497 1148 q 464 1130 475 1148 q 437 1094 452 1112 q 404 1076 423 1076 l 292 1076 q 271 1078 286 1076 q 256 1089 256 1080 q 275 1123 256 1099 q 321 1179 293 1147 q 380 1241 350 1210 q 435 1296 410 1272 q 469 1331 459 1320 q 488 1341 479 1341 q 508 1331 498 1341 q 609 1228 559 1280 q 707 1122 658 1175 q 718 1109 711 1118 q 725 1094 725 1101 q 710 1078 725 1081 q 686 1076 696 1076 l 574 1076 z "},"Ä":{"ha":1013,"x_min":24,"x_max":988,"o":"m 56 0 q 36 3 47 0 q 24 19 24 6 q 27 31 24 25 q 33 41 30 37 q 165 290 101 165 q 292 543 230 416 q 360 684 326 613 q 427 825 393 755 q 460 892 444 859 q 494 958 476 926 q 506 965 499 965 q 517 958 513 965 q 554 887 536 924 q 589 815 572 851 q 661 664 625 740 q 734 513 697 589 q 855 276 793 394 q 980 41 917 159 q 985 31 983 37 q 988 19 988 24 q 977 3 988 6 q 957 0 966 0 l 659 0 q 634 13 640 0 q 625 42 628 26 q 610 65 621 58 q 608 65 609 65 q 605 66 606 66 l 354 66 q 351 65 353 66 q 349 65 350 65 q 333 42 338 58 q 322 13 329 26 q 298 0 316 0 l 56 0 m 433 268 l 538 268 q 513 336 525 302 q 488 403 501 370 l 433 268 m 355 1054 q 278 1090 309 1054 q 248 1171 248 1126 q 279 1250 248 1215 q 355 1284 309 1284 q 433 1249 401 1284 q 466 1168 466 1214 q 433 1089 466 1124 q 355 1054 400 1054 m 526 1168 q 561 1249 526 1213 q 641 1284 595 1284 q 715 1251 684 1284 q 745 1175 745 1217 q 730 1118 745 1145 q 689 1072 715 1090 q 633 1054 664 1054 q 556 1088 586 1054 q 526 1168 526 1123 z "},"À":{"ha":1013,"x_min":24,"x_max":988,"o":"m 56 0 q 36 3 47 0 q 24 19 24 6 q 27 31 24 25 q 33 41 30 37 q 165 290 101 165 q 292 543 230 416 q 360 684 326 613 q 427 825 393 755 q 460 892 444 859 q 494 958 476 926 q 506 965 499 965 q 517 958 513 965 q 554 887 536 924 q 589 815 572 851 q 661 664 625 740 q 734 513 697 589 q 855 276 793 394 q 980 41 917 159 q 985 31 983 37 q 988 19 988 24 q 977 3 988 6 q 957 0 966 0 l 659 0 q 634 13 640 0 q 625 42 628 26 q 610 65 621 58 q 608 65 609 65 q 605 66 606 66 l 354 66 q 351 65 353 66 q 349 65 350 65 q 333 42 338 58 q 322 13 329 26 q 298 0 316 0 l 56 0 m 433 268 l 538 268 q 513 336 525 302 q 488 403 501 370 l 433 268 m 511 1066 l 428 1066 q 409 1074 417 1066 q 267 1217 337 1145 q 255 1230 260 1223 q 248 1245 250 1236 q 247 1246 248 1246 q 247 1248 247 1247 q 262 1262 247 1260 q 286 1265 278 1265 l 452 1265 q 477 1247 470 1265 q 491 1213 481 1236 q 512 1163 501 1190 q 530 1115 523 1137 q 538 1084 538 1093 q 528 1070 538 1074 q 511 1066 519 1066 z "},"Å":{"ha":1013,"x_min":24,"x_max":988,"o":"m 56 0 q 36 3 47 0 q 24 19 24 6 q 27 31 24 25 q 33 41 30 37 q 165 290 101 165 q 292 543 230 416 q 360 684 326 613 q 427 825 393 755 q 460 892 444 859 q 494 958 476 926 q 506 965 499 965 q 517 958 513 965 q 554 887 536 924 q 589 815 572 851 q 661 664 625 740 q 734 513 697 589 q 855 276 793 394 q 980 41 917 159 q 985 31 983 37 q 988 19 988 24 q 977 3 988 6 q 957 0 966 0 l 659 0 q 634 13 640 0 q 625 42 628 26 q 610 65 621 58 q 608 65 609 65 q 605 66 606 66 l 354 66 q 351 65 353 66 q 349 65 350 65 q 333 42 338 58 q 322 13 329 26 q 298 0 316 0 l 56 0 m 433 268 l 538 268 q 513 336 525 302 q 488 403 501 370 l 433 268 m 340 1202 q 390 1319 340 1278 q 512 1360 440 1360 q 630 1321 582 1360 q 679 1208 679 1281 q 631 1087 679 1133 q 509 1040 584 1040 q 390 1085 439 1040 q 340 1202 340 1131 m 456 1197 q 471 1156 456 1173 q 511 1139 486 1139 q 552 1157 538 1139 q 566 1201 566 1176 q 553 1243 566 1227 q 513 1259 541 1259 q 470 1242 484 1259 q 456 1197 456 1225 z "},"Ã":{"ha":1013,"x_min":24,"x_max":988,"o":"m 56 0 q 36 3 47 0 q 24 19 24 6 q 27 31 24 25 q 33 41 30 37 q 165 290 101 165 q 292 543 230 416 q 360 684 326 613 q 427 825 393 755 q 460 892 444 859 q 494 958 476 926 q 506 965 499 965 q 517 958 513 965 q 554 887 536 924 q 589 815 572 851 q 661 664 625 740 q 734 513 697 589 q 855 276 793 394 q 980 41 917 159 q 985 31 983 37 q 988 19 988 24 q 977 3 988 6 q 957 0 966 0 l 659 0 q 634 13 640 0 q 625 42 628 26 q 610 65 621 58 q 608 65 609 65 q 605 66 606 66 l 354 66 q 351 65 353 66 q 349 65 350 65 q 333 42 338 58 q 322 13 329 26 q 298 0 316 0 l 56 0 m 433 268 l 538 268 q 513 336 525 302 q 488 403 501 370 l 433 268 m 800 1331 q 778 1233 800 1280 q 716 1155 756 1185 q 621 1124 676 1124 q 548 1142 578 1124 q 492 1182 519 1160 q 429 1217 465 1204 q 422 1219 428 1217 q 414 1221 416 1221 q 381 1200 389 1221 q 370 1160 372 1179 q 363 1136 369 1144 q 339 1128 357 1128 l 280 1128 q 256 1141 259 1128 q 252 1171 252 1155 q 299 1309 252 1252 q 430 1366 346 1366 q 501 1347 471 1366 q 557 1304 530 1328 q 618 1265 584 1280 q 625 1263 619 1265 q 631 1261 631 1261 q 667 1285 661 1261 q 675 1331 673 1310 q 706 1359 679 1357 q 740 1360 723 1360 q 774 1360 757 1360 q 800 1331 800 1360 z "},"Æ":{"ha":1197,"x_min":24,"x_max":1154,"o":"m 24 18 q 28 31 24 24 q 35 43 32 39 q 206 295 122 169 q 371 551 290 422 q 486 736 429 643 q 604 920 543 830 q 627 932 614 932 l 1111 932 q 1137 907 1137 932 q 1134 835 1137 871 q 1129 763 1131 799 q 1129 713 1128 738 q 1126 663 1129 688 q 1099 635 1123 635 l 922 635 q 915 632 916 635 q 914 623 914 628 l 913 572 q 922 562 913 562 q 986 565 954 562 q 1050 569 1018 569 q 1075 541 1075 569 q 1076 460 1076 501 q 1076 380 1076 420 q 1052 352 1076 352 q 987 357 1019 352 q 922 362 954 362 q 914 351 914 362 q 913 334 914 347 q 914 310 912 321 q 923 299 916 299 l 1113 299 q 1141 273 1138 299 q 1144 218 1144 245 q 1146 163 1144 191 q 1151 94 1148 129 q 1154 25 1154 59 q 1128 0 1154 0 l 640 0 q 612 28 612 0 l 612 141 q 604 150 612 150 l 437 150 q 430 144 433 150 q 403 81 414 115 q 376 17 392 48 q 351 0 368 0 l 56 0 q 36 3 47 0 q 24 18 24 5 m 511 345 l 612 345 l 612 606 q 562 475 587 541 q 511 345 536 410 z "},"B":{"ha":971,"x_min":71,"x_max":921,"o":"m 73 903 q 100 932 73 932 l 469 932 q 593 922 524 932 q 724 887 661 912 q 828 816 787 861 q 869 699 869 770 q 816 543 869 610 q 802 528 810 535 q 789 513 795 521 q 784 505 787 512 q 806 487 785 499 q 853 451 827 475 q 901 389 880 428 q 921 290 921 350 q 884 144 921 201 q 786 56 847 87 q 652 12 725 24 q 505 0 578 0 l 98 0 q 71 28 71 0 q 74 104 71 66 q 79 179 77 142 q 83 336 82 258 q 84 492 84 414 q 83 627 84 559 q 79 761 82 694 q 76 832 79 797 q 73 903 73 868 m 480 589 q 531 602 508 589 q 555 647 555 616 q 530 693 555 677 q 478 709 506 709 l 384 709 q 385 649 384 679 q 385 589 385 618 l 480 589 m 480 267 q 532 269 503 267 q 584 285 562 272 q 606 330 606 298 q 587 366 606 355 q 543 380 568 377 q 500 383 518 383 l 385 383 q 385 325 385 354 q 384 267 384 296 l 480 267 z "},"C":{"ha":905,"x_min":52,"x_max":858,"o":"m 738 328 q 753 321 748 328 q 763 306 759 313 q 782 266 767 298 q 815 197 798 235 q 845 130 832 159 q 858 97 858 101 q 854 88 858 92 q 847 81 850 83 q 757 31 810 51 q 648 1 704 11 q 545 -9 592 -9 q 283 48 394 -9 q 113 215 173 106 q 52 476 52 324 q 104 722 52 618 q 257 884 157 827 q 502 941 358 941 q 604 932 547 941 q 715 907 661 924 q 808 865 770 890 q 821 844 821 856 q 813 820 821 841 q 793 768 805 798 q 768 706 781 737 q 746 650 755 674 q 732 620 736 627 q 724 606 729 612 q 710 600 720 600 q 681 610 703 600 q 628 632 659 621 q 566 643 598 643 q 469 625 515 643 q 394 569 423 606 q 366 475 366 532 q 426 332 366 374 q 578 290 486 290 q 648 297 613 290 q 714 320 683 304 q 726 326 721 323 q 738 328 730 328 z "},"Ç":{"ha":905,"x_min":52,"x_max":858,"o":"m 738 328 q 753 321 748 328 q 763 306 759 313 q 782 266 767 298 q 815 197 798 235 q 845 130 832 159 q 858 97 858 101 q 854 88 858 92 q 847 81 850 83 q 757 31 810 51 q 648 1 704 11 q 545 -9 592 -9 q 283 48 394 -9 q 113 215 173 106 q 52 476 52 324 q 104 722 52 618 q 257 884 157 827 q 502 941 358 941 q 604 932 547 941 q 715 907 661 924 q 808 865 770 890 q 821 844 821 856 q 813 820 821 841 q 793 768 805 798 q 768 706 781 737 q 746 650 755 674 q 732 620 736 627 q 724 606 729 612 q 710 600 720 600 q 681 610 703 600 q 628 632 659 621 q 566 643 598 643 q 469 625 515 643 q 394 569 423 606 q 366 475 366 532 q 426 332 366 374 q 578 290 486 290 q 648 297 613 290 q 714 320 683 304 q 726 326 721 323 q 738 328 730 328 m 489 -353 q 399 -341 446 -353 q 319 -298 353 -329 q 313 -291 316 -295 q 310 -283 310 -288 q 322 -255 310 -273 q 350 -222 334 -237 q 376 -208 366 -208 q 413 -221 391 -208 q 461 -234 435 -234 q 494 -229 475 -234 q 527 -213 513 -224 q 541 -184 541 -202 q 514 -148 541 -155 q 465 -140 486 -140 q 429 -145 446 -140 q 393 -150 411 -150 q 369 -129 375 -150 q 359 -95 366 -116 q 353 -62 353 -75 q 372 -31 353 -47 q 416 -1 392 -14 q 452 17 439 13 q 489 21 460 20 q 548 21 518 22 q 591 21 578 21 q 601 20 595 21 q 607 12 607 18 q 598 -7 607 3 q 579 -25 589 -17 q 570 -39 570 -34 q 580 -47 570 -45 q 686 -90 640 -58 q 732 -192 732 -123 q 709 -270 732 -239 q 648 -319 686 -301 q 569 -346 611 -338 q 489 -353 527 -353 z "},"D":{"ha":1022,"x_min":71,"x_max":968,"o":"m 98 0 q 71 28 71 0 q 74 101 71 64 q 79 174 77 138 q 83 332 82 252 q 85 490 85 412 q 84 623 85 557 q 80 755 83 689 q 76 829 79 792 q 73 903 73 866 q 100 932 73 932 l 417 932 q 702 880 578 932 q 898 719 827 828 q 968 439 968 610 q 929 247 968 329 q 819 110 889 165 q 659 27 749 55 q 467 0 568 0 l 98 0 m 385 299 l 421 299 q 534 310 480 299 q 622 355 587 320 q 656 462 656 389 q 609 595 656 553 q 473 638 562 638 l 385 638 q 385 299 386 469 z "},"Ð":{"ha":1022,"x_min":-11,"x_max":968,"o":"m 98 0 q 71 28 71 0 q 74 101 71 64 q 79 174 77 138 q 83 332 82 252 q 85 490 85 412 q 84 623 85 557 q 80 755 83 689 q 76 829 79 792 q 73 903 73 866 q 100 932 73 932 l 417 932 q 702 880 578 932 q 898 719 827 828 q 968 439 968 610 q 929 247 968 329 q 819 110 889 165 q 659 27 749 55 q 467 0 568 0 l 98 0 m 385 299 l 421 299 q 534 310 480 299 q 622 355 587 320 q 656 462 656 389 q 609 595 656 553 q 473 638 562 638 l 385 638 q 385 299 386 469 m -11 536 q 16 564 -11 564 l 416 564 q 444 536 444 564 q 443 459 444 498 q 442 382 443 421 q 415 355 442 355 l 17 355 q -10 382 -10 355 q -11 459 -11 421 q -11 536 -11 498 z "},"E":{"ha":821,"x_min":71,"x_max":779,"o":"m 73 903 q 100 932 73 932 l 734 932 q 760 907 760 932 q 759 830 760 869 q 755 754 757 792 q 755 707 755 731 q 753 661 755 684 q 726 633 751 633 l 391 633 q 381 618 382 633 q 381 598 381 604 q 383 583 381 594 q 391 572 385 572 l 675 572 q 702 544 702 572 l 702 387 q 675 359 702 359 l 393 359 q 381 347 381 359 q 381 325 381 334 q 382 310 381 321 q 391 300 384 300 l 742 299 q 770 272 769 299 q 775 150 771 212 q 779 28 779 89 q 752 0 779 0 l 98 0 q 71 28 71 0 q 73 103 71 66 q 77 177 75 140 q 81 332 79 255 q 82 488 82 410 q 80 629 82 558 q 77 769 79 699 q 74 837 76 803 q 73 903 73 870 z "},"É":{"ha":821,"x_min":71,"x_max":779,"o":"m 73 903 q 100 932 73 932 l 734 932 q 760 907 760 932 q 759 830 760 869 q 755 754 757 792 q 755 707 755 731 q 753 661 755 684 q 726 633 751 633 l 391 633 q 381 618 382 633 q 381 598 381 604 q 383 583 381 594 q 391 572 385 572 l 675 572 q 702 544 702 572 l 702 387 q 675 359 702 359 l 393 359 q 381 347 381 359 q 381 325 381 334 q 382 310 381 321 q 391 300 384 300 l 742 299 q 770 272 769 299 q 775 150 771 212 q 779 28 779 89 q 752 0 779 0 l 98 0 q 71 28 71 0 q 73 103 71 66 q 77 177 75 140 q 81 332 79 255 q 82 488 82 410 q 80 629 82 558 q 77 769 79 699 q 74 837 76 803 q 73 903 73 870 m 642 1215 q 666 1213 648 1215 q 683 1203 683 1212 q 665 1175 683 1196 q 619 1127 647 1154 q 561 1075 591 1100 q 505 1033 530 1049 q 468 1016 479 1016 l 403 1016 q 384 1019 395 1016 q 372 1032 372 1021 q 383 1063 372 1040 q 410 1114 394 1086 q 439 1167 425 1143 q 458 1200 453 1192 q 483 1215 467 1215 l 642 1215 z "},"Ê":{"ha":821,"x_min":71,"x_max":779,"o":"m 73 903 q 100 932 73 932 l 734 932 q 760 907 760 932 q 759 830 760 869 q 755 754 757 792 q 755 707 755 731 q 753 661 755 684 q 726 633 751 633 l 391 633 q 381 618 382 633 q 381 598 381 604 q 383 583 381 594 q 391 572 385 572 l 675 572 q 702 544 702 572 l 702 387 q 675 359 702 359 l 393 359 q 381 347 381 359 q 381 325 381 334 q 382 310 381 321 q 391 300 384 300 l 742 299 q 770 272 769 299 q 775 150 771 212 q 779 28 779 89 q 752 0 779 0 l 98 0 q 71 28 71 0 q 73 103 71 66 q 77 177 75 140 q 81 332 79 255 q 82 488 82 410 q 80 629 82 558 q 77 769 79 699 q 74 837 76 803 q 73 903 73 870 m 498 1030 q 464 1048 479 1030 q 434 1085 448 1067 q 409 1103 420 1103 q 387 1085 399 1103 q 361 1048 375 1067 q 328 1030 347 1030 l 216 1030 q 194 1032 209 1030 q 180 1044 180 1034 q 198 1078 180 1054 q 245 1133 216 1102 q 303 1196 273 1164 q 358 1251 334 1227 q 392 1285 382 1275 q 412 1295 402 1295 q 431 1285 421 1295 q 532 1182 483 1235 q 630 1077 581 1130 q 642 1064 635 1072 q 648 1048 648 1056 q 634 1033 648 1036 q 610 1030 619 1030 l 498 1030 z "},"Ë":{"ha":821,"x_min":71,"x_max":779,"o":"m 73 903 q 100 932 73 932 l 734 932 q 760 907 760 932 q 759 830 760 869 q 755 754 757 792 q 755 707 755 731 q 753 661 755 684 q 726 633 751 633 l 391 633 q 381 618 382 633 q 381 598 381 604 q 383 583 381 594 q 391 572 385 572 l 675 572 q 702 544 702 572 l 702 387 q 675 359 702 359 l 393 359 q 381 347 381 359 q 381 325 381 334 q 382 310 381 321 q 391 300 384 300 l 742 299 q 770 272 769 299 q 775 150 771 212 q 779 28 779 89 q 752 0 779 0 l 98 0 q 71 28 71 0 q 73 103 71 66 q 77 177 75 140 q 81 332 79 255 q 82 488 82 410 q 80 629 82 558 q 77 769 79 699 q 74 837 76 803 q 73 903 73 870 m 279 1008 q 202 1045 232 1008 q 172 1126 172 1081 q 202 1204 172 1170 q 278 1239 233 1239 q 357 1204 324 1239 q 389 1123 389 1168 q 356 1044 389 1079 q 279 1008 323 1008 m 450 1122 q 484 1203 450 1168 q 564 1239 519 1239 q 638 1205 608 1239 q 669 1129 669 1171 q 653 1072 669 1100 q 613 1026 638 1044 q 556 1008 587 1008 q 479 1043 509 1008 q 450 1122 450 1078 z "},"È":{"ha":821,"x_min":71,"x_max":779,"o":"m 73 903 q 100 932 73 932 l 734 932 q 760 907 760 932 q 759 830 760 869 q 755 754 757 792 q 755 707 755 731 q 753 661 755 684 q 726 633 751 633 l 391 633 q 381 618 382 633 q 381 598 381 604 q 383 583 381 594 q 391 572 385 572 l 675 572 q 702 544 702 572 l 702 387 q 675 359 702 359 l 393 359 q 381 347 381 359 q 381 325 381 334 q 382 310 381 321 q 391 300 384 300 l 742 299 q 770 272 769 299 q 775 150 771 212 q 779 28 779 89 q 752 0 779 0 l 98 0 q 71 28 71 0 q 73 103 71 66 q 77 177 75 140 q 81 332 79 255 q 82 488 82 410 q 80 629 82 558 q 77 769 79 699 q 74 837 76 803 q 73 903 73 870 m 434 1021 l 351 1021 q 332 1029 340 1021 q 190 1171 260 1099 q 178 1184 184 1177 q 171 1200 173 1191 q 171 1201 171 1200 q 170 1202 170 1202 q 186 1217 170 1215 q 210 1219 201 1219 l 375 1219 q 400 1202 393 1219 q 415 1167 405 1190 q 435 1118 425 1144 q 454 1070 446 1092 q 461 1038 461 1048 q 452 1024 461 1028 q 434 1021 442 1021 z "},"F":{"ha":819,"x_min":71,"x_max":783,"o":"m 73 903 q 100 932 73 932 l 755 932 q 783 907 783 932 q 780 784 783 846 q 774 661 777 722 q 747 633 774 633 l 390 633 q 382 626 382 633 l 382 568 q 393 557 382 557 l 688 557 q 715 529 715 557 q 716 420 715 475 q 717 311 717 365 q 690 283 717 283 l 390 283 q 382 276 382 283 q 382 152 382 214 q 381 28 382 90 q 353 0 380 0 l 98 0 q 71 28 71 0 q 73 103 71 66 q 77 177 75 140 q 81 332 79 255 q 82 488 82 410 q 80 629 82 558 q 77 769 79 699 q 74 837 76 803 q 73 903 73 870 z "},"G":{"ha":1046,"x_min":54,"x_max":987,"o":"m 987 132 q 979 111 987 119 q 902 61 950 83 q 799 23 854 39 q 689 -1 743 7 q 596 -9 636 -9 q 396 14 493 -9 q 222 88 299 37 q 99 221 144 139 q 54 421 54 304 q 192 816 54 691 q 594 941 331 941 q 699 936 640 941 q 816 920 758 931 q 916 891 873 909 q 927 884 921 889 q 933 873 933 880 q 927 846 933 870 q 910 787 920 822 q 890 716 901 752 q 872 653 880 680 q 863 620 865 627 q 856 605 860 611 q 840 598 852 598 q 827 601 836 598 q 726 623 777 614 q 623 631 674 631 q 529 626 574 631 q 446 603 483 621 q 388 551 410 586 q 366 456 366 516 q 395 355 366 389 q 473 311 425 322 q 577 300 521 300 q 610 301 586 300 q 660 306 633 302 q 706 316 687 309 q 726 334 726 323 q 724 343 726 339 q 717 348 723 348 l 567 348 q 540 376 540 348 l 540 524 q 567 552 540 552 l 951 552 q 979 524 977 552 q 979 492 979 509 q 979 460 979 476 q 983 242 979 351 q 986 188 984 215 q 987 132 987 160 z "},"H":{"ha":1074,"x_min":71,"x_max":1002,"o":"m 973 932 q 1000 903 1000 932 q 998 835 1000 869 q 994 766 995 800 q 989 624 991 695 q 987 481 987 553 q 990 329 987 405 q 995 176 992 252 q 999 101 996 138 q 1002 25 1002 63 q 976 0 1002 0 l 719 0 q 698 7 704 0 q 691 27 692 14 q 689 80 688 53 q 689 132 690 106 q 687 235 688 184 q 686 337 686 286 q 686 344 686 340 q 681 349 686 349 l 391 349 q 387 344 388 349 q 387 337 387 340 q 386 235 387 286 q 384 132 385 184 q 384 79 383 106 q 381 27 384 53 q 375 7 380 14 q 354 0 370 0 l 98 0 q 71 28 71 0 q 74 102 71 65 q 79 176 77 139 q 84 329 82 252 q 86 481 86 405 q 84 624 86 553 q 80 766 83 695 q 76 835 79 800 q 73 903 73 869 q 100 932 73 932 l 355 932 q 382 904 382 932 q 384 849 384 877 q 385 795 384 822 l 387 596 q 387 589 387 593 q 392 585 387 585 l 681 585 q 686 589 685 585 q 686 595 686 593 q 687 698 686 647 q 688 800 687 749 q 688 852 688 826 q 690 905 688 879 q 697 925 692 918 q 718 932 703 932 l 973 932 z "},"I":{"ha":497,"x_min":94,"x_max":405,"o":"m 94 904 q 122 932 94 932 l 376 932 q 404 904 404 932 q 401 707 404 806 q 399 509 399 608 q 402 269 399 389 q 405 28 405 149 q 377 0 405 0 l 121 0 q 94 28 94 0 q 96 269 94 149 q 98 509 98 389 q 96 707 98 608 q 94 904 94 806 z "},"Í":{"ha":497,"x_min":94,"x_max":504,"o":"m 94 904 q 122 932 94 932 l 376 932 q 404 904 404 932 q 401 707 404 806 q 399 509 399 608 q 402 269 399 389 q 405 28 405 149 q 377 0 405 0 l 121 0 q 94 28 94 0 q 96 269 94 149 q 98 509 98 389 q 96 707 98 608 q 94 904 94 806 m 463 1215 q 487 1213 469 1215 q 504 1203 504 1212 q 486 1175 504 1196 q 440 1127 468 1154 q 381 1075 412 1100 q 326 1033 351 1049 q 289 1016 300 1016 l 224 1016 q 204 1019 216 1016 q 193 1032 193 1021 q 204 1063 193 1040 q 231 1114 215 1086 q 260 1167 246 1143 q 279 1200 274 1192 q 304 1215 288 1215 l 463 1215 z "},"Î":{"ha":497,"x_min":1,"x_max":469,"o":"m 94 904 q 122 932 94 932 l 376 932 q 404 904 404 932 q 401 707 404 806 q 399 509 399 608 q 402 269 399 389 q 405 28 405 149 q 377 0 405 0 l 121 0 q 94 28 94 0 q 96 269 94 149 q 98 509 98 389 q 96 707 98 608 q 94 904 94 806 m 319 1030 q 284 1048 300 1030 q 255 1085 269 1067 q 230 1103 241 1103 q 208 1085 220 1103 q 182 1048 196 1067 q 149 1030 168 1030 l 37 1030 q 15 1032 30 1030 q 1 1044 1 1034 q 19 1078 1 1054 q 66 1133 37 1102 q 124 1196 94 1164 q 179 1251 155 1227 q 213 1285 203 1275 q 233 1295 223 1295 q 252 1285 242 1295 q 353 1182 304 1235 q 451 1077 402 1130 q 463 1064 456 1072 q 469 1048 469 1056 q 455 1033 469 1036 q 431 1030 440 1030 l 319 1030 z "},"Ï":{"ha":497,"x_min":-7,"x_max":490,"o":"m 94 904 q 122 932 94 932 l 376 932 q 404 904 404 932 q 401 707 404 806 q 399 509 399 608 q 402 269 399 389 q 405 28 405 149 q 377 0 405 0 l 121 0 q 94 28 94 0 q 96 269 94 149 q 98 509 98 389 q 96 707 98 608 q 94 904 94 806 m 100 1008 q 23 1045 53 1008 q -7 1126 -7 1081 q 23 1204 -7 1170 q 99 1239 54 1239 q 178 1204 145 1239 q 210 1123 210 1168 q 177 1044 210 1079 q 100 1008 144 1008 m 271 1122 q 305 1203 271 1168 q 385 1239 340 1239 q 459 1205 429 1239 q 490 1129 490 1171 q 474 1072 490 1100 q 434 1026 459 1044 q 377 1008 408 1008 q 300 1043 330 1008 q 271 1122 271 1078 z "},"Ì":{"ha":497,"x_min":-9,"x_max":405,"o":"m 94 904 q 122 932 94 932 l 376 932 q 404 904 404 932 q 401 707 404 806 q 399 509 399 608 q 402 269 399 389 q 405 28 405 149 q 377 0 405 0 l 121 0 q 94 28 94 0 q 96 269 94 149 q 98 509 98 389 q 96 707 98 608 q 94 904 94 806 m 255 1021 l 172 1021 q 153 1029 161 1021 q 11 1171 81 1099 q -1 1184 5 1177 q -8 1200 -6 1191 q -8 1201 -8 1200 q -9 1202 -9 1202 q 7 1217 -9 1215 q 31 1219 22 1219 l 196 1219 q 221 1202 214 1219 q 236 1167 226 1190 q 256 1118 245 1144 q 275 1070 267 1092 q 282 1038 282 1048 q 273 1024 282 1028 q 255 1021 263 1021 z "},"J":{"ha":564,"x_min":-5,"x_max":492,"o":"m 486 511 q 488 383 486 447 q 489 256 489 319 q 412 -19 489 92 q 174 -174 334 -130 q 100 -191 140 -183 q 24 -198 60 -198 q 2 -192 8 -198 q -5 -170 -5 -186 q -1 -87 -5 -128 q 3 -4 2 -45 q 4 37 5 16 q 6 78 3 59 q 14 98 9 94 q 33 106 18 102 q 58 110 45 109 q 82 113 70 111 q 161 165 141 127 q 182 260 182 203 q 182 393 182 326 q 183 526 183 459 q 182 715 183 621 q 180 904 180 810 q 208 932 180 932 l 465 932 q 492 907 492 932 q 489 709 492 808 q 486 511 486 610 z "},"K":{"ha":994,"x_min":71,"x_max":957,"o":"m 359 932 q 387 904 387 932 q 389 766 387 836 q 390 629 390 697 q 391 623 390 627 q 394 619 391 619 q 401 621 399 619 q 523 709 469 650 q 603 836 577 768 q 614 871 610 853 q 625 908 619 890 q 634 926 628 920 q 652 932 640 932 l 901 932 q 921 927 913 932 q 928 910 928 923 q 928 903 928 907 q 926 897 927 899 q 820 665 889 762 q 642 481 750 569 l 640 479 l 640 472 q 789 258 711 363 q 943 48 866 153 q 952 36 947 43 q 957 21 957 28 q 944 6 957 8 q 922 3 932 3 l 632 3 q 610 14 621 3 q 582 49 595 31 q 555 85 569 68 q 480 188 517 136 q 404 290 442 239 q 400 296 402 293 q 394 298 398 298 l 393 298 q 388 277 388 294 q 388 254 388 260 q 389 141 388 198 q 386 28 389 84 q 358 0 384 0 l 98 0 q 71 28 71 0 q 74 102 71 65 q 79 176 77 139 q 83 329 82 252 q 85 483 85 406 q 84 625 85 553 q 80 767 83 696 q 76 835 79 801 q 73 903 73 869 q 100 932 73 932 l 359 932 z "},"L":{"ha":800,"x_min":71,"x_max":759,"o":"m 72 903 q 99 932 72 932 l 353 932 q 381 904 379 932 q 382 840 383 873 q 381 776 381 808 l 381 308 q 390 299 381 299 l 722 299 q 749 272 747 299 q 752 225 751 249 q 753 178 752 202 q 756 103 754 141 q 759 28 759 66 q 732 0 759 0 l 98 0 q 71 28 71 0 q 73 103 71 66 q 76 177 75 140 q 80 332 79 255 q 81 488 81 410 q 77 768 81 628 q 74 836 77 802 q 72 903 72 870 z "},"Ł":{"ha":800,"x_min":24,"x_max":760,"o":"m 430 646 q 492 664 462 646 q 554 681 523 681 q 580 660 574 681 q 591 620 583 649 q 608 558 599 591 q 623 497 616 524 q 629 463 629 470 q 623 450 629 454 q 609 443 616 445 l 431 390 q 423 381 423 388 l 423 308 q 432 299 423 299 l 723 299 q 750 272 749 299 q 755 150 751 212 q 760 28 760 89 q 732 0 760 0 l 141 0 q 114 28 114 0 q 117 159 114 94 q 121 289 121 224 l 121 292 l 118 295 q 117 295 117 295 q 115 296 116 296 q 102 293 109 296 q 90 291 96 291 q 77 302 81 291 q 67 340 75 309 q 48 409 58 371 q 32 476 39 447 q 24 509 24 505 q 45 534 24 528 q 90 544 66 540 q 121 559 113 547 q 122 562 121 560 q 123 564 123 564 q 119 734 123 649 q 115 903 115 819 q 142 932 115 932 l 397 932 q 425 904 425 932 q 424 780 425 842 q 423 655 423 718 q 430 646 423 646 z "},"M":{"ha":1178,"x_min":71,"x_max":1106,"o":"m 98 0 q 71 29 71 0 q 75 101 71 65 q 80 173 79 138 q 85 331 83 252 q 87 489 87 410 q 82 689 87 589 q 75 888 77 789 l 75 903 q 77 920 75 909 q 88 931 79 931 q 107 922 97 931 q 122 908 117 913 q 276 746 201 829 q 425 578 351 662 q 495 497 460 538 q 567 418 530 456 q 571 416 568 417 l 578 416 q 609 447 578 416 q 687 530 639 479 q 791 640 735 581 q 902 755 848 699 q 997 853 956 811 q 1055 911 1038 895 q 1068 924 1061 918 q 1084 932 1075 929 q 1086 932 1085 932 q 1088 932 1087 932 q 1100 920 1099 932 q 1101 899 1101 907 l 1101 890 q 1094 706 1099 798 q 1089 521 1089 614 q 1091 355 1089 438 q 1097 189 1093 271 q 1102 107 1099 148 q 1106 25 1106 66 q 1080 0 1106 0 l 823 0 q 794 27 795 0 q 794 52 794 33 q 793 94 793 71 q 792 134 793 117 q 790 155 791 152 l 787 156 q 768 139 785 156 q 726 95 751 121 q 676 41 701 68 q 631 -8 650 13 q 605 -35 611 -29 q 596 -43 601 -39 q 585 -46 591 -46 q 575 -43 579 -46 q 566 -36 570 -40 q 539 -10 559 -30 q 493 36 519 9 q 441 86 467 62 q 398 127 416 111 q 378 144 380 144 q 375 139 376 144 q 374 134 374 135 l 372 27 q 343 0 371 0 l 98 0 z "},"N":{"ha":1069,"x_min":70,"x_max":1002,"o":"m 1000 -28 q 999 -28 1000 -28 q 997 -28 998 -28 q 995 -27 996 -27 q 695 145 842 53 q 397 322 548 237 q 393 324 395 324 q 391 323 391 324 q 389 319 391 323 q 388 314 388 315 q 389 207 388 260 q 389 100 389 153 q 390 64 389 82 q 389 28 390 45 q 361 0 387 0 l 98 0 q 71 28 71 0 q 74 102 71 65 q 79 176 77 140 q 84 330 82 253 q 85 484 85 408 q 84 644 85 564 q 79 803 82 724 q 73 879 77 841 q 70 956 70 918 q 72 960 70 959 q 73 960 73 960 q 75 960 74 960 q 79 959 77 960 q 283 844 183 905 q 483 720 383 783 q 578 662 530 691 q 674 605 625 632 q 676 604 675 605 q 679 604 678 604 q 683 607 682 604 q 683 613 683 611 l 683 807 q 682 856 683 831 q 683 904 682 880 q 711 932 685 932 l 969 932 q 996 903 996 932 q 994 834 996 869 q 989 765 991 800 q 985 621 987 693 q 983 477 983 549 q 985 307 983 392 q 992 138 987 222 q 997 57 994 97 q 1002 -24 1000 16 l 1000 -28 z "},"Ñ":{"ha":1069,"x_min":70,"x_max":1002,"o":"m 1000 -28 q 999 -28 1000 -28 q 997 -28 998 -28 q 995 -27 996 -27 q 695 145 842 53 q 397 322 548 237 q 393 324 395 324 q 391 323 391 324 q 389 319 391 323 q 388 314 388 315 q 389 207 388 260 q 389 100 389 153 q 390 64 389 82 q 389 28 390 45 q 361 0 387 0 l 98 0 q 71 28 71 0 q 74 102 71 65 q 79 176 77 140 q 84 330 82 253 q 85 484 85 408 q 84 644 85 564 q 79 803 82 724 q 73 879 77 841 q 70 956 70 918 q 72 960 70 959 q 73 960 73 960 q 75 960 74 960 q 79 959 77 960 q 283 844 183 905 q 483 720 383 783 q 578 662 530 691 q 674 605 625 632 q 676 604 675 605 q 679 604 678 604 q 683 607 682 604 q 683 613 683 611 l 683 807 q 682 856 683 831 q 683 904 682 880 q 711 932 685 932 l 969 932 q 996 903 996 932 q 994 834 996 869 q 989 765 991 800 q 985 621 987 693 q 983 477 983 549 q 985 307 983 392 q 992 138 987 222 q 997 57 994 97 q 1002 -24 1000 16 l 1000 -28 m 786 1241 q 764 1143 786 1190 q 702 1065 742 1095 q 607 1034 662 1034 q 534 1052 564 1034 q 477 1092 505 1069 q 414 1126 450 1114 q 408 1129 414 1127 q 400 1131 401 1131 q 367 1110 375 1131 q 356 1069 358 1089 q 349 1046 355 1054 q 325 1038 342 1038 l 266 1038 q 241 1051 245 1038 q 238 1081 238 1065 q 285 1219 238 1162 q 416 1276 332 1276 q 487 1257 457 1276 q 543 1214 516 1238 q 604 1175 570 1190 q 611 1173 605 1175 q 617 1171 616 1171 q 653 1195 647 1171 q 661 1241 659 1219 q 692 1269 665 1267 q 726 1270 709 1270 q 760 1270 743 1270 q 786 1241 786 1270 z "},"O":{"ha":1078,"x_min":54,"x_max":1023,"o":"m 54 465 q 92 650 54 564 q 196 802 130 736 q 350 905 262 868 q 535 943 437 943 q 722 905 634 943 q 878 801 810 867 q 984 648 945 735 q 1023 460 1023 560 q 985 274 1023 360 q 880 125 947 189 q 725 26 812 61 q 538 -9 637 -9 q 350 26 438 -9 q 196 127 262 62 q 92 277 130 191 q 54 465 54 363 m 367 470 q 419 341 367 391 q 549 290 471 290 q 668 341 625 290 q 710 465 710 392 q 664 592 710 541 q 540 643 618 643 q 415 594 464 643 q 367 470 367 546 z "},"Ó":{"ha":1078,"x_min":54,"x_max":1023,"o":"m 54 465 q 92 650 54 564 q 196 802 130 736 q 350 905 262 868 q 535 943 437 943 q 722 905 634 943 q 878 801 810 867 q 984 648 945 735 q 1023 460 1023 560 q 985 274 1023 360 q 880 125 947 189 q 725 26 812 61 q 538 -9 637 -9 q 350 26 438 -9 q 196 127 262 62 q 92 277 130 191 q 54 465 54 363 m 367 470 q 419 341 367 391 q 549 290 471 290 q 668 341 625 290 q 710 465 710 392 q 664 592 710 541 q 540 643 618 643 q 415 594 464 643 q 367 470 367 546 m 753 1194 q 776 1192 759 1194 q 793 1182 793 1191 q 775 1154 793 1175 q 729 1106 758 1133 q 671 1054 701 1079 q 615 1011 641 1028 q 578 995 590 995 l 513 995 q 494 998 506 995 q 482 1011 482 1000 q 493 1042 482 1019 q 520 1093 505 1065 q 550 1146 536 1122 q 569 1179 564 1171 q 593 1194 577 1194 l 753 1194 z "},"Ô":{"ha":1078,"x_min":54,"x_max":1023,"o":"m 54 465 q 92 650 54 564 q 196 802 130 736 q 350 905 262 868 q 535 943 437 943 q 722 905 634 943 q 878 801 810 867 q 984 648 945 735 q 1023 460 1023 560 q 985 274 1023 360 q 880 125 947 189 q 725 26 812 61 q 538 -9 637 -9 q 350 26 438 -9 q 196 127 262 62 q 92 277 130 191 q 54 465 54 363 m 367 470 q 419 341 367 391 q 549 290 471 290 q 668 341 625 290 q 710 465 710 392 q 664 592 710 541 q 540 643 618 643 q 415 594 464 643 q 367 470 367 546 m 608 1009 q 574 1027 590 1009 q 545 1064 558 1046 q 519 1082 531 1082 q 497 1064 509 1082 q 471 1027 486 1046 q 438 1009 457 1009 l 326 1009 q 305 1011 319 1009 q 290 1023 290 1013 q 309 1057 290 1033 q 355 1112 327 1081 q 414 1175 384 1143 q 469 1230 444 1206 q 503 1264 493 1254 q 522 1274 513 1274 q 542 1264 532 1274 q 643 1161 593 1214 q 741 1056 692 1109 q 752 1043 745 1051 q 759 1027 759 1035 q 744 1012 759 1015 q 720 1009 730 1009 l 608 1009 z "},"Ö":{"ha":1078,"x_min":54,"x_max":1023,"o":"m 54 465 q 92 650 54 564 q 196 802 130 736 q 350 905 262 868 q 535 943 437 943 q 722 905 634 943 q 878 801 810 867 q 984 648 945 735 q 1023 460 1023 560 q 985 274 1023 360 q 880 125 947 189 q 725 26 812 61 q 538 -9 637 -9 q 350 26 438 -9 q 196 127 262 62 q 92 277 130 191 q 54 465 54 363 m 367 470 q 419 341 367 391 q 549 290 471 290 q 668 341 625 290 q 710 465 710 392 q 664 592 710 541 q 540 643 618 643 q 415 594 464 643 q 367 470 367 546 m 389 987 q 312 1024 342 987 q 282 1105 282 1060 q 313 1183 282 1149 q 389 1218 343 1218 q 467 1183 435 1218 q 500 1102 500 1147 q 467 1023 500 1058 q 389 987 434 987 m 560 1101 q 595 1182 560 1147 q 675 1218 629 1218 q 749 1184 718 1218 q 779 1108 779 1150 q 764 1051 779 1079 q 723 1005 749 1023 q 667 987 698 987 q 590 1022 620 987 q 560 1101 560 1057 z "},"Ò":{"ha":1078,"x_min":54,"x_max":1023,"o":"m 54 465 q 92 650 54 564 q 196 802 130 736 q 350 905 262 868 q 535 943 437 943 q 722 905 634 943 q 878 801 810 867 q 984 648 945 735 q 1023 460 1023 560 q 985 274 1023 360 q 880 125 947 189 q 725 26 812 61 q 538 -9 637 -9 q 350 26 438 -9 q 196 127 262 62 q 92 277 130 191 q 54 465 54 363 m 367 470 q 419 341 367 391 q 549 290 471 290 q 668 341 625 290 q 710 465 710 392 q 664 592 710 541 q 540 643 618 643 q 415 594 464 643 q 367 470 367 546 m 545 1000 l 462 1000 q 443 1008 451 1000 q 300 1150 371 1078 q 289 1163 294 1156 q 281 1179 283 1170 q 281 1180 281 1179 q 281 1181 281 1181 q 296 1196 281 1194 q 320 1198 312 1198 l 486 1198 q 511 1181 504 1198 q 525 1146 515 1169 q 546 1097 535 1123 q 564 1049 557 1071 q 572 1017 572 1027 q 562 1003 572 1007 q 545 1000 553 1000 z "},"Ø":{"ha":1078,"x_min":54,"x_max":1019,"o":"m 808 861 q 837 892 821 871 q 867 913 852 913 q 904 895 880 913 q 948 853 928 876 q 968 819 968 831 q 949 786 968 803 q 922 755 930 770 q 923 745 920 749 q 942 716 932 730 q 960 687 951 703 q 1004 579 988 635 q 1019 463 1019 522 q 981 275 1019 361 q 877 125 943 189 q 722 26 810 61 q 532 -9 633 -9 q 410 7 467 -9 q 294 52 353 24 l 289 52 q 264 28 278 45 q 236 -2 250 12 q 210 -16 222 -16 q 174 2 199 -16 q 129 42 149 20 q 109 76 109 64 q 120 100 109 87 q 146 128 132 114 q 165 152 159 142 l 166 157 l 163 161 q 83 301 113 231 q 54 459 54 372 q 91 648 54 560 q 194 802 128 736 q 348 904 260 867 q 536 941 435 941 q 673 920 614 941 q 799 863 732 899 q 801 862 800 862 q 802 861 802 862 l 808 861 m 368 471 q 383 392 368 428 q 490 513 437 452 q 597 633 544 573 q 538 643 569 643 q 415 594 463 643 q 368 471 368 546 m 511 293 q 549 290 528 290 q 665 342 624 290 q 706 465 706 395 q 702 508 706 487 q 607 401 654 454 q 511 293 559 347 z "},"Õ":{"ha":1078,"x_min":54,"x_max":1023,"o":"m 54 465 q 92 650 54 564 q 196 802 130 736 q 350 905 262 868 q 535 943 437 943 q 722 905 634 943 q 878 801 810 867 q 984 648 945 735 q 1023 460 1023 560 q 985 274 1023 360 q 880 125 947 189 q 725 26 812 61 q 538 -9 637 -9 q 350 26 438 -9 q 196 127 262 62 q 92 277 130 191 q 54 465 54 363 m 367 470 q 419 341 367 391 q 549 290 471 290 q 668 341 625 290 q 710 465 710 392 q 664 592 710 541 q 540 643 618 643 q 415 594 464 643 q 367 470 367 546 m 834 1265 q 812 1166 834 1214 q 750 1088 790 1119 q 655 1058 710 1058 q 582 1076 612 1058 q 526 1115 553 1093 q 463 1150 498 1137 q 456 1153 462 1151 q 448 1155 450 1155 q 415 1134 423 1155 q 404 1093 406 1113 q 397 1069 403 1078 q 373 1061 391 1061 l 314 1061 q 290 1075 293 1061 q 286 1105 286 1088 q 333 1242 286 1185 q 464 1299 380 1299 q 535 1280 505 1299 q 591 1237 564 1261 q 652 1199 618 1213 q 659 1196 653 1198 q 665 1194 665 1194 q 701 1219 695 1194 q 709 1265 707 1243 q 740 1293 713 1291 q 774 1294 757 1294 q 808 1293 791 1293 q 834 1265 834 1293 z "},"Œ":{"ha":1268,"x_min":64,"x_max":1223,"o":"m 1140 379 q 1113 351 1140 351 l 871 351 q 860 343 861 351 q 860 327 860 336 q 861 310 860 323 q 869 297 863 297 l 1182 296 q 1202 290 1196 296 q 1210 270 1208 283 q 1213 222 1213 246 q 1214 174 1213 197 q 1219 99 1215 136 q 1223 25 1223 62 q 1197 0 1223 0 l 609 0 q 594 -2 602 0 q 579 -5 587 -4 q 519 -9 550 -9 q 336 27 419 -9 q 191 127 252 63 q 97 277 130 191 q 64 460 64 362 q 97 643 64 557 q 192 797 131 730 q 335 903 252 864 q 517 941 418 941 q 551 941 534 941 q 584 937 568 940 q 598 933 591 935 q 612 932 605 932 l 1179 932 q 1205 907 1205 932 q 1202 837 1205 872 q 1197 768 1198 802 q 1196 720 1196 744 q 1193 673 1196 696 q 1186 652 1191 659 q 1165 646 1181 646 l 869 646 q 860 634 861 646 q 859 608 858 622 q 860 587 860 594 q 871 576 860 576 l 1113 576 q 1140 549 1140 576 l 1140 379 m 547 292 q 547 377 547 334 q 547 462 547 419 q 547 547 547 505 q 547 632 547 589 q 526 635 535 635 q 447 611 480 635 q 395 549 413 587 q 376 467 376 511 q 395 382 376 422 q 450 317 414 342 q 532 292 485 292 l 547 292 z "},"P":{"ha":943,"x_min":71,"x_max":903,"o":"m 73 903 q 100 932 73 932 l 456 932 q 625 911 545 932 q 768 847 705 891 q 866 734 830 804 q 903 566 903 665 q 801 294 903 391 q 526 197 699 197 l 391 197 q 384 188 384 197 q 383 162 384 175 q 382 135 382 149 q 384 82 382 110 q 381 28 385 54 q 374 7 379 14 q 353 0 370 0 l 98 0 q 71 28 71 0 q 73 102 71 65 q 77 176 76 140 q 82 330 81 253 q 84 484 84 407 q 83 621 84 553 q 79 758 82 690 q 76 831 78 794 q 73 903 73 867 m 489 431 q 579 470 557 431 q 602 570 602 510 q 489 680 602 680 l 384 680 q 385 555 384 618 q 384 431 385 493 l 489 431 z "},"Þ":{"ha":943,"x_min":71,"x_max":905,"o":"m 366 930 q 390 919 384 930 q 395 892 395 907 q 394 874 395 883 q 393 855 393 865 q 395 840 393 849 q 406 831 397 831 l 518 831 q 730 798 644 831 q 860 688 816 765 q 905 479 905 612 q 818 195 905 296 q 542 94 732 94 q 515 94 536 94 q 467 94 493 94 q 422 94 441 94 q 400 92 402 94 q 394 82 395 89 q 393 71 393 76 q 394 53 393 62 q 395 37 395 45 q 389 11 395 22 q 366 0 383 0 l 98 0 q 71 28 71 0 q 73 102 71 65 q 77 176 76 139 q 82 329 81 252 q 84 483 84 406 q 83 624 84 553 q 79 766 81 695 q 76 834 78 800 q 73 901 73 868 q 100 930 73 930 l 366 930 m 396 395 l 511 395 q 573 411 554 395 q 593 472 593 427 q 566 521 593 507 q 510 534 540 534 l 396 534 l 396 395 z "},"Q":{"ha":1078,"x_min":54,"x_max":1023,"o":"m 54 465 q 92 651 54 564 q 197 803 130 738 q 351 905 264 868 q 538 941 439 941 q 723 904 635 941 q 879 802 811 867 q 985 650 946 736 q 1023 465 1023 564 q 974 254 1023 350 q 836 87 925 157 l 831 83 l 831 78 q 854 45 838 67 q 888 -3 870 22 q 920 -50 907 -28 q 932 -80 932 -71 q 920 -93 932 -91 q 899 -96 907 -96 l 659 -93 q 635 -80 643 -93 q 623 -49 627 -66 q 614 -19 619 -32 q 599 -5 610 -5 q 569 -7 584 -5 q 538 -9 553 -9 q 350 26 438 -9 q 196 127 262 62 q 92 277 130 191 q 54 465 54 363 m 642 359 l 660 332 q 698 392 686 358 q 710 462 710 427 q 665 591 710 538 q 540 643 619 643 q 416 595 465 643 q 368 471 368 547 q 405 358 368 408 q 505 294 441 308 q 495 325 500 310 q 484 355 490 340 q 564 357 524 356 q 642 359 603 359 z "},"R":{"ha":943,"x_min":71,"x_max":898,"o":"m 431 932 q 596 915 519 932 q 734 860 674 899 q 828 754 794 821 q 863 588 863 688 l 863 583 q 833 428 862 501 q 739 304 805 355 q 712 286 726 294 q 685 270 699 279 q 681 267 684 269 l 680 264 q 698 240 680 261 q 744 190 716 219 q 800 130 771 160 q 850 77 828 100 q 879 47 872 54 q 891 33 884 41 q 898 16 898 26 q 883 2 898 4 q 860 0 868 0 l 574 0 q 552 12 562 0 q 529 44 545 19 q 491 100 512 68 q 449 163 469 132 q 414 213 429 193 q 395 233 399 233 q 384 225 385 233 q 382 200 382 213 q 382 174 382 186 q 384 101 382 138 q 381 28 385 64 q 374 7 380 14 q 353 0 369 0 l 98 0 q 71 28 71 0 q 73 102 71 65 q 77 176 76 140 q 82 330 81 253 q 84 484 84 407 q 83 626 84 555 q 79 768 81 697 q 76 836 78 802 q 73 903 73 870 q 100 932 73 932 l 431 932 m 463 468 q 519 485 500 468 q 543 530 537 503 q 549 589 549 558 q 529 656 549 632 q 463 680 508 680 l 384 680 q 384 574 384 627 q 385 468 385 521 l 463 468 z "},"S":{"ha":663,"x_min":39,"x_max":616,"o":"m 390 937 q 434 935 403 937 q 502 928 466 933 q 563 912 537 923 q 588 884 588 902 q 583 847 588 876 q 569 783 577 819 q 555 718 562 748 q 545 675 548 688 q 538 657 542 665 q 520 649 534 649 q 511 650 515 649 q 503 652 507 652 q 444 660 473 660 q 414 656 431 660 q 397 633 397 652 q 411 591 397 612 q 444 550 425 569 q 478 519 463 531 q 556 453 526 481 q 601 387 587 425 q 616 284 616 349 l 616 269 q 586 129 616 184 q 505 44 557 75 q 388 1 454 14 q 250 -11 322 -11 q 152 -7 208 -11 q 58 12 96 -3 q 44 20 50 16 q 39 36 39 25 q 41 45 39 39 q 54 116 47 81 q 67 186 61 151 q 72 221 70 203 q 78 254 73 238 q 85 271 80 261 q 99 280 90 280 q 110 279 104 280 q 119 277 115 278 q 178 267 149 270 q 237 263 206 263 q 267 267 252 263 q 281 292 281 271 q 271 330 281 312 q 250 360 262 345 q 225 387 238 374 q 191 418 209 404 q 154 448 172 433 q 81 538 96 492 q 64 656 65 584 l 64 662 q 106 825 64 765 q 223 911 149 885 q 390 937 297 937 z "},"Š":{"ha":663,"x_min":39,"x_max":616,"o":"m 390 937 q 434 935 403 937 q 502 928 466 933 q 563 912 537 923 q 588 884 588 902 q 583 847 588 876 q 569 783 577 819 q 555 718 562 748 q 545 675 548 688 q 538 657 542 665 q 520 649 534 649 q 511 650 515 649 q 503 652 507 652 q 444 660 473 660 q 414 656 431 660 q 397 633 397 652 q 411 591 397 612 q 444 550 425 569 q 478 519 463 531 q 556 453 526 481 q 601 387 587 425 q 616 284 616 349 l 616 269 q 586 129 616 184 q 505 44 557 75 q 388 1 454 14 q 250 -11 322 -11 q 152 -7 208 -11 q 58 12 96 -3 q 44 20 50 16 q 39 36 39 25 q 41 45 39 39 q 54 116 47 81 q 67 186 61 151 q 72 221 70 203 q 78 254 73 238 q 85 271 80 261 q 99 280 90 280 q 110 279 104 280 q 119 277 115 278 q 178 267 149 270 q 237 263 206 263 q 267 267 252 263 q 281 292 281 271 q 271 330 281 312 q 250 360 262 345 q 225 387 238 374 q 191 418 209 404 q 154 448 172 433 q 81 538 96 492 q 64 656 65 584 l 64 662 q 106 825 64 765 q 223 911 149 885 q 390 937 297 937 m 220 1208 q 255 1191 239 1208 q 285 1154 271 1173 q 310 1136 299 1136 q 331 1152 319 1136 q 357 1186 343 1168 q 389 1208 372 1204 q 422 1210 396 1210 q 475 1209 448 1210 q 513 1208 503 1208 q 534 1206 520 1208 q 549 1192 549 1204 q 548 1191 549 1192 q 548 1190 548 1190 q 540 1174 545 1181 q 528 1161 535 1168 q 429 1057 479 1109 q 328 954 378 1005 q 319 947 324 951 q 308 943 313 943 q 288 954 298 943 q 85 1161 186 1057 q 72 1175 79 1166 q 65 1192 65 1184 q 79 1206 65 1204 q 101 1208 94 1208 l 220 1208 z "},"T":{"ha":754,"x_min":36,"x_max":718,"o":"m 36 903 q 63 932 36 932 l 691 932 q 718 903 718 932 q 716 837 718 870 q 713 769 715 803 q 712 715 713 742 q 711 661 712 688 q 683 633 710 633 l 528 633 q 519 625 519 633 l 519 519 q 522 273 519 396 q 525 28 525 151 q 497 0 525 0 l 241 0 q 214 28 214 0 q 216 252 214 140 q 218 475 218 363 l 218 625 q 210 633 218 633 l 71 633 q 43 661 44 633 q 42 715 42 688 q 41 769 42 742 q 38 837 40 803 q 36 903 36 870 z "},"U":{"ha":970,"x_min":62,"x_max":908,"o":"m 344 932 q 372 904 372 932 q 373 640 372 772 q 374 376 374 508 q 403 298 374 319 q 485 277 432 277 q 566 300 533 277 q 600 376 600 323 q 601 640 600 508 q 602 904 602 772 q 630 932 602 932 l 881 932 q 908 903 908 932 q 905 832 908 868 q 901 762 903 797 q 898 620 899 691 q 897 479 897 549 l 897 367 q 864 215 897 283 q 772 96 830 146 q 641 18 714 45 q 488 -9 567 -9 q 272 30 366 -9 q 125 152 178 69 q 73 364 73 234 q 73 563 73 463 q 68 762 73 663 q 64 832 67 797 q 62 903 62 868 q 89 932 62 932 l 344 932 z "},"Ú":{"ha":970,"x_min":62,"x_max":908,"o":"m 344 932 q 372 904 372 932 q 373 640 372 772 q 374 376 374 508 q 403 298 374 319 q 485 277 432 277 q 566 300 533 277 q 600 376 600 323 q 601 640 600 508 q 602 904 602 772 q 630 932 602 932 l 881 932 q 908 903 908 932 q 905 832 908 868 q 901 762 903 797 q 898 620 899 691 q 897 479 897 549 l 897 367 q 864 215 897 283 q 772 96 830 146 q 641 18 714 45 q 488 -9 567 -9 q 272 30 366 -9 q 125 152 178 69 q 73 364 73 234 q 73 563 73 463 q 68 762 73 663 q 64 832 67 797 q 62 903 62 868 q 89 932 62 932 l 344 932 m 697 1215 q 721 1213 703 1215 q 738 1203 738 1212 q 720 1175 738 1196 q 674 1127 702 1154 q 615 1075 646 1100 q 560 1033 585 1049 q 523 1016 534 1016 l 458 1016 q 438 1019 450 1016 q 427 1032 427 1021 q 438 1063 427 1040 q 465 1114 449 1086 q 494 1167 480 1143 q 513 1200 508 1192 q 538 1215 522 1215 l 697 1215 z "},"Û":{"ha":970,"x_min":62,"x_max":908,"o":"m 344 932 q 372 904 372 932 q 373 640 372 772 q 374 376 374 508 q 403 298 374 319 q 485 277 432 277 q 566 300 533 277 q 600 376 600 323 q 601 640 600 508 q 602 904 602 772 q 630 932 602 932 l 881 932 q 908 903 908 932 q 905 832 908 868 q 901 762 903 797 q 898 620 899 691 q 897 479 897 549 l 897 367 q 864 215 897 283 q 772 96 830 146 q 641 18 714 45 q 488 -9 567 -9 q 272 30 366 -9 q 125 152 178 69 q 73 364 73 234 q 73 563 73 463 q 68 762 73 663 q 64 832 67 797 q 62 903 62 868 q 89 932 62 932 l 344 932 m 553 1030 q 518 1048 534 1030 q 489 1085 503 1067 q 464 1103 475 1103 q 442 1085 454 1103 q 416 1048 430 1067 q 382 1030 401 1030 l 271 1030 q 249 1032 264 1030 q 235 1044 235 1034 q 253 1078 235 1054 q 300 1133 271 1102 q 358 1196 328 1164 q 413 1251 389 1227 q 447 1285 437 1275 q 467 1295 457 1295 q 486 1285 476 1295 q 587 1182 538 1235 q 685 1077 636 1130 q 696 1064 690 1072 q 703 1048 703 1056 q 689 1033 703 1036 q 665 1030 674 1030 l 553 1030 z "},"Ü":{"ha":970,"x_min":62,"x_max":908,"o":"m 344 932 q 372 904 372 932 q 373 640 372 772 q 374 376 374 508 q 403 298 374 319 q 485 277 432 277 q 566 300 533 277 q 600 376 600 323 q 601 640 600 508 q 602 904 602 772 q 630 932 602 932 l 881 932 q 908 903 908 932 q 905 832 908 868 q 901 762 903 797 q 898 620 899 691 q 897 479 897 549 l 897 367 q 864 215 897 283 q 772 96 830 146 q 641 18 714 45 q 488 -9 567 -9 q 272 30 366 -9 q 125 152 178 69 q 73 364 73 234 q 73 563 73 463 q 68 762 73 663 q 64 832 67 797 q 62 903 62 868 q 89 932 62 932 l 344 932 m 334 1008 q 257 1045 287 1008 q 227 1126 227 1081 q 257 1204 227 1170 q 333 1239 288 1239 q 412 1204 379 1239 q 444 1123 444 1168 q 411 1044 444 1079 q 334 1008 378 1008 m 505 1122 q 539 1203 505 1168 q 619 1239 574 1239 q 693 1205 663 1239 q 724 1129 724 1171 q 708 1072 724 1100 q 668 1026 693 1044 q 611 1008 642 1008 q 534 1043 564 1008 q 505 1122 505 1078 z "},"Ù":{"ha":970,"x_min":62,"x_max":908,"o":"m 344 932 q 372 904 372 932 q 373 640 372 772 q 374 376 374 508 q 403 298 374 319 q 485 277 432 277 q 566 300 533 277 q 600 376 600 323 q 601 640 600 508 q 602 904 602 772 q 630 932 602 932 l 881 932 q 908 903 908 932 q 905 832 908 868 q 901 762 903 797 q 898 620 899 691 q 897 479 897 549 l 897 367 q 864 215 897 283 q 772 96 830 146 q 641 18 714 45 q 488 -9 567 -9 q 272 30 366 -9 q 125 152 178 69 q 73 364 73 234 q 73 563 73 463 q 68 762 73 663 q 64 832 67 797 q 62 903 62 868 q 89 932 62 932 l 344 932 m 489 1021 l 406 1021 q 387 1029 395 1021 q 245 1171 315 1099 q 233 1184 239 1177 q 226 1200 228 1191 q 225 1201 226 1200 q 225 1202 225 1202 q 241 1217 225 1215 q 264 1219 256 1219 l 430 1219 q 455 1202 448 1219 q 470 1167 460 1190 q 490 1118 479 1144 q 509 1070 501 1092 q 516 1038 516 1048 q 507 1024 516 1028 q 489 1021 497 1021 z "},"V":{"ha":953,"x_min":40,"x_max":913,"o":"m 347 932 q 374 913 365 932 q 391 869 384 892 q 406 825 398 846 q 444 718 425 771 q 483 611 463 664 q 486 605 484 608 q 491 601 487 601 q 496 605 494 601 q 499 611 498 608 q 541 720 521 665 q 581 829 561 774 q 595 872 588 850 q 613 914 602 895 q 639 932 623 932 l 882 932 q 902 929 892 932 q 913 913 913 926 q 911 902 913 907 q 906 892 909 897 q 784 638 844 766 q 667 382 724 511 q 610 254 638 319 q 553 126 583 190 q 528 69 541 98 q 502 13 515 41 q 494 -2 497 4 q 482 -13 491 -7 q 477 -14 481 -14 q 461 -4 468 -14 q 452 13 455 6 q 425 70 437 41 q 400 126 413 98 q 227 511 314 319 q 47 892 140 703 q 42 902 44 897 q 40 913 40 907 q 51 929 40 926 q 71 932 61 932 l 347 932 z "},"W":{"ha":1369,"x_min":40,"x_max":1330,"o":"m 720 451 q 716 448 719 450 q 713 444 714 446 q 693 415 705 435 q 670 373 682 394 q 652 339 659 351 q 588 229 620 284 q 524 119 557 174 q 491 62 507 90 q 456 6 474 34 q 447 -7 451 -1 q 433 -16 442 -13 q 431 -17 432 -16 q 429 -17 430 -17 q 415 -6 420 -17 q 406 11 410 4 q 385 67 395 39 q 363 125 374 96 q 212 512 290 319 q 45 892 134 705 q 40 912 40 903 q 50 928 40 925 q 69 932 59 932 l 331 932 q 357 915 347 932 q 377 871 368 895 q 395 826 386 848 q 439 719 417 772 q 481 611 461 665 q 484 604 484 606 q 488 602 485 604 l 490 602 q 494 604 493 604 q 505 631 495 606 q 526 689 514 656 q 548 747 538 722 q 557 774 557 772 q 547 801 557 782 q 524 842 537 819 q 501 884 511 864 q 491 915 491 905 q 503 929 491 926 q 522 932 514 932 l 765 932 q 790 915 782 932 q 808 872 795 904 q 838 799 821 840 q 870 718 854 758 q 898 652 886 679 q 911 622 909 625 l 915 621 q 919 624 918 623 q 933 655 923 629 q 957 720 943 682 q 984 798 970 758 q 1010 869 998 838 q 1030 914 1023 901 q 1040 927 1035 922 q 1056 932 1046 932 l 1300 932 q 1320 928 1310 932 q 1330 912 1330 925 q 1328 903 1330 907 q 1324 893 1326 898 q 1220 643 1270 769 q 1125 389 1170 517 q 1063 204 1093 297 q 1002 20 1034 112 q 994 1 999 12 q 978 -10 989 -10 q 962 0 968 -10 q 951 16 955 9 q 920 71 935 43 q 891 126 906 99 q 811 285 850 205 q 728 444 772 366 q 720 451 725 448 z "},"X":{"ha":916,"x_min":-17,"x_max":931,"o":"m -17 18 q -13 32 -17 25 q -7 43 -9 38 q 23 90 1 55 q 75 173 45 125 q 137 272 105 220 q 196 368 168 323 q 240 444 223 414 q 257 480 257 475 q 241 513 257 485 q 199 584 224 541 q 143 674 173 627 q 84 767 113 722 q 35 845 56 812 q 7 889 14 878 q 0 901 3 895 q -3 913 -3 907 q 8 929 -3 926 q 29 932 20 932 l 361 932 q 385 919 375 932 q 407 884 391 911 q 441 825 422 857 q 476 770 460 793 q 496 747 492 747 q 498 747 498 747 q 524 809 513 777 q 546 872 535 842 q 553 893 550 882 q 562 914 557 905 q 587 932 571 932 l 897 932 q 918 929 907 932 q 930 913 930 926 q 926 901 930 907 q 920 889 923 895 q 891 843 913 878 q 840 762 869 809 q 779 665 810 715 q 721 571 748 615 q 677 497 694 526 q 661 463 661 467 q 677 429 661 458 q 721 356 694 399 q 780 263 748 312 q 841 168 811 214 q 892 88 870 121 q 921 43 913 54 q 928 31 924 37 q 931 18 931 25 q 920 3 931 5 q 899 0 909 0 l 562 0 q 538 13 548 0 q 516 48 532 21 q 480 109 500 76 q 446 165 461 141 q 426 189 430 189 q 420 181 423 189 q 391 100 404 142 q 361 18 379 58 q 335 0 354 0 l 15 0 q -6 3 5 0 q -17 18 -17 5 z "},"Y":{"ha":909,"x_min":-7,"x_max":917,"o":"m 292 28 q 294 117 292 73 q 295 204 295 161 q 295 229 295 210 q 294 252 295 248 q 286 273 291 262 q 275 295 280 284 q 249 356 262 326 q 222 416 235 386 q 113 655 168 536 q -1 892 58 774 q -5 902 -3 897 q -7 913 -7 907 q 3 929 -7 926 q 23 932 14 932 l 341 932 q 358 927 353 932 q 368 911 363 922 q 381 870 376 892 q 391 827 386 848 q 412 753 401 790 q 432 680 422 716 q 441 649 436 665 q 449 618 446 633 q 451 612 450 614 q 454 606 451 609 l 456 605 q 462 610 460 604 q 465 618 464 615 q 492 722 479 670 q 519 827 505 774 q 529 870 524 848 q 541 911 533 892 q 568 932 549 932 l 886 932 q 906 928 896 932 q 917 913 917 925 q 915 902 917 907 q 909 891 912 897 q 795 665 852 779 q 686 436 739 551 q 668 398 682 427 q 638 336 654 370 q 610 275 622 302 q 599 244 599 249 q 601 136 599 191 q 603 28 603 82 q 575 0 603 0 l 319 0 q 292 28 292 0 z "},"Ý":{"ha":909,"x_min":-7,"x_max":917,"o":"m 292 28 q 294 117 292 73 q 295 204 295 161 q 295 229 295 210 q 294 252 295 248 q 286 273 291 262 q 275 295 280 284 q 249 356 262 326 q 222 416 235 386 q 113 655 168 536 q -1 892 58 774 q -5 902 -3 897 q -7 913 -7 907 q 3 929 -7 926 q 23 932 14 932 l 341 932 q 358 927 353 932 q 368 911 363 922 q 381 870 376 892 q 391 827 386 848 q 412 753 401 790 q 432 680 422 716 q 441 649 436 665 q 449 618 446 633 q 451 612 450 614 q 454 606 451 609 l 456 605 q 462 610 460 604 q 465 618 464 615 q 492 722 479 670 q 519 827 505 774 q 529 870 524 848 q 541 911 533 892 q 568 932 549 932 l 886 932 q 906 928 896 932 q 917 913 917 925 q 915 902 917 907 q 909 891 912 897 q 795 665 852 779 q 686 436 739 551 q 668 398 682 427 q 638 336 654 370 q 610 275 622 302 q 599 244 599 249 q 601 136 599 191 q 603 28 603 82 q 575 0 603 0 l 319 0 q 292 28 292 0 m 713 1221 q 736 1220 719 1221 q 753 1210 753 1219 q 735 1181 753 1202 q 689 1134 718 1160 q 631 1081 661 1107 q 575 1039 601 1056 q 538 1023 550 1023 l 473 1023 q 454 1025 466 1023 q 442 1039 442 1028 q 453 1069 442 1046 q 480 1121 465 1093 q 510 1174 496 1149 q 529 1207 524 1198 q 553 1221 537 1221 l 713 1221 z "},"Ÿ":{"ha":909,"x_min":-7,"x_max":917,"o":"m 292 28 q 294 117 292 73 q 295 204 295 161 q 295 229 295 210 q 294 252 295 248 q 286 273 291 262 q 275 295 280 284 q 249 356 262 326 q 222 416 235 386 q 113 655 168 536 q -1 892 58 774 q -5 902 -3 897 q -7 913 -7 907 q 3 929 -7 926 q 23 932 14 932 l 341 932 q 358 927 353 932 q 368 911 363 922 q 381 870 376 892 q 391 827 386 848 q 412 753 401 790 q 432 680 422 716 q 441 649 436 665 q 449 618 446 633 q 451 612 450 614 q 454 606 451 609 l 456 605 q 462 610 460 604 q 465 618 464 615 q 492 722 479 670 q 519 827 505 774 q 529 870 524 848 q 541 911 533 892 q 568 932 549 932 l 886 932 q 906 928 896 932 q 917 913 917 925 q 915 902 917 907 q 909 891 912 897 q 795 665 852 779 q 686 436 739 551 q 668 398 682 427 q 638 336 654 370 q 610 275 622 302 q 599 244 599 249 q 601 136 599 191 q 603 28 603 82 q 575 0 603 0 l 319 0 q 292 28 292 0 m 349 1015 q 272 1052 302 1015 q 242 1133 242 1088 q 273 1211 242 1177 q 349 1246 303 1246 q 427 1211 395 1246 q 460 1130 460 1175 q 427 1050 460 1086 q 349 1015 394 1015 m 520 1129 q 555 1210 520 1175 q 635 1246 589 1246 q 709 1212 678 1246 q 739 1136 739 1178 q 724 1079 739 1107 q 683 1033 709 1051 q 627 1015 658 1015 q 550 1050 580 1015 q 520 1129 520 1084 z "},"Z":{"ha":742,"x_min":10,"x_max":728,"o":"m 40 0 q 20 3 31 0 q 10 19 10 7 q 12 30 10 25 q 16 39 14 35 q 102 226 60 132 q 185 414 144 319 q 231 517 208 465 q 273 621 254 569 q 274 623 273 622 q 274 625 274 625 l 274 629 q 265 633 272 633 l 74 633 q 54 640 59 633 q 47 661 48 647 q 45 708 45 684 q 45 754 45 731 q 41 829 43 791 q 39 903 39 866 q 66 932 39 932 l 698 932 q 718 928 707 932 q 728 913 728 924 q 726 903 728 908 q 722 892 724 897 q 548 500 633 699 q 508 407 528 454 q 469 312 488 359 q 469 310 469 311 q 468 307 468 308 q 477 299 468 299 l 667 299 q 687 293 682 299 q 694 273 692 286 q 697 223 698 249 q 697 174 696 198 q 701 101 699 138 q 703 28 703 64 q 675 0 703 0 l 40 0 z "},"Ž":{"ha":742,"x_min":10,"x_max":728,"o":"m 40 0 q 20 3 31 0 q 10 19 10 7 q 12 30 10 25 q 16 39 14 35 q 102 226 60 132 q 185 414 144 319 q 231 517 208 465 q 273 621 254 569 q 274 623 273 622 q 274 625 274 625 l 274 629 q 265 633 272 633 l 74 633 q 54 640 59 633 q 47 661 48 647 q 45 708 45 684 q 45 754 45 731 q 41 829 43 791 q 39 903 39 866 q 66 932 39 932 l 698 932 q 718 928 707 932 q 728 913 728 924 q 726 903 728 908 q 722 892 724 897 q 548 500 633 699 q 508 407 528 454 q 469 312 488 359 q 469 310 469 311 q 468 307 468 308 q 477 299 468 299 l 667 299 q 687 293 682 299 q 694 273 692 286 q 697 223 698 249 q 697 174 696 198 q 701 101 699 138 q 703 28 703 64 q 675 0 703 0 l 40 0 m 296 1227 q 332 1209 315 1227 q 362 1173 348 1191 q 387 1154 376 1154 q 408 1171 396 1154 q 434 1204 420 1187 q 466 1226 448 1222 q 498 1228 473 1228 q 552 1227 524 1228 q 589 1227 579 1227 q 611 1224 597 1227 q 625 1211 625 1222 q 625 1209 625 1210 q 625 1208 625 1208 q 617 1193 622 1199 q 605 1179 612 1186 q 505 1076 555 1128 q 404 972 455 1023 q 395 965 401 969 q 385 962 390 962 q 365 972 375 962 q 161 1179 262 1075 q 149 1194 156 1185 q 142 1211 142 1202 q 156 1224 142 1222 q 178 1227 170 1227 l 296 1227 z "},"a":{"ha":865,"x_min":41,"x_max":812,"o":"m 308 -22 q 183 9 234 -22 q 100 91 132 40 q 55 205 68 142 q 41 331 41 267 q 56 473 41 405 q 106 594 71 541 q 198 678 140 647 q 340 709 256 709 q 415 696 380 709 q 486 666 450 684 l 489 665 l 492 665 q 509 681 504 671 q 530 690 513 690 l 774 690 q 802 663 802 690 q 801 559 802 611 q 800 456 800 508 q 801 312 800 385 q 805 167 802 239 q 809 98 806 132 q 812 28 812 63 q 785 0 812 0 l 535 0 q 515 24 515 0 q 515 40 515 28 q 508 51 515 51 l 505 50 q 413 -2 460 18 q 308 -22 366 -22 m 420 234 q 471 244 446 234 q 511 276 496 255 l 511 453 q 470 478 492 469 q 422 488 447 488 q 372 464 391 488 q 344 409 353 441 q 335 351 335 377 q 344 299 335 326 q 372 253 353 272 q 420 234 391 234 z "},"á":{"ha":865,"x_min":41,"x_max":812,"o":"m 308 -22 q 183 9 234 -22 q 100 91 132 40 q 55 205 68 142 q 41 331 41 267 q 56 473 41 405 q 106 594 71 541 q 198 678 140 647 q 340 709 256 709 q 415 696 380 709 q 486 666 450 684 l 489 665 l 492 665 q 509 681 504 671 q 530 690 513 690 l 774 690 q 802 663 802 690 q 801 559 802 611 q 800 456 800 508 q 801 312 800 385 q 805 167 802 239 q 809 98 806 132 q 812 28 812 63 q 785 0 812 0 l 535 0 q 515 24 515 0 q 515 40 515 28 q 508 51 515 51 l 505 50 q 413 -2 460 18 q 308 -22 366 -22 m 420 234 q 471 244 446 234 q 511 276 496 255 l 511 453 q 470 478 492 469 q 422 488 447 488 q 372 464 391 488 q 344 409 353 441 q 335 351 335 377 q 344 299 335 326 q 372 253 353 272 q 420 234 391 234 m 690 1000 q 715 998 699 1000 q 732 984 732 996 q 732 980 732 981 q 722 964 729 971 q 708 951 715 958 q 656 906 682 928 q 604 859 630 883 q 576 833 590 846 q 547 808 562 820 q 529 802 538 802 l 454 802 q 435 805 447 802 q 423 819 423 808 q 434 851 423 828 q 460 901 445 874 q 490 952 476 928 q 511 986 505 975 q 535 1000 519 1000 l 690 1000 z "},"â":{"ha":865,"x_min":41,"x_max":812,"o":"m 308 -22 q 183 9 234 -22 q 100 91 132 40 q 55 205 68 142 q 41 331 41 267 q 56 473 41 405 q 106 594 71 541 q 198 678 140 647 q 340 709 256 709 q 415 696 380 709 q 486 666 450 684 l 489 665 l 492 665 q 509 681 504 671 q 530 690 513 690 l 774 690 q 802 663 802 690 q 801 559 802 611 q 800 456 800 508 q 801 312 800 385 q 805 167 802 239 q 809 98 806 132 q 812 28 812 63 q 785 0 812 0 l 535 0 q 515 24 515 0 q 515 40 515 28 q 508 51 515 51 l 505 50 q 413 -2 460 18 q 308 -22 366 -22 m 420 234 q 471 244 446 234 q 511 276 496 255 l 511 453 q 470 478 492 469 q 422 488 447 488 q 372 464 391 488 q 344 409 353 441 q 335 351 335 377 q 344 299 335 326 q 372 253 353 272 q 420 234 391 234 m 566 802 q 531 820 547 802 q 501 856 515 838 q 477 874 488 874 q 455 856 467 874 q 429 820 443 838 q 395 802 414 802 l 283 802 q 262 804 277 802 q 248 815 248 806 q 266 849 248 825 q 313 905 284 873 q 371 967 341 936 q 426 1022 401 998 q 460 1057 450 1046 q 479 1067 470 1067 q 499 1057 489 1067 q 531 1024 507 1048 q 586 968 555 1000 q 646 905 616 937 q 695 851 675 874 q 716 822 715 828 q 716 820 716 821 q 717 818 717 819 q 702 804 717 807 q 678 802 686 802 l 566 802 z "},"ä":{"ha":865,"x_min":41,"x_max":812,"o":"m 308 -22 q 183 9 234 -22 q 100 91 132 40 q 55 205 68 142 q 41 331 41 267 q 56 473 41 405 q 106 594 71 541 q 198 678 140 647 q 340 709 256 709 q 415 696 380 709 q 486 666 450 684 l 489 665 l 492 665 q 509 681 504 671 q 530 690 513 690 l 774 690 q 802 663 802 690 q 801 559 802 611 q 800 456 800 508 q 801 312 800 385 q 805 167 802 239 q 809 98 806 132 q 812 28 812 63 q 785 0 812 0 l 535 0 q 515 24 515 0 q 515 40 515 28 q 508 51 515 51 l 505 50 q 413 -2 460 18 q 308 -22 366 -22 m 420 234 q 471 244 446 234 q 511 276 496 255 l 511 453 q 470 478 492 469 q 422 488 447 488 q 372 464 391 488 q 344 409 353 441 q 335 351 335 377 q 344 299 335 326 q 372 253 353 272 q 420 234 391 234 m 512 884 q 545 965 512 928 q 623 1002 577 1002 q 696 965 667 1002 q 725 886 725 928 q 710 832 725 859 q 670 788 694 806 q 617 771 646 771 q 542 806 572 771 q 512 884 512 841 m 239 884 q 269 965 239 928 q 345 1001 299 1001 q 422 965 391 1001 q 453 886 453 930 q 421 807 453 843 q 345 771 389 771 q 271 807 302 771 q 239 884 239 842 z "},"à":{"ha":865,"x_min":41,"x_max":812,"o":"m 308 -22 q 183 9 234 -22 q 100 91 132 40 q 55 205 68 142 q 41 331 41 267 q 56 473 41 405 q 106 594 71 541 q 198 678 140 647 q 340 709 256 709 q 415 696 380 709 q 486 666 450 684 l 489 665 l 492 665 q 509 681 504 671 q 530 690 513 690 l 774 690 q 802 663 802 690 q 801 559 802 611 q 800 456 800 508 q 801 312 800 385 q 805 167 802 239 q 809 98 806 132 q 812 28 812 63 q 785 0 812 0 l 535 0 q 515 24 515 0 q 515 40 515 28 q 508 51 515 51 l 505 50 q 413 -2 460 18 q 308 -22 366 -22 m 420 234 q 471 244 446 234 q 511 276 496 255 l 511 453 q 470 478 492 469 q 422 488 447 488 q 372 464 391 488 q 344 409 353 441 q 335 351 335 377 q 344 299 335 326 q 372 253 353 272 q 420 234 391 234 m 422 802 q 404 810 413 802 q 333 881 368 844 q 264 953 298 918 q 252 965 259 958 q 244 980 245 972 q 244 982 244 981 q 243 984 243 983 q 259 998 243 996 q 283 1000 275 1000 l 444 1000 q 470 983 462 1000 q 484 951 474 975 q 504 900 494 928 q 523 849 515 872 q 530 820 530 827 q 520 805 530 809 q 501 802 510 802 l 422 802 z "},"å":{"ha":865,"x_min":41,"x_max":812,"o":"m 308 -22 q 183 9 234 -22 q 100 91 132 40 q 55 205 68 142 q 41 331 41 267 q 56 473 41 405 q 106 594 71 541 q 198 678 140 647 q 340 709 256 709 q 415 696 380 709 q 486 666 450 684 l 489 665 l 492 665 q 509 681 504 671 q 530 690 513 690 l 774 690 q 802 663 802 690 q 801 559 802 611 q 800 456 800 508 q 801 312 800 385 q 805 167 802 239 q 809 98 806 132 q 812 28 812 63 q 785 0 812 0 l 535 0 q 515 24 515 0 q 515 40 515 28 q 508 51 515 51 l 505 50 q 413 -2 460 18 q 308 -22 366 -22 m 420 234 q 471 244 446 234 q 511 276 496 255 l 511 453 q 470 478 492 469 q 422 488 447 488 q 372 464 391 488 q 344 409 353 441 q 335 351 335 377 q 344 299 335 326 q 372 253 353 272 q 420 234 391 234 m 292 924 q 341 1040 292 998 q 462 1081 390 1081 q 580 1041 532 1081 q 629 928 629 1002 q 581 808 629 854 q 460 762 534 762 q 340 806 388 762 q 292 924 292 850 m 406 918 q 426 875 406 891 q 471 859 446 859 q 509 881 501 859 q 517 926 517 902 q 508 964 517 950 q 473 979 500 979 q 426 963 446 979 q 406 918 406 947 z "},"ã":{"ha":865,"x_min":41,"x_max":812,"o":"m 308 -22 q 183 9 234 -22 q 100 91 132 40 q 55 205 68 142 q 41 331 41 267 q 56 473 41 405 q 106 594 71 541 q 198 678 140 647 q 340 709 256 709 q 415 696 380 709 q 486 666 450 684 l 489 665 l 492 665 q 509 681 504 671 q 530 690 513 690 l 774 690 q 802 663 802 690 q 801 559 802 611 q 800 456 800 508 q 801 312 800 385 q 805 167 802 239 q 809 98 806 132 q 812 28 812 63 q 785 0 812 0 l 535 0 q 515 24 515 0 q 515 40 515 28 q 508 51 515 51 l 505 50 q 413 -2 460 18 q 308 -22 366 -22 m 420 234 q 471 244 446 234 q 511 276 496 255 l 511 453 q 470 478 492 469 q 422 488 447 488 q 372 464 391 488 q 344 409 353 441 q 335 351 335 377 q 344 299 335 326 q 372 253 353 272 q 420 234 391 234 m 740 969 q 724 878 740 924 q 675 801 708 832 q 590 770 642 770 q 520 787 548 770 q 467 826 492 804 q 407 860 441 847 q 400 863 406 861 q 393 865 395 865 q 361 846 368 865 q 352 806 354 827 q 345 784 351 791 q 322 775 339 777 q 296 774 309 774 q 271 774 283 774 q 248 786 252 774 q 243 812 243 798 q 261 906 243 862 q 315 978 279 950 q 406 1006 351 1006 q 462 991 435 1006 q 513 955 489 975 q 557 919 536 935 q 593 903 577 903 q 619 918 614 903 q 625 952 625 933 q 630 986 625 972 q 656 1001 635 1001 l 714 1001 q 735 992 730 1001 q 740 969 740 983 z "},"æ":{"ha":1243,"x_min":41,"x_max":1201,"o":"m 291 -21 q 162 -1 219 -21 q 73 65 106 19 q 41 191 41 112 q 67 288 41 250 q 138 345 94 325 q 234 374 182 366 q 339 383 287 382 q 434 385 391 385 q 441 389 439 385 q 443 388 442 389 q 444 385 444 387 l 447 388 l 448 397 l 446 400 l 442 396 q 408 465 441 446 q 330 484 374 484 q 278 477 303 484 q 230 459 254 471 q 219 454 225 456 q 208 452 214 452 q 179 469 197 452 q 141 510 160 486 q 109 555 122 534 q 96 586 96 577 q 99 595 96 591 q 105 602 102 599 q 242 684 163 658 q 400 710 320 710 q 490 702 444 710 q 576 676 536 694 q 598 665 588 671 q 620 654 609 659 l 624 654 l 627 656 q 723 694 675 680 q 825 709 770 709 q 1068 635 981 709 q 1181 408 1156 560 q 1182 405 1181 406 q 1182 401 1182 403 q 1163 378 1182 385 q 1107 360 1150 373 q 1006 331 1063 347 q 895 299 949 315 q 803 272 840 283 q 765 258 766 261 q 767 250 765 254 q 825 198 785 215 q 902 181 865 181 q 1000 198 954 181 q 1091 239 1047 216 q 1101 244 1096 242 q 1111 246 1105 246 q 1125 240 1120 246 q 1133 227 1130 233 q 1147 197 1137 220 q 1171 148 1158 174 q 1192 99 1183 121 q 1201 74 1201 78 q 1197 63 1201 68 q 1189 56 1193 59 q 1092 9 1147 26 q 979 -15 1037 -8 q 871 -22 922 -22 q 702 -1 781 -22 q 551 75 624 20 l 547 78 l 541 78 q 538 77 540 77 q 536 75 537 76 q 519 58 527 66 q 503 43 512 50 q 403 -8 457 5 q 291 -21 349 -21 m 745 395 l 886 439 q 819 493 874 493 q 762 462 776 493 q 745 395 748 431 m 387 194 q 427 206 409 194 q 456 234 444 218 q 454 246 455 240 q 452 258 452 252 q 435 259 444 258 q 418 259 427 259 q 387 250 397 259 q 377 219 377 241 q 379 205 377 212 q 387 194 380 198 z "},"b":{"ha":867,"x_min":50,"x_max":826,"o":"m 826 351 q 806 217 826 283 q 748 97 787 151 q 652 11 709 43 q 520 -22 595 -22 q 447 -10 480 -22 q 380 22 414 1 l 374 26 l 370 26 q 368 17 368 24 q 367 6 368 12 q 359 0 367 0 l 81 0 q 54 28 54 0 q 56 102 54 65 q 60 176 59 140 q 64 331 63 254 q 66 485 66 408 q 64 663 66 574 q 59 840 62 752 q 54 925 58 882 q 50 1010 50 968 q 77 1039 50 1039 l 338 1039 q 366 1011 366 1039 q 367 910 366 961 q 368 809 368 859 q 368 747 368 778 q 368 685 368 716 q 370 678 368 682 q 375 674 371 673 l 382 679 q 459 719 420 705 q 545 733 498 733 q 679 699 625 733 q 766 609 733 665 q 812 486 798 553 q 826 351 826 418 m 448 246 q 492 268 476 246 q 515 318 508 290 q 522 369 522 347 q 515 421 522 390 q 491 476 507 452 q 448 500 475 500 q 408 489 428 500 q 375 465 389 479 q 375 377 375 421 q 374 288 375 332 q 406 258 385 269 q 448 246 427 246 z "},"c":{"ha":599,"x_min":35,"x_max":564,"o":"m 479 238 q 495 231 490 238 q 503 216 500 224 q 513 184 505 210 q 532 126 522 158 q 549 70 542 94 q 557 43 557 45 q 529 14 557 26 q 463 -6 501 1 q 389 -17 424 -14 q 341 -20 355 -20 q 166 23 234 -20 q 67 144 98 67 q 35 322 35 222 q 70 520 35 432 q 179 660 104 608 q 373 711 254 711 q 466 701 417 711 q 551 663 515 690 q 559 655 555 660 q 564 644 564 650 q 555 616 564 640 q 533 562 546 592 q 510 506 521 532 q 496 473 499 481 q 488 460 492 467 q 473 454 483 454 q 447 461 460 454 q 418 469 434 469 q 370 446 387 469 q 346 394 353 424 q 340 338 340 363 q 357 262 340 299 q 421 226 374 226 q 451 232 437 226 q 479 238 465 238 z "},"ç":{"ha":599,"x_min":35,"x_max":564,"o":"m 479 238 q 495 231 490 238 q 503 216 500 224 q 513 184 505 210 q 532 126 522 158 q 549 70 542 94 q 557 43 557 45 q 529 14 557 26 q 463 -6 501 1 q 389 -17 424 -14 q 341 -20 355 -20 q 166 23 234 -20 q 67 144 98 67 q 35 322 35 222 q 70 520 35 432 q 179 660 104 608 q 373 711 254 711 q 466 701 417 711 q 551 663 515 690 q 559 655 555 660 q 564 644 564 650 q 555 616 564 640 q 533 562 546 592 q 510 506 521 532 q 496 473 499 481 q 488 460 492 467 q 473 454 483 454 q 447 461 460 454 q 418 469 434 469 q 370 446 387 469 q 346 394 353 424 q 340 338 340 363 q 357 262 340 299 q 421 226 374 226 q 451 232 437 226 q 479 238 465 238 m 279 -355 q 189 -342 235 -355 q 109 -300 142 -330 q 103 -293 106 -296 q 100 -284 100 -289 q 112 -257 100 -275 q 140 -224 124 -239 q 165 -209 156 -209 q 203 -222 180 -209 q 251 -235 225 -235 q 284 -230 265 -235 q 317 -214 302 -225 q 331 -186 331 -203 q 303 -149 331 -157 q 254 -142 276 -142 q 218 -146 236 -142 q 183 -151 201 -151 q 159 -130 165 -151 q 149 -97 155 -117 q 142 -64 142 -76 q 162 -32 142 -49 q 205 -2 182 -16 q 241 16 229 12 q 279 20 250 19 q 338 20 308 20 q 380 20 368 20 q 391 18 385 20 q 397 10 397 17 q 388 -8 397 1 q 369 -27 378 -18 q 360 -41 360 -35 q 370 -48 360 -47 q 476 -92 430 -59 q 522 -193 522 -124 q 499 -271 522 -240 q 438 -321 475 -302 q 359 -347 401 -339 q 279 -355 317 -355 z "},"d":{"ha":867,"x_min":41,"x_max":817,"o":"m 304 -22 q 179 9 230 -22 q 98 92 129 40 q 54 206 68 143 q 41 332 41 269 q 54 467 41 400 q 99 588 68 534 q 184 676 131 643 q 318 709 238 709 q 406 694 366 709 q 486 655 447 680 l 493 651 l 496 651 q 499 676 498 653 q 501 735 500 700 q 501 806 501 770 q 501 869 501 842 q 501 905 501 897 q 500 959 501 932 q 503 1011 500 985 q 510 1033 505 1027 q 531 1039 515 1039 l 790 1039 q 817 1010 817 1039 q 813 925 817 968 q 808 840 809 882 q 803 663 804 752 q 801 485 801 574 q 802 331 801 408 q 806 176 804 254 q 810 102 808 140 q 813 28 813 65 q 786 0 813 0 l 515 0 q 500 18 500 0 q 500 30 500 23 q 497 39 500 37 l 492 40 l 486 37 q 400 -6 443 9 q 304 -22 357 -22 m 425 234 q 467 245 446 234 q 499 275 488 256 q 498 364 498 319 q 498 452 498 408 q 464 476 484 466 q 425 487 445 487 q 382 464 399 487 q 359 411 366 441 q 351 361 351 381 q 358 309 351 339 q 380 256 364 279 q 425 234 396 234 z "},"ð":{"ha":867,"x_min":41,"x_max":826,"o":"m 412 -22 q 218 20 302 -22 q 87 141 134 62 q 41 334 41 220 q 77 521 41 435 q 187 658 114 606 q 370 709 260 709 q 406 705 389 709 q 442 697 424 701 l 446 699 l 445 703 q 426 726 440 710 q 394 759 412 742 q 361 789 376 777 q 339 802 347 802 q 321 793 332 802 q 296 775 309 784 q 273 766 283 766 q 247 783 262 766 q 220 819 232 799 q 208 847 208 838 q 225 867 208 861 q 243 882 243 873 q 230 898 243 890 q 204 917 217 907 q 191 938 191 927 q 199 950 191 946 q 212 958 206 955 q 249 973 222 962 q 311 998 276 984 q 380 1025 346 1012 q 439 1048 414 1039 q 468 1057 463 1057 q 486 1049 478 1057 q 500 1040 494 1042 q 529 1053 511 1040 q 567 1078 547 1065 q 599 1090 586 1090 q 623 1075 609 1090 q 648 1040 637 1059 q 659 1011 659 1021 q 647 993 659 1001 q 622 978 635 985 q 602 962 608 970 q 606 954 604 957 q 641 917 624 935 q 672 877 657 898 q 788 643 749 772 q 826 385 826 515 q 774 170 826 261 q 628 28 722 78 q 412 -22 535 -22 m 433 230 q 506 269 487 230 q 524 353 524 308 q 517 412 524 382 q 492 461 511 441 q 437 481 473 481 q 380 461 401 481 q 352 412 360 442 q 343 352 343 382 q 352 297 343 325 q 381 249 361 269 q 433 230 401 230 z "},"e":{"ha":750,"x_min":39,"x_max":711,"o":"m 418 -22 q 140 63 240 -22 q 39 332 39 148 q 130 606 39 503 q 395 709 220 709 q 620 630 543 709 q 711 408 696 551 l 711 404 q 707 388 711 393 q 694 378 703 383 q 652 361 675 368 q 608 348 629 355 l 448 292 q 405 278 427 285 q 361 264 383 272 l 357 256 q 357 254 357 255 q 358 251 357 252 q 401 200 372 219 q 465 181 431 181 q 529 193 499 181 q 581 215 559 204 q 612 227 603 227 q 626 220 621 227 q 635 207 631 214 q 647 180 638 200 q 666 136 656 160 q 684 93 676 112 q 691 69 691 74 q 680 50 691 58 q 555 -5 629 11 q 418 -22 481 -22 m 341 397 q 397 421 369 409 q 453 445 425 433 q 437 483 454 473 q 397 493 421 493 q 360 477 372 493 q 346 439 349 461 q 341 397 342 416 z "},"é":{"ha":750,"x_min":39,"x_max":711,"o":"m 418 -22 q 140 63 240 -22 q 39 332 39 148 q 130 606 39 503 q 395 709 220 709 q 620 630 543 709 q 711 408 696 551 l 711 404 q 707 388 711 393 q 694 378 703 383 q 652 361 675 368 q 608 348 629 355 l 448 292 q 405 278 427 285 q 361 264 383 272 l 357 256 q 357 254 357 255 q 358 251 357 252 q 401 200 372 219 q 465 181 431 181 q 529 193 499 181 q 581 215 559 204 q 612 227 603 227 q 626 220 621 227 q 635 207 631 214 q 647 180 638 200 q 666 136 656 160 q 684 93 676 112 q 691 69 691 74 q 680 50 691 58 q 555 -5 629 11 q 418 -22 481 -22 m 341 397 q 397 421 369 409 q 453 445 425 433 q 437 483 454 473 q 397 493 421 493 q 360 477 372 493 q 346 439 349 461 q 341 397 342 416 m 637 1002 q 662 1000 645 1002 q 679 986 679 998 q 678 982 679 983 q 668 966 675 973 q 654 954 661 960 q 603 908 629 930 q 551 861 576 885 q 523 835 536 848 q 494 810 509 822 q 475 804 485 804 l 401 804 q 381 807 393 804 q 370 821 370 810 q 380 853 370 830 q 407 903 391 876 q 437 954 422 930 q 457 988 451 977 q 481 1002 466 1002 l 637 1002 z "},"ê":{"ha":750,"x_min":39,"x_max":711,"o":"m 418 -22 q 140 63 240 -22 q 39 332 39 148 q 130 606 39 503 q 395 709 220 709 q 620 630 543 709 q 711 408 696 551 l 711 404 q 707 388 711 393 q 694 378 703 383 q 652 361 675 368 q 608 348 629 355 l 448 292 q 405 278 427 285 q 361 264 383 272 l 357 256 q 357 254 357 255 q 358 251 357 252 q 401 200 372 219 q 465 181 431 181 q 529 193 499 181 q 581 215 559 204 q 612 227 603 227 q 626 220 621 227 q 635 207 631 214 q 647 180 638 200 q 666 136 656 160 q 684 93 676 112 q 691 69 691 74 q 680 50 691 58 q 555 -5 629 11 q 418 -22 481 -22 m 341 397 q 397 421 369 409 q 453 445 425 433 q 437 483 454 473 q 397 493 421 493 q 360 477 372 493 q 346 439 349 461 q 341 397 342 416 m 512 804 q 477 822 494 804 q 448 858 461 840 q 423 876 434 876 q 401 858 413 876 q 375 822 389 840 q 342 804 361 804 l 230 804 q 209 806 223 804 q 194 817 194 808 q 212 851 194 827 q 259 907 231 876 q 318 969 288 938 q 372 1024 348 1000 q 406 1059 397 1048 q 426 1069 416 1069 q 446 1059 435 1069 q 478 1026 454 1050 q 532 970 502 1002 q 592 907 563 939 q 642 853 622 876 q 663 824 661 830 q 663 822 663 823 q 663 820 663 821 q 648 806 663 809 q 625 804 633 804 l 512 804 z "},"ë":{"ha":750,"x_min":39,"x_max":711,"o":"m 418 -22 q 140 63 240 -22 q 39 332 39 148 q 130 606 39 503 q 395 709 220 709 q 620 630 543 709 q 711 408 696 551 l 711 404 q 707 388 711 393 q 694 378 703 383 q 652 361 675 368 q 608 348 629 355 l 448 292 q 405 278 427 285 q 361 264 383 272 l 357 256 q 357 254 357 255 q 358 251 357 252 q 401 200 372 219 q 465 181 431 181 q 529 193 499 181 q 581 215 559 204 q 612 227 603 227 q 626 220 621 227 q 635 207 631 214 q 647 180 638 200 q 666 136 656 160 q 684 93 676 112 q 691 69 691 74 q 680 50 691 58 q 555 -5 629 11 q 418 -22 481 -22 m 341 397 q 397 421 369 409 q 453 445 425 433 q 437 483 454 473 q 397 493 421 493 q 360 477 372 493 q 346 439 349 461 q 341 397 342 416 m 458 886 q 491 967 458 930 q 569 1004 524 1004 q 643 967 614 1004 q 671 888 671 930 q 656 834 671 861 q 616 790 641 808 q 564 773 592 773 q 488 808 518 773 q 458 886 458 843 m 186 886 q 216 967 186 930 q 292 1003 245 1003 q 368 967 337 1003 q 399 888 399 932 q 368 809 399 845 q 292 773 336 773 q 217 809 248 773 q 186 886 186 844 z "},"è":{"ha":750,"x_min":39,"x_max":711,"o":"m 418 -22 q 140 63 240 -22 q 39 332 39 148 q 130 606 39 503 q 395 709 220 709 q 620 630 543 709 q 711 408 696 551 l 711 404 q 707 388 711 393 q 694 378 703 383 q 652 361 675 368 q 608 348 629 355 l 448 292 q 405 278 427 285 q 361 264 383 272 l 357 256 q 357 254 357 255 q 358 251 357 252 q 401 200 372 219 q 465 181 431 181 q 529 193 499 181 q 581 215 559 204 q 612 227 603 227 q 626 220 621 227 q 635 207 631 214 q 647 180 638 200 q 666 136 656 160 q 684 93 676 112 q 691 69 691 74 q 680 50 691 58 q 555 -5 629 11 q 418 -22 481 -22 m 341 397 q 397 421 369 409 q 453 445 425 433 q 437 483 454 473 q 397 493 421 493 q 360 477 372 493 q 346 439 349 461 q 341 397 342 416 m 369 804 q 350 812 359 804 q 279 883 314 846 q 210 955 245 920 q 199 967 205 960 q 191 982 192 975 q 190 984 191 983 q 190 986 190 985 q 206 1000 190 998 q 230 1002 222 1002 l 391 1002 q 416 985 408 1002 q 430 953 420 977 q 451 902 440 930 q 469 851 461 874 q 477 822 477 829 q 467 807 477 811 q 448 804 456 804 l 369 804 z "},"f":{"ha":547,"x_min":33,"x_max":535,"o":"m 147 0 q 121 28 121 0 q 123 250 121 139 q 125 471 125 360 q 117 480 125 478 q 103 483 109 483 q 86 482 94 483 q 68 481 77 481 q 45 487 53 481 q 35 509 37 492 q 34 588 33 549 q 34 667 34 628 q 66 696 34 696 q 85 695 76 696 q 103 694 94 694 q 117 696 110 694 q 123 706 123 698 q 144 868 123 795 q 220 983 165 941 q 378 1025 275 1025 q 446 1023 412 1025 q 513 1013 479 1021 q 529 1007 522 1011 q 535 991 535 1002 q 530 963 535 987 q 517 908 524 939 q 504 852 510 877 q 495 821 497 827 q 485 814 493 814 q 448 796 459 814 q 435 752 437 777 q 433 709 433 728 q 439 697 433 700 q 454 694 446 694 q 487 693 471 694 q 503 667 503 692 q 502 617 503 642 q 501 566 502 591 q 502 537 501 552 q 501 509 503 523 q 471 481 499 481 q 450 482 463 481 q 433 475 438 483 q 432 473 433 475 q 432 471 432 472 q 434 250 432 360 q 437 28 437 139 q 410 0 437 0 l 147 0 m 494 814 q 503 811 499 814 q 498 810 500 810 q 493 810 496 810 l 494 814 z "},"g":{"ha":850,"x_min":41,"x_max":795,"o":"m 389 -285 q 216 -260 303 -285 q 68 -168 128 -235 q 63 -160 66 -164 q 60 -151 60 -155 q 77 -122 60 -143 q 112 -79 94 -100 q 138 -50 131 -58 q 151 -37 144 -43 q 168 -31 159 -31 q 182 -34 176 -31 q 194 -39 188 -36 q 277 -58 233 -58 q 357 -48 314 -58 q 434 -16 400 -39 q 479 48 469 7 q 480 52 480 50 q 481 56 480 54 l 477 60 q 471 57 474 60 q 465 53 468 55 q 330 9 404 9 q 170 55 235 9 q 73 177 106 101 q 41 341 41 252 q 75 521 41 437 q 178 657 109 605 q 352 709 247 709 q 457 690 404 709 q 547 633 510 671 q 549 632 548 633 q 550 632 549 632 q 562 647 557 632 q 573 675 566 661 q 597 690 581 690 l 760 690 q 787 663 787 690 q 785 561 787 612 q 784 460 784 511 q 789 252 784 355 q 795 43 795 148 q 758 -93 795 -32 q 660 -196 720 -153 q 528 -262 599 -239 q 389 -285 457 -285 m 404 234 q 442 247 423 234 q 470 276 461 259 l 470 453 q 439 477 457 466 q 402 488 422 488 q 364 463 379 488 q 341 409 349 439 q 334 360 334 378 q 340 310 334 340 q 362 257 347 280 q 404 234 377 234 z "},"h":{"ha":847,"x_min":50,"x_max":793,"o":"m 81 0 q 54 28 54 0 q 56 102 54 65 q 60 176 59 140 q 64 331 63 254 q 66 485 66 408 q 64 663 66 574 q 59 840 62 752 q 54 927 57 884 q 50 1014 50 970 q 77 1039 50 1039 l 334 1039 q 362 1011 362 1039 q 363 828 362 920 q 365 644 365 736 q 365 638 365 642 q 366 633 365 635 l 372 632 l 379 639 q 456 692 416 674 q 547 710 495 710 q 661 688 608 710 q 747 621 714 665 q 781 511 781 576 q 783 348 783 429 q 787 184 784 266 q 791 106 788 146 q 793 28 793 67 q 766 0 793 0 l 509 0 q 481 28 481 0 q 480 65 480 47 q 480 103 480 84 q 479 188 479 145 q 479 272 479 230 q 480 339 479 306 q 479 406 481 372 q 474 447 479 423 q 444 471 469 471 q 398 441 414 471 q 377 368 382 411 q 371 286 371 326 q 370 225 370 245 l 370 178 q 371 103 370 141 q 369 28 372 65 q 362 7 368 14 q 341 0 357 0 l 81 0 z "},"i":{"ha":456,"x_min":68,"x_max":393,"o":"m 231 823 q 152 843 189 823 q 92 898 115 863 q 68 975 68 932 q 92 1052 68 1019 q 154 1104 116 1085 q 232 1123 191 1123 q 312 1103 275 1123 q 371 1049 349 1084 q 393 970 393 1015 q 369 896 393 929 q 308 843 345 862 q 231 823 271 823 m 79 454 q 79 525 79 490 q 78 595 79 560 q 78 631 78 613 q 78 667 77 650 q 105 694 80 694 l 340 694 q 368 667 368 694 q 368 560 368 613 q 367 454 367 507 q 370 241 367 347 q 372 28 372 134 q 345 0 372 0 l 101 0 q 74 28 74 0 q 76 241 74 134 q 79 454 79 347 z "},"ı":{"ha":456,"x_min":70,"x_max":387,"o":"m 70 28 q 72 272 70 150 q 75 516 75 394 l 75 667 q 102 694 75 694 l 355 694 q 382 667 382 694 l 382 516 q 384 272 382 394 q 387 28 387 150 q 359 0 387 0 l 97 0 q 70 28 70 0 z "},"í":{"ha":456,"x_min":70,"x_max":479,"o":"m 70 28 q 72 272 70 150 q 75 516 75 394 l 75 667 q 102 694 75 694 l 355 694 q 382 667 382 694 l 382 516 q 384 272 382 394 q 387 28 387 150 q 359 0 387 0 l 97 0 q 70 28 70 0 m 437 987 q 463 984 446 987 q 479 970 479 982 q 479 966 479 968 q 469 951 476 958 q 455 938 462 944 q 403 892 429 915 q 351 846 377 869 q 323 820 337 833 q 294 795 309 806 q 276 788 286 788 l 201 788 q 182 791 194 788 q 170 805 170 794 q 181 838 170 814 q 208 888 192 861 q 237 938 223 915 q 258 972 252 962 q 282 987 267 987 l 437 987 z "},"î":{"ha":456,"x_min":-5,"x_max":464,"o":"m 70 28 q 72 272 70 150 q 75 516 75 394 l 75 667 q 102 694 75 694 l 355 694 q 382 667 382 694 l 382 516 q 384 272 382 394 q 387 28 387 150 q 359 0 387 0 l 97 0 q 70 28 70 0 m 313 788 q 278 806 294 788 q 248 843 262 825 q 224 861 235 861 q 202 843 214 861 q 176 806 190 825 q 142 788 161 788 l 31 788 q 9 790 24 788 q -5 802 -5 793 q 13 836 -5 812 q 60 891 31 860 q 118 954 88 922 q 173 1009 149 985 q 207 1043 197 1033 q 227 1053 217 1053 q 246 1043 236 1053 q 278 1010 254 1035 q 333 955 302 986 q 393 892 363 923 q 442 838 422 861 q 463 808 462 814 q 464 807 463 808 q 464 804 464 806 q 449 791 464 793 q 425 788 433 788 l 313 788 z "},"ï":{"ha":456,"x_min":-14,"x_max":472,"o":"m 70 28 q 72 272 70 150 q 75 516 75 394 l 75 667 q 102 694 75 694 l 355 694 q 382 667 382 694 l 382 516 q 384 272 382 394 q 387 28 387 150 q 359 0 387 0 l 97 0 q 70 28 70 0 m 259 871 q 292 951 259 915 q 370 988 324 988 q 443 951 414 988 q 472 872 472 914 q 457 819 472 845 q 417 775 441 792 q 364 758 393 758 q 289 792 319 758 q 259 871 259 827 m -14 871 q 16 951 -14 915 q 92 987 46 987 q 169 952 138 987 q 200 872 200 916 q 168 793 200 829 q 92 758 136 758 q 18 793 49 758 q -14 871 -14 829 z "},"ì":{"ha":456,"x_min":-9,"x_max":387,"o":"m 70 28 q 72 272 70 150 q 75 516 75 394 l 75 667 q 102 694 75 694 l 355 694 q 382 667 382 694 l 382 516 q 384 272 382 394 q 387 28 387 150 q 359 0 387 0 l 97 0 q 70 28 70 0 m 170 788 q 151 796 160 788 q 80 867 115 830 q 11 939 45 904 q -1 952 6 945 q -9 966 -7 959 q -9 969 -9 968 q -9 970 -9 970 q 6 984 -9 982 q 31 987 22 987 l 191 987 q 217 970 209 987 q 231 938 221 961 q 251 886 241 914 q 270 836 262 859 q 277 806 277 813 q 267 792 277 795 q 248 788 257 788 l 170 788 z "},"j":{"ha":464,"x_min":16,"x_max":418,"o":"m 100 976 q 123 1052 100 1019 q 183 1104 146 1085 q 261 1123 220 1123 q 337 1104 301 1123 q 395 1053 373 1085 q 418 978 418 1020 q 395 902 418 936 q 335 850 372 869 q 258 831 298 831 q 182 850 218 831 q 123 902 146 869 q 100 976 100 935 m 408 663 q 408 559 408 611 q 407 454 407 507 q 410 217 407 336 q 414 -21 414 98 q 364 -216 414 -140 q 201 -333 315 -291 q 189 -336 195 -336 q 161 -319 181 -336 q 116 -276 141 -302 q 68 -223 92 -251 q 31 -175 45 -196 q 16 -145 16 -153 q 28 -126 16 -137 q 58 -97 41 -115 q 88 -49 75 -79 q 101 25 101 -20 q 103 239 101 132 q 105 453 105 346 l 105 663 q 132 690 105 690 l 381 690 q 408 663 408 690 z "},"k":{"ha":890,"x_min":50,"x_max":864,"o":"m 81 0 q 54 28 54 0 q 56 103 54 66 q 60 177 59 140 q 65 332 63 254 q 66 487 66 410 q 65 664 66 576 q 59 841 63 753 q 53 926 57 883 q 50 1010 50 968 q 77 1039 50 1039 l 334 1039 q 362 1011 362 1039 q 364 738 362 875 q 366 465 366 602 q 370 456 366 458 l 374 456 q 482 540 444 490 q 536 665 520 589 q 545 685 540 679 q 565 692 550 692 l 826 692 q 851 669 851 692 l 851 663 q 813 532 842 592 q 736 419 784 471 q 712 395 724 406 q 687 372 699 383 q 686 370 686 371 q 684 368 685 369 l 683 361 q 768 200 723 279 q 856 41 812 121 q 862 31 859 36 q 864 18 864 25 q 853 3 864 6 q 833 0 842 0 l 571 0 q 547 14 557 0 q 529 44 537 28 q 513 75 522 60 q 486 126 499 100 q 458 179 472 153 q 449 199 454 189 q 437 218 444 209 l 433 222 q 414 218 428 223 q 386 205 399 212 q 367 195 372 199 q 364 185 364 192 q 364 175 364 178 q 365 101 364 138 q 363 28 366 64 q 356 7 361 14 q 335 0 351 0 l 81 0 z "},"l":{"ha":456,"x_min":68,"x_max":388,"o":"m 68 1013 q 96 1042 68 1042 l 360 1042 q 388 1013 388 1042 q 385 767 388 890 q 382 521 382 644 q 384 275 382 398 q 387 28 387 151 q 359 0 387 0 l 97 0 q 70 28 70 0 q 73 275 70 151 q 75 521 75 398 q 72 767 75 644 q 68 1013 68 890 z "},"ł":{"ha":600,"x_min":22,"x_max":578,"o":"m 439 635 q 497 645 469 635 q 555 655 526 655 q 574 647 569 655 q 578 627 578 639 l 578 460 q 557 433 578 437 l 441 410 q 434 401 434 408 q 437 215 434 308 q 439 28 439 121 q 412 0 439 0 l 163 0 q 136 28 136 0 q 139 185 136 106 q 141 341 141 263 q 134 350 141 350 q 90 342 111 350 q 45 334 68 334 q 28 342 33 334 q 23 361 23 351 q 22 446 22 404 q 22 530 22 488 q 44 557 22 553 l 130 574 q 137 576 134 575 q 141 582 141 577 q 138 798 141 690 q 135 1013 135 905 q 163 1042 135 1042 l 413 1042 q 441 1014 441 1042 q 438 828 441 921 q 435 642 435 734 q 436 638 435 641 q 439 635 437 635 z "},"m":{"ha":1258,"x_min":55,"x_max":1203,"o":"m 330 690 q 355 674 346 690 q 364 652 357 669 q 379 620 371 635 q 392 604 387 604 q 399 609 395 604 q 459 668 431 646 q 521 700 487 690 q 605 710 555 710 q 717 686 671 710 q 800 607 762 663 l 806 608 q 893 678 846 647 q 998 709 941 709 q 1134 653 1083 709 q 1185 513 1185 596 q 1187 341 1185 427 q 1194 170 1189 256 q 1199 98 1196 134 q 1203 25 1203 61 q 1177 0 1203 0 l 923 0 q 902 7 908 0 q 895 27 897 14 q 891 86 890 56 q 890 144 891 116 l 886 389 q 887 410 886 399 q 888 431 888 420 q 878 460 888 453 q 847 468 867 468 q 810 443 823 468 q 791 381 797 417 q 784 311 785 345 q 783 262 783 278 q 784 145 783 203 q 786 28 786 86 q 759 0 786 0 l 503 0 q 475 28 475 0 q 478 227 475 127 q 481 425 481 326 q 471 458 481 449 q 438 468 462 468 q 429 465 435 468 q 420 459 423 461 q 388 397 397 440 q 376 308 378 354 q 372 233 374 262 q 368 82 370 157 q 368 55 368 68 q 367 27 368 41 q 338 0 364 0 l 81 0 q 55 25 55 0 q 59 101 55 63 q 64 178 62 140 q 73 488 73 332 q 71 568 73 528 q 70 646 70 607 q 72 676 70 663 q 97 690 74 690 l 330 690 z "},"n":{"ha":847,"x_min":54,"x_max":793,"o":"m 328 690 q 356 671 346 690 q 373 633 366 652 q 389 614 380 614 q 395 618 390 614 q 470 685 433 661 q 568 709 508 709 q 720 656 659 709 q 781 510 781 604 q 783 347 782 429 q 787 184 784 266 q 791 106 788 146 q 793 28 793 67 q 766 0 793 0 l 509 0 q 481 28 481 0 q 479 150 478 88 q 479 272 479 211 q 480 339 479 306 q 479 406 481 372 q 474 447 479 423 q 445 471 469 471 q 399 441 414 471 q 377 369 383 411 q 371 286 372 326 q 370 225 371 245 q 370 202 370 214 q 370 179 370 191 q 371 103 370 142 q 369 28 372 65 q 341 0 367 0 l 81 0 q 54 28 54 0 q 57 100 54 64 q 60 172 60 136 q 64 325 63 249 q 65 477 65 401 q 64 563 65 520 q 63 648 63 605 q 66 677 63 664 q 91 690 70 690 l 328 690 z "},"ñ":{"ha":847,"x_min":54,"x_max":793,"o":"m 328 690 q 356 671 346 690 q 373 633 366 652 q 389 614 380 614 q 395 618 390 614 q 470 685 433 661 q 568 709 508 709 q 720 656 659 709 q 781 510 781 604 q 783 347 782 429 q 787 184 784 266 q 791 106 788 146 q 793 28 793 67 q 766 0 793 0 l 509 0 q 481 28 481 0 q 479 150 478 88 q 479 272 479 211 q 480 339 479 306 q 479 406 481 372 q 474 447 479 423 q 445 471 469 471 q 399 441 414 471 q 377 369 383 411 q 371 286 372 326 q 370 225 371 245 q 370 202 370 214 q 370 179 370 191 q 371 103 370 142 q 369 28 372 65 q 341 0 367 0 l 81 0 q 54 28 54 0 q 57 100 54 64 q 60 172 60 136 q 64 325 63 249 q 65 477 65 401 q 64 563 65 520 q 63 648 63 605 q 66 677 63 664 q 91 690 70 690 l 328 690 m 677 947 q 662 856 677 902 q 613 779 646 810 q 528 748 580 748 q 457 765 486 748 q 404 803 429 782 q 345 838 379 825 q 338 840 344 838 q 331 842 332 842 q 299 823 306 842 q 290 784 292 804 q 282 761 288 768 q 260 753 277 754 q 234 752 247 752 q 208 752 221 752 q 185 764 190 752 q 181 790 181 775 q 199 884 181 840 q 253 956 216 928 q 343 984 289 984 q 400 968 373 984 q 450 932 427 953 q 494 897 474 912 q 531 881 515 881 q 557 896 551 881 q 563 930 562 911 q 568 964 563 949 q 593 979 573 979 l 652 979 q 673 969 668 979 q 677 947 677 960 z "},"o":{"ha":758,"x_min":39,"x_max":720,"o":"m 39 333 q 79 528 39 443 q 198 662 120 613 q 391 710 277 710 q 577 661 504 710 q 685 528 650 612 q 720 338 720 444 q 636 78 720 177 q 384 -22 553 -22 q 129 74 218 -22 q 39 333 39 170 m 348 356 q 349 328 348 348 q 353 285 349 308 q 364 246 356 262 q 385 230 372 230 q 410 256 403 230 q 419 312 418 281 q 421 359 421 343 q 420 386 421 367 q 415 427 419 406 q 404 464 412 449 q 384 479 397 479 q 363 464 370 479 q 353 427 356 448 q 349 385 349 405 q 348 356 348 365 z "},"ó":{"ha":758,"x_min":39,"x_max":720,"o":"m 39 333 q 79 528 39 443 q 198 662 120 613 q 391 710 277 710 q 577 661 504 710 q 685 528 650 612 q 720 338 720 444 q 636 78 720 177 q 384 -22 553 -22 q 129 74 218 -22 q 39 333 39 170 m 348 356 q 349 328 348 348 q 353 285 349 308 q 364 246 356 262 q 385 230 372 230 q 410 256 403 230 q 419 312 418 281 q 421 359 421 343 q 420 386 421 367 q 415 427 419 406 q 404 464 412 449 q 384 479 397 479 q 363 464 370 479 q 353 427 356 448 q 349 385 349 405 q 348 356 348 365 m 585 1000 q 610 998 593 1000 q 627 984 627 996 q 626 980 627 981 q 616 964 623 971 q 602 951 609 958 q 550 906 576 928 q 498 859 524 883 q 470 833 484 846 q 441 808 456 820 q 423 802 433 802 l 349 802 q 329 805 341 802 q 317 819 317 808 q 328 851 317 828 q 355 901 339 874 q 385 952 370 928 q 405 986 399 975 q 429 1000 414 1000 l 585 1000 z "},"ô":{"ha":758,"x_min":39,"x_max":720,"o":"m 39 333 q 79 528 39 443 q 198 662 120 613 q 391 710 277 710 q 577 661 504 710 q 685 528 650 612 q 720 338 720 444 q 636 78 720 177 q 384 -22 553 -22 q 129 74 218 -22 q 39 333 39 170 m 348 356 q 349 328 348 348 q 353 285 349 308 q 364 246 356 262 q 385 230 372 230 q 410 256 403 230 q 419 312 418 281 q 421 359 421 343 q 420 386 421 367 q 415 427 419 406 q 404 464 412 449 q 384 479 397 479 q 363 464 370 479 q 353 427 356 448 q 349 385 349 405 q 348 356 348 365 m 460 802 q 425 820 441 802 q 395 856 409 838 q 371 874 382 874 q 349 856 361 874 q 323 820 337 838 q 290 802 309 802 l 178 802 q 156 804 171 802 q 142 815 142 806 q 160 849 142 825 q 207 905 178 873 q 266 967 235 936 q 320 1022 296 998 q 354 1057 345 1046 q 374 1067 364 1067 q 393 1057 383 1067 q 426 1024 401 1048 q 480 968 450 1000 q 540 905 511 937 q 589 851 570 874 q 610 822 609 828 q 611 820 610 821 q 611 818 611 819 q 596 804 611 807 q 572 802 581 802 l 460 802 z "},"ö":{"ha":758,"x_min":39,"x_max":720,"o":"m 39 333 q 79 528 39 443 q 198 662 120 613 q 391 710 277 710 q 577 661 504 710 q 685 528 650 612 q 720 338 720 444 q 636 78 720 177 q 384 -22 553 -22 q 129 74 218 -22 q 39 333 39 170 m 348 356 q 349 328 348 348 q 353 285 349 308 q 364 246 356 262 q 385 230 372 230 q 410 256 403 230 q 419 312 418 281 q 421 359 421 343 q 420 386 421 367 q 415 427 419 406 q 404 464 412 449 q 384 479 397 479 q 363 464 370 479 q 353 427 356 448 q 349 385 349 405 q 348 356 348 365 m 406 884 q 439 965 406 928 q 517 1002 471 1002 q 590 965 562 1002 q 619 886 619 928 q 604 832 619 859 q 564 788 589 806 q 511 771 540 771 q 436 806 466 771 q 406 884 406 841 m 134 884 q 163 965 134 928 q 239 1001 193 1001 q 316 965 285 1001 q 347 886 347 930 q 315 807 347 843 q 239 771 283 771 q 165 807 196 771 q 134 884 134 842 z "},"ò":{"ha":758,"x_min":39,"x_max":720,"o":"m 39 333 q 79 528 39 443 q 198 662 120 613 q 391 710 277 710 q 577 661 504 710 q 685 528 650 612 q 720 338 720 444 q 636 78 720 177 q 384 -22 553 -22 q 129 74 218 -22 q 39 333 39 170 m 348 356 q 349 328 348 348 q 353 285 349 308 q 364 246 356 262 q 385 230 372 230 q 410 256 403 230 q 419 312 418 281 q 421 359 421 343 q 420 386 421 367 q 415 427 419 406 q 404 464 412 449 q 384 479 397 479 q 363 464 370 479 q 353 427 356 448 q 349 385 349 405 q 348 356 348 365 m 317 802 q 298 810 307 802 q 227 881 262 844 q 158 953 193 918 q 146 965 153 958 q 138 980 140 972 q 138 982 138 981 q 138 984 138 983 q 154 998 138 996 q 178 1000 170 1000 l 338 1000 q 364 983 356 1000 q 378 951 368 975 q 398 900 388 928 q 417 849 409 872 q 425 820 425 827 q 414 805 425 809 q 395 802 404 802 l 317 802 z "},"ø":{"ha":758,"x_min":39,"x_max":736,"o":"m 589 665 q 612 692 597 673 q 642 728 627 711 q 665 745 656 745 q 681 731 675 745 q 686 709 686 717 q 665 671 686 691 q 634 633 643 650 l 635 627 q 637 623 636 624 q 654 604 646 613 q 669 585 662 595 q 721 469 707 532 q 736 342 736 406 l 736 334 q 646 72 736 165 q 385 -22 555 -22 q 275 -6 325 -22 q 173 39 225 9 l 169 41 l 163 40 q 140 15 155 33 q 111 -19 125 -3 q 87 -35 97 -35 q 75 -19 79 -35 q 71 3 71 -3 q 93 40 71 21 q 123 77 115 60 q 119 86 123 82 q 57 202 76 143 q 39 332 39 260 q 135 608 39 507 q 408 710 231 710 q 498 699 453 710 q 583 665 543 688 l 589 665 m 347 356 q 385 404 366 380 q 422 451 404 427 q 413 471 420 461 q 395 481 406 481 q 362 456 372 481 q 349 401 352 431 q 347 356 347 372 m 430 375 q 391 327 410 351 q 353 279 372 303 q 363 248 357 266 q 387 230 370 230 q 418 250 409 230 q 428 296 427 271 q 430 335 430 321 l 430 375 z "},"õ":{"ha":758,"x_min":39,"x_max":720,"o":"m 39 333 q 79 528 39 443 q 198 662 120 613 q 391 710 277 710 q 577 661 504 710 q 685 528 650 612 q 720 338 720 444 q 636 78 720 177 q 384 -22 553 -22 q 129 74 218 -22 q 39 333 39 170 m 348 356 q 349 328 348 348 q 353 285 349 308 q 364 246 356 262 q 385 230 372 230 q 410 256 403 230 q 419 312 418 281 q 421 359 421 343 q 420 386 421 367 q 415 427 419 406 q 404 464 412 449 q 384 479 397 479 q 363 464 370 479 q 353 427 356 448 q 349 385 349 405 q 348 356 348 365 m 634 969 q 618 878 634 924 q 569 801 602 832 q 484 770 536 770 q 414 787 442 770 q 361 826 386 804 q 301 860 336 847 q 295 863 300 861 q 288 865 289 865 q 255 846 262 865 q 246 806 248 827 q 239 784 245 791 q 216 775 233 777 q 191 774 203 774 q 165 774 178 774 q 142 786 146 774 q 138 812 138 798 q 155 906 138 862 q 209 978 173 950 q 300 1006 245 1006 q 356 991 330 1006 q 407 955 383 975 q 451 919 431 935 q 488 903 471 903 q 513 918 508 903 q 519 952 519 933 q 525 986 519 972 q 550 1001 530 1001 l 608 1001 q 629 992 625 1001 q 634 969 634 983 z "},"œ":{"ha":1147,"x_min":44,"x_max":1112,"o":"m 1112 43 q 1106 31 1112 35 q 1094 23 1101 26 q 1010 -4 1057 5 q 915 -18 963 -14 q 826 -22 867 -22 q 680 -2 750 -22 q 543 52 610 17 l 541 54 l 535 54 q 533 53 534 53 q 531 52 532 52 q 421 -4 473 14 q 298 -22 369 -22 q 181 7 229 -22 q 102 83 132 35 q 58 189 72 130 q 44 308 44 248 q 60 449 44 378 q 111 579 76 519 q 204 674 146 638 q 343 711 261 711 q 432 694 394 711 q 510 648 471 678 q 512 647 511 648 q 513 646 513 647 l 520 646 q 611 692 562 675 q 711 709 661 709 q 937 629 863 709 q 1031 407 1010 549 q 1031 404 1031 406 q 1031 401 1031 403 q 1014 378 1031 387 q 971 362 994 370 q 926 348 948 355 q 820 311 873 329 q 714 273 766 293 q 710 271 713 273 q 707 269 707 270 l 707 265 q 709 263 709 264 q 711 260 710 262 q 787 214 739 230 q 876 197 836 197 q 956 212 917 197 q 965 215 960 213 q 974 216 970 216 q 986 213 981 216 q 995 203 990 209 q 1017 175 1006 190 q 1039 146 1028 160 q 1071 104 1055 125 q 1103 63 1088 84 q 1108 54 1105 59 q 1112 43 1112 49 m 650 408 l 791 453 q 724 507 779 507 q 667 475 681 507 q 650 408 653 444 m 456 220 q 441 282 446 250 q 436 345 436 313 q 456 457 436 404 q 383 473 420 473 q 301 433 330 473 q 272 345 272 394 q 310 250 272 287 q 405 214 347 214 q 431 215 418 214 q 456 220 444 216 z "},"p":{"ha":889,"x_min":36,"x_max":848,"o":"m 540 709 q 722 661 654 709 q 819 528 789 612 q 848 342 848 445 q 757 74 848 170 q 492 -22 665 -22 q 433 -14 460 -22 q 380 14 406 -5 q 377 18 378 16 q 372 20 375 20 q 366 16 368 22 q 365 7 365 11 q 363 -83 363 -38 q 362 -174 363 -129 q 362 -204 362 -189 q 361 -235 363 -220 q 332 -262 359 -262 l 63 -262 q 36 -237 36 -262 q 38 -200 36 -218 q 41 -163 40 -181 q 60 181 54 9 q 65 525 65 353 q 64 594 65 557 q 64 662 62 631 q 92 689 66 689 l 311 689 q 336 676 326 689 q 355 651 347 664 q 372 638 363 638 q 400 656 376 638 q 460 691 423 673 q 540 709 496 709 m 465 234 q 512 255 494 234 q 537 305 530 276 q 545 357 545 334 q 535 413 545 383 q 506 466 526 444 q 455 488 486 488 q 411 478 433 488 q 373 453 389 469 l 373 276 q 465 234 407 234 z "},"þ":{"ha":889,"x_min":38,"x_max":849,"o":"m 552 709 q 695 677 638 709 q 786 589 753 644 q 834 464 820 533 q 849 320 849 394 q 800 117 849 192 q 661 9 750 41 q 454 -24 572 -24 q 416 -20 435 -24 q 378 -12 398 -16 q 376 -11 378 -12 q 374 -11 375 -11 q 367 -20 367 -11 q 365 -103 364 -61 q 364 -186 365 -145 q 365 -211 364 -199 q 363 -235 365 -223 q 334 -262 361 -262 l 65 -262 q 38 -237 38 -262 q 40 -201 38 -219 q 43 -164 42 -182 q 61 157 55 -3 q 68 479 68 318 q 66 659 68 569 q 61 838 65 749 q 55 924 59 881 q 52 1010 52 968 q 79 1039 52 1039 l 340 1039 q 368 1011 368 1039 q 370 854 368 933 q 371 697 371 776 q 377 689 371 689 l 381 689 q 404 694 393 691 q 426 699 415 696 q 552 709 486 709 m 441 222 q 491 241 472 222 q 518 288 509 260 q 526 340 526 315 q 518 396 526 365 q 491 451 509 428 q 441 475 472 475 q 357 440 391 475 l 357 263 q 441 222 391 222 z "},"q":{"ha":865,"x_min":41,"x_max":829,"o":"m 337 -22 q 164 24 229 -22 q 70 148 99 69 q 41 325 41 227 q 58 461 41 393 q 112 585 75 529 q 204 675 148 642 q 338 709 260 709 q 484 665 416 709 q 487 663 485 665 q 490 661 488 662 l 494 662 q 497 672 497 665 q 498 684 497 677 q 507 690 498 690 l 774 690 q 802 663 802 690 q 801 569 802 616 q 800 475 800 522 q 803 236 800 355 q 813 -3 806 116 q 823 -120 817 -61 q 829 -237 829 -179 q 802 -262 829 -262 l 532 -262 q 503 -235 503 -262 q 502 -113 503 -174 q 500 8 500 -52 q 496 18 500 15 q 488 16 492 18 q 414 -11 449 0 q 337 -22 380 -22 m 425 234 q 466 247 446 234 q 498 276 485 259 q 497 365 497 320 q 496 453 496 409 q 464 477 484 467 q 425 488 444 488 q 382 465 399 488 q 359 412 366 441 q 351 361 351 382 q 357 309 351 338 q 379 256 363 279 q 425 234 395 234 z "},"r":{"ha":586,"x_min":5,"x_max":606,"o":"m 272 688 q 294 675 290 688 q 299 649 298 662 q 308 636 300 636 q 312 638 311 636 q 315 642 314 641 q 393 690 347 677 q 485 703 439 703 q 511 703 492 703 q 552 699 530 702 q 590 691 574 696 q 606 676 606 686 q 596 638 606 671 q 572 565 586 606 q 547 488 559 523 q 532 443 536 453 q 524 428 530 434 q 508 422 519 422 q 481 426 494 422 q 455 430 469 430 q 390 408 416 430 q 348 352 363 386 q 326 281 332 318 q 319 212 319 243 q 320 120 319 167 q 320 28 321 74 q 292 0 319 0 l 33 0 q 5 28 5 0 q 10 247 5 138 q 14 465 14 356 q 13 563 14 513 q 13 661 12 612 q 40 688 14 688 l 272 688 z "},"s":{"ha":519,"x_min":20,"x_max":499,"o":"m 228 -23 q 158 -16 197 -23 q 85 7 120 -9 q 28 46 50 22 q 23 53 26 48 q 20 60 20 57 q 27 86 20 65 q 42 132 33 106 q 58 179 50 157 q 69 208 66 201 q 77 221 72 214 q 89 229 81 229 q 121 219 102 229 q 161 199 139 209 q 210 189 184 189 q 230 196 225 189 q 235 217 235 202 q 218 262 235 252 q 174 288 200 273 q 70 375 106 323 q 35 504 35 426 q 68 624 35 580 q 158 688 102 669 q 282 707 214 707 q 322 705 294 707 q 382 698 351 703 q 435 682 413 692 q 458 656 458 672 q 452 624 458 648 q 439 575 446 600 q 429 541 432 551 q 421 525 426 532 q 406 517 417 517 q 375 524 390 517 q 344 530 359 530 q 318 523 328 530 q 308 498 308 516 q 326 458 308 476 q 368 426 343 441 q 418 397 393 410 q 456 370 442 383 q 491 307 482 342 q 499 235 499 271 q 423 44 499 112 q 228 -23 347 -23 z "},"š":{"ha":519,"x_min":20,"x_max":549,"o":"m 228 -23 q 158 -16 197 -23 q 85 7 120 -9 q 28 46 50 22 q 23 53 26 48 q 20 60 20 57 q 27 86 20 65 q 42 132 33 106 q 58 179 50 157 q 69 208 66 201 q 77 221 72 214 q 89 229 81 229 q 121 219 102 229 q 161 199 139 209 q 210 189 184 189 q 230 196 225 189 q 235 217 235 202 q 218 262 235 252 q 174 288 200 273 q 70 375 106 323 q 35 504 35 426 q 68 624 35 580 q 158 688 102 669 q 282 707 214 707 q 322 705 294 707 q 382 698 351 703 q 435 682 413 692 q 458 656 458 672 q 452 624 458 648 q 439 575 446 600 q 429 541 432 551 q 421 525 426 532 q 406 517 417 517 q 375 524 390 517 q 344 530 359 530 q 318 523 328 530 q 308 498 308 516 q 326 458 308 476 q 368 426 343 441 q 418 397 393 410 q 456 370 442 383 q 491 307 482 342 q 499 235 499 271 q 423 44 499 112 q 228 -23 347 -23 m 221 1060 q 256 1042 240 1060 q 286 1006 273 1024 q 311 987 300 987 q 329 1001 317 987 q 354 1030 342 1015 q 371 1050 366 1045 q 392 1060 379 1060 l 514 1060 q 535 1058 522 1060 q 549 1044 549 1055 q 542 1027 549 1036 q 529 1013 534 1018 l 328 805 q 319 798 324 802 q 309 794 314 794 q 297 798 303 794 q 288 805 292 802 q 187 908 237 856 q 87 1013 137 960 q 76 1025 81 1019 q 68 1041 70 1032 q 67 1042 68 1042 q 67 1044 67 1043 q 81 1058 67 1055 q 103 1060 96 1060 l 221 1060 z "},"ß":{"ha":878,"x_min":42,"x_max":831,"o":"m 42 663 q 73 692 42 692 q 90 691 81 692 q 106 690 98 690 q 119 692 113 690 q 125 702 125 694 l 125 722 q 156 836 125 786 q 237 919 187 885 q 347 971 288 954 q 463 989 406 989 q 572 980 513 989 q 685 948 631 971 q 772 884 738 925 q 806 778 806 843 q 795 683 806 728 q 754 597 785 638 l 751 593 l 751 585 q 754 581 753 581 q 769 563 762 572 q 784 545 777 555 q 823 438 817 495 q 831 323 830 380 l 831 304 q 823 179 831 237 q 792 77 816 121 q 721 9 768 34 q 592 -15 673 -15 q 541 -8 575 -15 q 477 13 507 -1 q 445 47 448 26 q 443 72 444 59 q 441 97 443 85 q 437 160 439 129 q 435 222 435 191 q 435 228 435 226 l 438 229 q 458 217 448 222 q 481 212 469 212 q 520 234 513 212 q 528 281 528 256 q 527 301 528 291 q 526 320 526 311 q 527 352 526 336 q 528 384 528 368 q 526 412 528 391 q 511 433 523 433 q 506 432 509 433 q 499 431 503 431 q 494 436 494 431 l 494 607 q 497 621 494 614 q 499 634 499 627 q 498 675 499 649 q 489 722 497 701 q 459 743 481 743 q 432 720 436 743 q 427 680 427 696 q 429 647 427 663 q 431 613 431 630 q 430 415 431 514 q 429 216 430 315 q 430 122 429 170 q 429 28 431 75 q 401 0 428 0 l 144 0 q 117 28 117 0 q 119 94 117 61 q 121 159 121 126 q 125 296 123 227 q 127 432 127 364 q 127 435 127 433 q 126 437 126 437 q 118 443 123 441 q 108 444 113 444 q 92 443 100 444 q 77 442 84 442 q 53 448 60 442 q 44 471 45 454 q 44 504 43 487 q 43 537 44 521 q 43 600 43 569 q 42 663 42 631 z "},"t":{"ha":585,"x_min":41,"x_max":551,"o":"m 114 965 q 142 994 114 994 l 397 994 q 425 966 425 994 l 420 709 q 429 701 420 701 l 524 701 q 551 673 551 701 q 551 582 551 628 q 550 490 551 536 q 523 462 549 462 l 431 462 q 424 461 428 462 q 420 456 420 460 q 422 242 420 349 q 425 28 425 135 q 397 0 425 0 l 142 0 q 115 28 115 0 q 117 240 115 134 q 120 451 120 345 q 113 460 120 458 q 100 463 106 463 q 62 462 81 463 q 42 490 43 462 q 42 523 41 506 q 42 555 42 539 q 41 614 41 585 q 41 673 41 644 q 72 701 41 701 q 99 700 80 701 q 119 712 119 699 q 116 839 119 775 q 114 965 114 902 z "},"u":{"ha":852,"x_min":60,"x_max":799,"o":"m 534 0 q 508 17 517 0 q 498 41 505 22 q 482 77 490 60 q 469 94 474 94 q 463 87 467 94 q 385 7 425 36 q 277 -22 344 -22 q 171 2 220 -22 q 91 70 121 26 q 60 173 60 113 q 63 313 60 243 q 66 452 66 382 q 65 557 66 505 q 64 663 64 610 q 91 690 64 690 l 340 690 q 368 663 367 690 q 369 568 369 616 q 369 474 369 521 q 368 380 369 427 q 368 286 368 333 q 372 245 368 267 q 402 222 376 222 q 454 254 437 222 q 478 330 472 285 q 485 417 485 374 q 485 484 485 460 q 484 573 485 528 q 486 663 483 618 q 513 690 488 690 l 762 690 q 789 663 789 690 q 788 568 789 615 q 787 473 787 521 q 788 323 787 398 q 792 172 789 248 q 796 100 793 136 q 799 28 799 64 q 772 0 799 0 l 534 0 z "},"ú":{"ha":852,"x_min":60,"x_max":799,"o":"m 534 0 q 508 17 517 0 q 498 41 505 22 q 482 77 490 60 q 469 94 474 94 q 463 87 467 94 q 385 7 425 36 q 277 -22 344 -22 q 171 2 220 -22 q 91 70 121 26 q 60 173 60 113 q 63 313 60 243 q 66 452 66 382 q 65 557 66 505 q 64 663 64 610 q 91 690 64 690 l 340 690 q 368 663 367 690 q 369 568 369 616 q 369 474 369 521 q 368 380 369 427 q 368 286 368 333 q 372 245 368 267 q 402 222 376 222 q 454 254 437 222 q 478 330 472 285 q 485 417 485 374 q 485 484 485 460 q 484 573 485 528 q 486 663 483 618 q 513 690 488 690 l 762 690 q 789 663 789 690 q 788 568 789 615 q 787 473 787 521 q 788 323 787 398 q 792 172 789 248 q 796 100 793 136 q 799 28 799 64 q 772 0 799 0 l 534 0 m 635 1000 q 661 998 644 1000 q 677 984 677 996 q 677 980 677 981 q 667 964 674 971 q 653 951 660 958 q 601 906 627 928 q 549 859 575 883 q 521 833 535 846 q 492 808 507 820 q 474 802 484 802 l 399 802 q 380 805 392 802 q 368 819 368 808 q 379 851 368 828 q 406 901 390 874 q 435 952 421 928 q 456 986 450 975 q 480 1000 465 1000 l 635 1000 z "},"û":{"ha":852,"x_min":60,"x_max":799,"o":"m 534 0 q 508 17 517 0 q 498 41 505 22 q 482 77 490 60 q 469 94 474 94 q 463 87 467 94 q 385 7 425 36 q 277 -22 344 -22 q 171 2 220 -22 q 91 70 121 26 q 60 173 60 113 q 63 313 60 243 q 66 452 66 382 q 65 557 66 505 q 64 663 64 610 q 91 690 64 690 l 340 690 q 368 663 367 690 q 369 568 369 616 q 369 474 369 521 q 368 380 369 427 q 368 286 368 333 q 372 245 368 267 q 402 222 376 222 q 454 254 437 222 q 478 330 472 285 q 485 417 485 374 q 485 484 485 460 q 484 573 485 528 q 486 663 483 618 q 513 690 488 690 l 762 690 q 789 663 789 690 q 788 568 789 615 q 787 473 787 521 q 788 323 787 398 q 792 172 789 248 q 796 100 793 136 q 799 28 799 64 q 772 0 799 0 l 534 0 m 511 802 q 476 820 492 802 q 446 856 460 838 q 422 874 433 874 q 400 856 412 874 q 374 820 388 838 q 340 802 359 802 l 229 802 q 207 804 222 802 q 193 815 193 806 q 211 849 193 825 q 258 905 229 873 q 316 967 286 936 q 371 1022 347 998 q 405 1057 395 1046 q 425 1067 415 1067 q 444 1057 434 1067 q 476 1024 452 1048 q 531 968 500 1000 q 591 905 562 937 q 640 851 621 874 q 661 822 660 828 q 662 820 661 821 q 662 818 662 819 q 647 804 662 807 q 623 802 631 802 l 511 802 z "},"ü":{"ha":852,"x_min":60,"x_max":799,"o":"m 534 0 q 508 17 517 0 q 498 41 505 22 q 482 77 490 60 q 469 94 474 94 q 463 87 467 94 q 385 7 425 36 q 277 -22 344 -22 q 171 2 220 -22 q 91 70 121 26 q 60 173 60 113 q 63 313 60 243 q 66 452 66 382 q 65 557 66 505 q 64 663 64 610 q 91 690 64 690 l 340 690 q 368 663 367 690 q 369 568 369 616 q 369 474 369 521 q 368 380 369 427 q 368 286 368 333 q 372 245 368 267 q 402 222 376 222 q 454 254 437 222 q 478 330 472 285 q 485 417 485 374 q 485 484 485 460 q 484 573 485 528 q 486 663 483 618 q 513 690 488 690 l 762 690 q 789 663 789 690 q 788 568 789 615 q 787 473 787 521 q 788 323 787 398 q 792 172 789 248 q 796 100 793 136 q 799 28 799 64 q 772 0 799 0 l 534 0 m 457 884 q 490 965 457 928 q 568 1002 522 1002 q 641 965 612 1002 q 670 886 670 928 q 655 832 670 859 q 615 788 640 806 q 562 771 591 771 q 487 806 517 771 q 457 884 457 841 m 184 884 q 214 965 184 928 q 290 1001 244 1001 q 367 965 336 1001 q 398 886 398 930 q 366 807 398 843 q 290 771 334 771 q 216 807 247 771 q 184 884 184 842 z "},"ù":{"ha":852,"x_min":60,"x_max":799,"o":"m 534 0 q 508 17 517 0 q 498 41 505 22 q 482 77 490 60 q 469 94 474 94 q 463 87 467 94 q 385 7 425 36 q 277 -22 344 -22 q 171 2 220 -22 q 91 70 121 26 q 60 173 60 113 q 63 313 60 243 q 66 452 66 382 q 65 557 66 505 q 64 663 64 610 q 91 690 64 690 l 340 690 q 368 663 367 690 q 369 568 369 616 q 369 474 369 521 q 368 380 369 427 q 368 286 368 333 q 372 245 368 267 q 402 222 376 222 q 454 254 437 222 q 478 330 472 285 q 485 417 485 374 q 485 484 485 460 q 484 573 485 528 q 486 663 483 618 q 513 690 488 690 l 762 690 q 789 663 789 690 q 788 568 789 615 q 787 473 787 521 q 788 323 787 398 q 792 172 789 248 q 796 100 793 136 q 799 28 799 64 q 772 0 799 0 l 534 0 m 368 802 q 349 810 358 802 q 278 881 313 844 q 209 953 243 918 q 197 965 204 958 q 189 980 191 972 q 189 982 189 981 q 189 984 189 983 q 204 998 189 996 q 229 1000 220 1000 l 389 1000 q 415 983 407 1000 q 429 951 419 975 q 449 900 439 928 q 468 849 460 872 q 475 820 475 827 q 465 805 475 809 q 446 802 455 802 l 368 802 z "},"v":{"ha":786,"x_min":31,"x_max":758,"o":"m 758 670 q 755 659 758 665 q 750 648 753 653 q 652 461 701 555 q 555 274 604 368 q 515 195 535 235 q 475 115 496 155 q 458 83 471 107 q 433 37 446 58 q 411 15 420 15 q 395 21 401 15 q 385 36 390 28 q 362 75 373 56 q 340 115 351 95 q 290 203 315 159 q 240 292 265 248 q 140 470 191 381 q 39 646 89 558 q 33 657 35 652 q 31 670 31 663 q 40 685 31 682 q 58 688 50 688 l 360 688 q 386 670 379 688 q 397 634 393 652 q 408 616 401 616 q 418 634 416 616 q 425 670 419 652 q 451 688 431 688 l 730 688 q 748 684 739 688 q 758 670 758 681 z "},"w":{"ha":1116,"x_min":36,"x_max":1080,"o":"m 441 690 l 665 690 q 690 673 682 690 q 709 624 699 656 q 729 563 720 592 q 746 522 739 533 l 749 520 q 755 525 753 520 q 758 532 757 530 q 776 602 768 566 q 796 670 783 637 q 823 690 804 690 l 1053 690 q 1071 686 1062 690 q 1080 671 1080 682 q 1075 651 1080 662 q 1003 487 1040 569 q 932 322 966 405 q 871 167 901 245 q 807 12 841 89 q 799 -4 804 5 q 783 -14 793 -14 q 768 -5 774 -14 q 758 10 762 3 q 731 58 743 34 q 705 106 718 82 q 632 245 667 174 q 557 383 596 315 q 551 390 555 388 q 532 360 547 389 q 496 286 517 331 q 451 191 475 241 q 406 96 428 141 q 367 21 384 51 q 342 -12 350 -9 l 337 -14 q 321 -3 328 -14 q 312 14 315 7 q 252 158 281 85 q 193 302 223 231 q 118 477 157 391 q 41 651 79 564 q 38 661 39 656 q 36 671 36 666 q 45 686 36 683 q 63 690 54 690 l 295 690 q 320 673 311 690 q 333 644 324 666 q 352 595 342 621 q 371 549 362 569 q 382 527 379 529 l 386 527 q 397 547 387 528 q 418 593 406 567 q 438 640 429 619 q 446 665 446 661 q 441 675 446 670 q 435 686 435 681 q 441 690 435 690 z "},"x":{"ha":753,"x_min":-21,"x_max":779,"o":"m 714 673 q 697 633 714 663 q 655 562 680 602 q 605 483 630 522 q 562 415 579 444 q 545 380 545 386 q 565 343 545 375 q 616 265 585 311 q 678 172 646 219 q 735 90 710 125 q 767 43 760 54 q 774 32 770 39 q 779 18 779 24 q 767 2 779 5 q 745 0 755 0 l 427 0 q 404 12 414 0 q 390 34 400 18 q 367 70 379 51 q 343 103 354 90 q 328 117 332 117 q 311 95 321 117 q 290 49 300 73 q 277 17 281 24 q 252 0 270 0 l 12 0 q -9 2 3 0 q -21 18 -21 5 q -17 31 -21 25 q -9 43 -14 37 q 19 85 -3 53 q 68 160 40 117 q 123 243 96 202 q 168 313 151 284 q 186 346 186 342 q 169 378 186 349 q 125 447 151 406 q 72 529 99 488 q 23 603 44 571 q -4 645 2 635 q -11 657 -7 651 q -15 671 -15 664 q -3 685 -15 683 q 18 688 9 688 l 330 688 q 359 667 347 688 q 383 624 372 646 q 405 603 394 603 q 416 616 414 603 q 421 645 419 629 q 430 675 423 662 q 452 688 436 688 l 683 688 q 702 686 690 688 q 714 673 714 684 z "},"y":{"ha":811,"x_min":31,"x_max":781,"o":"m 152 -262 q 132 -259 142 -262 q 121 -243 121 -256 q 136 -202 121 -236 q 173 -123 151 -169 q 217 -31 195 -77 q 254 48 239 15 q 269 90 269 82 q 268 92 269 90 q 268 95 268 94 q 242 161 262 114 q 195 272 222 209 q 140 402 168 335 q 86 528 111 469 q 46 626 62 587 q 31 670 31 665 q 40 686 31 682 q 58 690 49 690 l 344 690 q 370 671 361 690 q 383 635 374 663 q 402 575 392 607 q 421 518 412 543 q 434 492 430 494 l 435 492 q 451 519 441 495 q 474 576 462 544 q 496 636 486 608 q 513 673 507 664 q 538 690 522 690 l 751 690 q 771 686 761 690 q 781 670 781 683 q 779 661 781 665 q 777 652 778 656 q 670 378 724 515 q 564 103 616 241 q 520 -13 543 45 q 475 -128 498 -71 q 454 -187 465 -157 q 429 -245 443 -217 q 403 -262 420 -262 l 152 -262 z "},"ý":{"ha":811,"x_min":31,"x_max":781,"o":"m 152 -262 q 132 -259 142 -262 q 121 -243 121 -256 q 136 -202 121 -236 q 173 -123 151 -169 q 217 -31 195 -77 q 254 48 239 15 q 269 90 269 82 q 268 92 269 90 q 268 95 268 94 q 242 161 262 114 q 195 272 222 209 q 140 402 168 335 q 86 528 111 469 q 46 626 62 587 q 31 670 31 665 q 40 686 31 682 q 58 690 49 690 l 344 690 q 370 671 361 690 q 383 635 374 663 q 402 575 392 607 q 421 518 412 543 q 434 492 430 494 l 435 492 q 451 519 441 495 q 474 576 462 544 q 496 636 486 608 q 513 673 507 664 q 538 690 522 690 l 751 690 q 771 686 761 690 q 781 670 781 683 q 779 661 781 665 q 777 652 778 656 q 670 378 724 515 q 564 103 616 241 q 520 -13 543 45 q 475 -128 498 -71 q 454 -187 465 -157 q 429 -245 443 -217 q 403 -262 420 -262 l 152 -262 m 632 956 q 657 953 640 956 q 674 939 674 951 q 673 935 674 937 q 664 920 671 926 q 650 907 656 913 q 598 861 624 884 q 546 814 572 838 q 518 788 532 802 q 489 764 504 775 q 471 757 480 757 l 396 757 q 377 760 389 757 q 365 774 365 763 q 376 806 365 783 q 402 857 387 829 q 432 907 418 884 q 452 941 446 930 q 477 956 461 956 l 632 956 z "},"ÿ":{"ha":811,"x_min":31,"x_max":781,"o":"m 152 -262 q 132 -259 142 -262 q 121 -243 121 -256 q 136 -202 121 -236 q 173 -123 151 -169 q 217 -31 195 -77 q 254 48 239 15 q 269 90 269 82 q 268 92 269 90 q 268 95 268 94 q 242 161 262 114 q 195 272 222 209 q 140 402 168 335 q 86 528 111 469 q 46 626 62 587 q 31 670 31 665 q 40 686 31 682 q 58 690 49 690 l 344 690 q 370 671 361 690 q 383 635 374 663 q 402 575 392 607 q 421 518 412 543 q 434 492 430 494 l 435 492 q 451 519 441 495 q 474 576 462 544 q 496 636 486 608 q 513 673 507 664 q 538 690 522 690 l 751 690 q 771 686 761 690 q 781 670 781 683 q 779 661 781 665 q 777 652 778 656 q 670 378 724 515 q 564 103 616 241 q 520 -13 543 45 q 475 -128 498 -71 q 454 -187 465 -157 q 429 -245 443 -217 q 403 -262 420 -262 l 152 -262 m 454 840 q 486 920 454 884 q 564 957 519 957 q 638 920 609 957 q 667 841 667 883 q 651 787 667 814 q 612 744 636 761 q 559 726 587 726 q 484 761 513 726 q 454 840 454 796 m 181 840 q 211 920 181 884 q 287 956 241 956 q 363 921 332 956 q 395 841 395 885 q 363 762 395 798 q 287 726 331 726 q 212 762 243 726 q 181 840 181 798 z "},"z":{"ha":714,"x_min":8,"x_max":699,"o":"m 8 19 q 11 31 8 26 q 16 41 13 35 q 38 83 21 52 q 78 158 55 115 q 126 249 101 202 q 172 337 151 296 q 206 406 193 378 q 218 437 219 433 q 194 441 216 440 q 143 442 172 442 q 90 441 114 441 q 58 441 65 441 q 31 469 32 441 q 29 565 29 517 q 29 661 29 613 q 56 688 29 688 l 650 688 q 668 684 659 688 q 677 669 677 680 q 675 658 677 663 q 671 648 673 653 q 575 455 624 551 q 483 261 527 359 q 481 252 481 257 q 488 249 483 249 l 665 249 q 692 222 689 249 q 694 184 694 203 q 694 146 694 165 q 697 87 696 117 q 699 28 699 58 q 672 0 699 0 l 39 0 q 19 3 29 0 q 8 19 8 7 z "},"ž":{"ha":714,"x_min":8,"x_max":699,"o":"m 8 19 q 11 31 8 26 q 16 41 13 35 q 38 83 21 52 q 78 158 55 115 q 126 249 101 202 q 172 337 151 296 q 206 406 193 378 q 218 437 219 433 q 194 441 216 440 q 143 442 172 442 q 90 441 114 441 q 58 441 65 441 q 31 469 32 441 q 29 565 29 517 q 29 661 29 613 q 56 688 29 688 l 650 688 q 668 684 659 688 q 677 669 677 680 q 675 658 677 663 q 671 648 673 653 q 575 455 624 551 q 483 261 527 359 q 481 252 481 257 q 488 249 483 249 l 665 249 q 692 222 689 249 q 694 184 694 203 q 694 146 694 165 q 697 87 696 117 q 699 28 699 58 q 672 0 699 0 l 39 0 q 19 3 29 0 q 8 19 8 7 m 316 1038 q 351 1020 335 1038 q 381 984 368 1002 q 406 966 395 966 q 424 979 412 966 q 449 1008 437 993 q 466 1029 461 1023 q 487 1038 474 1038 l 609 1038 q 630 1036 616 1038 q 644 1022 644 1034 q 637 1005 644 1014 q 624 991 629 996 l 422 783 q 414 776 419 780 q 404 772 409 772 q 392 776 398 772 q 383 783 387 780 q 282 886 332 834 q 182 991 232 939 q 171 1004 176 997 q 163 1019 165 1010 q 162 1021 163 1020 q 162 1022 162 1021 q 176 1036 162 1034 q 198 1038 191 1038 l 316 1038 z "},"":{"ha":903,"x_min":6,"x_max":874,"o":"m 114 0 q 87 28 87 0 q 89 85 87 57 q 92 142 92 114 q 97 279 95 211 q 98 416 98 348 q 98 419 98 417 q 97 421 97 420 q 88 427 94 426 q 77 427 83 427 q 60 427 68 427 q 43 426 52 426 q 18 432 27 426 q 8 454 9 437 q 8 495 7 475 q 8 536 8 516 q 7 602 7 569 q 6 667 6 634 q 39 696 6 696 q 58 694 48 696 q 76 693 67 693 q 90 695 83 693 q 96 706 96 698 l 96 726 q 138 886 96 819 q 252 989 180 953 q 413 1025 323 1025 q 463 1022 438 1025 q 512 1014 488 1019 q 535 1007 522 1012 q 558 1003 549 1003 q 567 1005 564 1003 q 569 1008 568 1006 q 571 1013 570 1010 q 634 1081 593 1056 q 724 1107 675 1107 q 796 1089 762 1107 q 852 1041 830 1072 q 874 970 874 1010 q 851 892 874 927 q 790 838 827 858 q 711 818 753 818 q 664 827 688 818 q 624 846 641 837 q 604 856 607 856 q 589 842 596 856 q 573 815 582 829 q 549 801 564 801 q 518 808 536 801 q 480 814 500 814 q 420 781 435 814 q 404 710 404 748 q 406 700 404 706 q 413 694 408 694 l 830 694 q 857 667 857 694 q 856 576 857 621 q 854 484 854 530 q 861 176 854 330 q 865 102 862 139 q 869 28 869 66 q 842 0 869 0 l 580 0 q 552 28 554 0 q 550 74 551 51 q 550 120 550 97 q 549 268 550 194 q 548 415 549 341 q 547 422 548 418 q 543 427 547 427 l 411 427 q 405 418 405 427 q 405 223 405 321 q 404 28 406 125 q 376 0 403 0 l 114 0 m 554 787 q 554 785 554 786 q 555 784 555 785 q 550 781 555 781 l 554 787 z "},"ﬁ":{"ha":903,"x_min":6,"x_max":874,"o":"m 114 0 q 87 28 87 0 q 89 85 87 57 q 92 142 92 114 q 97 279 95 211 q 98 416 98 348 q 98 419 98 417 q 97 421 97 420 q 88 427 94 426 q 77 427 83 427 q 60 427 68 427 q 43 426 52 426 q 18 432 27 426 q 8 454 9 437 q 8 495 7 475 q 8 536 8 516 q 7 602 7 569 q 6 667 6 634 q 39 696 6 696 q 58 694 48 696 q 76 693 67 693 q 90 695 83 693 q 96 706 96 698 l 96 726 q 138 886 96 819 q 252 989 180 953 q 413 1025 323 1025 q 463 1022 438 1025 q 512 1014 488 1019 q 535 1007 522 1012 q 558 1003 549 1003 q 567 1005 564 1003 q 569 1008 568 1006 q 571 1013 570 1010 q 634 1081 593 1056 q 724 1107 675 1107 q 796 1089 762 1107 q 852 1041 830 1072 q 874 970 874 1010 q 851 892 874 927 q 790 838 827 858 q 711 818 753 818 q 664 827 688 818 q 624 846 641 837 q 604 856 607 856 q 589 842 596 856 q 573 815 582 829 q 549 801 564 801 q 518 808 536 801 q 480 814 500 814 q 420 781 435 814 q 404 710 404 748 q 406 700 404 706 q 413 694 408 694 l 830 694 q 857 667 857 694 q 856 576 857 621 q 854 484 854 530 q 861 176 854 330 q 865 102 862 139 q 869 28 869 66 q 842 0 869 0 l 580 0 q 552 28 554 0 q 550 74 551 51 q 550 120 550 97 q 549 268 550 194 q 548 415 549 341 q 547 422 548 418 q 543 427 547 427 l 411 427 q 405 418 405 427 q 405 223 405 321 q 404 28 406 125 q 376 0 403 0 l 114 0 m 554 787 q 554 785 554 786 q 555 784 555 785 q 550 781 555 781 l 554 787 z "},"":{"ha":921,"x_min":16,"x_max":882,"o":"m 123 0 q 96 28 96 0 q 99 85 96 57 q 102 142 101 114 q 106 279 104 211 q 108 416 108 348 q 107 419 108 417 q 106 421 106 420 q 98 427 103 426 q 87 427 92 427 q 70 427 78 427 q 52 426 61 426 q 28 432 37 426 q 18 454 19 437 q 17 496 16 475 q 18 538 18 517 q 16 602 17 570 q 16 667 16 635 q 49 696 16 696 q 67 695 58 696 q 85 694 76 694 q 98 696 90 694 q 106 706 106 699 q 105 715 106 711 q 105 725 105 720 q 147 886 105 819 q 261 989 189 953 q 423 1025 333 1025 q 467 1023 445 1025 q 510 1017 489 1021 q 532 1011 519 1015 q 553 1008 545 1008 l 557 1008 q 563 1025 566 1013 q 574 1038 559 1038 l 855 1038 q 882 1009 882 1038 q 879 925 882 968 q 873 841 875 883 q 866 665 869 753 q 864 488 864 576 q 865 333 864 410 q 870 178 867 255 q 875 103 871 140 q 878 28 878 66 q 851 0 878 0 l 589 0 q 568 7 574 0 q 562 28 563 14 q 560 63 560 45 q 559 97 559 80 q 558 256 559 176 q 557 415 557 336 q 557 422 557 418 q 553 427 556 427 l 420 427 q 414 418 414 427 q 414 287 414 353 q 414 154 414 220 q 414 91 414 123 q 413 28 414 60 q 385 0 412 0 l 123 0 m 414 694 l 559 694 l 559 793 q 525 810 544 806 q 486 814 505 814 q 433 786 452 814 q 414 728 414 758 l 414 694 m 564 787 l 559 781 q 564 784 564 781 q 564 785 564 785 q 564 787 564 786 z "},"ﬂ":{"ha":921,"x_min":16,"x_max":882,"o":"m 123 0 q 96 28 96 0 q 99 85 96 57 q 102 142 101 114 q 106 279 104 211 q 108 416 108 348 q 107 419 108 417 q 106 421 106 420 q 98 427 103 426 q 87 427 92 427 q 70 427 78 427 q 52 426 61 426 q 28 432 37 426 q 18 454 19 437 q 17 496 16 475 q 18 538 18 517 q 16 602 17 570 q 16 667 16 635 q 49 696 16 696 q 67 695 58 696 q 85 694 76 694 q 98 696 90 694 q 106 706 106 699 q 105 715 106 711 q 105 725 105 720 q 147 886 105 819 q 261 989 189 953 q 423 1025 333 1025 q 467 1023 445 1025 q 510 1017 489 1021 q 532 1011 519 1015 q 553 1008 545 1008 l 557 1008 q 563 1025 566 1013 q 574 1038 559 1038 l 855 1038 q 882 1009 882 1038 q 879 925 882 968 q 873 841 875 883 q 866 665 869 753 q 864 488 864 576 q 865 333 864 410 q 870 178 867 255 q 875 103 871 140 q 878 28 878 66 q 851 0 878 0 l 589 0 q 568 7 574 0 q 562 28 563 14 q 560 63 560 45 q 559 97 559 80 q 558 256 559 176 q 557 415 557 336 q 557 422 557 418 q 553 427 556 427 l 420 427 q 414 418 414 427 q 414 287 414 353 q 414 154 414 220 q 414 91 414 123 q 413 28 414 60 q 385 0 412 0 l 123 0 m 414 694 l 559 694 l 559 793 q 525 810 544 806 q 486 814 505 814 q 433 786 452 814 q 414 728 414 758 l 414 694 m 564 787 l 559 781 q 564 784 564 781 q 564 785 564 785 q 564 787 564 786 z "},"ª":{"ha":779,"x_min":55,"x_max":716,"o":"m 479 656 q 475 655 477 656 q 413 640 444 642 q 348 637 382 637 q 196 657 262 637 q 93 730 130 677 q 55 878 55 783 q 92 1002 55 951 q 188 1079 128 1053 q 314 1105 247 1105 q 402 1091 359 1105 q 484 1055 445 1077 l 489 1057 q 486 1068 486 1063 q 496 1080 486 1076 q 513 1083 507 1083 l 689 1083 q 716 1058 716 1083 q 712 959 716 1008 q 707 859 709 909 q 706 768 705 814 q 702 677 706 723 q 674 650 700 650 l 486 650 q 482 654 484 650 l 479 656 m 387 780 q 436 782 412 780 q 485 789 461 783 q 487 864 486 827 q 488 939 487 902 q 436 952 463 951 q 382 954 409 954 q 311 929 345 954 q 277 863 277 903 q 313 799 277 819 q 387 780 349 780 z "},"º":{"ha":688,"x_min":22,"x_max":665,"o":"m 353 638 q 236 650 294 638 q 129 690 178 662 q 52 764 81 718 q 22 880 22 810 q 53 988 22 944 q 133 1059 83 1031 q 239 1098 182 1086 q 349 1109 296 1109 q 458 1097 403 1109 q 561 1058 513 1085 q 636 987 608 1031 q 665 880 665 943 q 637 771 665 817 q 564 695 610 725 q 463 652 518 666 q 353 638 408 638 m 245 872 q 271 797 245 829 q 342 766 297 766 q 418 803 393 766 q 442 886 442 841 q 347 979 442 979 q 245 872 245 979 z "},"Δ":{"ha":555,"x_min":-52,"x_max":832,"o":"m -21 0 q -41 3 -30 0 q -52 19 -52 6 q -50 30 -52 26 q -45 40 -47 35 q 177 499 73 267 q 394 960 281 731 q 398 964 396 964 l 402 964 q 419 927 404 963 q 460 834 435 891 q 513 712 485 777 q 568 586 541 647 q 613 481 594 526 q 638 425 632 437 q 730 231 682 327 q 825 40 777 136 q 830 30 827 35 q 832 19 832 24 q 822 3 832 6 q 802 0 812 0 l -21 0 m 326 201 l 452 201 q 417 399 435 300 q 384 599 400 499 q 377 510 382 547 q 362 423 371 473 q 344 312 353 368 q 326 201 335 256 z "},"∆":{"ha":555,"x_min":-52,"x_max":832,"o":"m -21 0 q -41 3 -30 0 q -52 19 -52 6 q -50 30 -52 26 q -45 40 -47 35 q 177 499 73 267 q 394 960 281 731 q 398 964 396 964 l 402 964 q 419 927 404 963 q 460 834 435 891 q 513 712 485 777 q 568 586 541 647 q 613 481 594 526 q 638 425 632 437 q 730 231 682 327 q 825 40 777 136 q 830 30 827 35 q 832 19 832 24 q 822 3 832 6 q 802 0 812 0 l -21 0 m 326 201 l 452 201 q 417 399 435 300 q 384 599 400 499 q 377 510 382 547 q 362 423 371 473 q 344 312 353 368 q 326 201 335 256 z "},"µ":{"ha":532,"x_min":-32,"x_max":545,"o":"m -5 -355 q -32 -329 -32 -355 q -26 -195 -32 -262 q -17 -61 -20 -127 q -7 232 -10 85 q -5 526 -5 379 q -5 579 -5 553 q -5 633 -5 606 q 22 661 -3 661 l 172 661 q 199 633 199 661 q 199 446 199 540 q 198 259 198 353 q 205 206 198 234 q 245 178 212 178 q 295 207 277 178 q 320 276 313 235 q 330 356 328 317 q 332 416 332 395 l 332 633 q 360 661 332 661 l 510 661 q 537 633 537 661 q 537 558 537 596 q 536 482 536 520 q 541 255 536 369 q 545 28 545 142 q 518 0 545 0 l 379 0 q 354 14 361 0 q 346 48 347 28 q 344 84 345 67 q 339 105 344 100 q 338 102 338 105 q 336 92 337 97 q 332 82 334 87 q 274 4 309 33 q 185 -34 239 -24 q 180 -35 181 -34 q 174 -59 174 -39 q 174 -86 174 -79 q 172 -180 174 -133 q 171 -274 171 -227 q 172 -307 171 -288 q 166 -340 172 -326 q 140 -355 160 -355 l -5 -355 z "},"μ":{"ha":532,"x_min":-32,"x_max":545,"o":"m -5 -355 q -32 -329 -32 -355 q -26 -195 -32 -262 q -17 -61 -20 -127 q -7 232 -10 85 q -5 526 -5 379 q -5 579 -5 553 q -5 633 -5 606 q 22 661 -3 661 l 172 661 q 199 633 199 661 q 199 446 199 540 q 198 259 198 353 q 205 206 198 234 q 245 178 212 178 q 295 207 277 178 q 320 276 313 235 q 330 356 328 317 q 332 416 332 395 l 332 633 q 360 661 332 661 l 510 661 q 537 633 537 661 q 537 558 537 596 q 536 482 536 520 q 541 255 536 369 q 545 28 545 142 q 518 0 545 0 l 379 0 q 354 14 361 0 q 346 48 347 28 q 344 84 345 67 q 339 105 344 100 q 338 102 338 105 q 336 92 337 97 q 332 82 334 87 q 274 4 309 33 q 185 -34 239 -24 q 180 -35 181 -34 q 174 -59 174 -39 q 174 -86 174 -79 q 172 -180 174 -133 q 171 -274 171 -227 q 172 -307 171 -288 q 166 -340 172 -326 q 140 -355 160 -355 l -5 -355 z "},"π":{"ha":545,"x_min":9,"x_max":534,"o":"m 9 528 q 37 555 9 555 l 507 555 q 534 528 534 555 l 534 368 q 503 340 534 340 q 477 341 494 340 q 456 334 461 342 q 455 332 456 333 q 455 329 455 330 q 457 178 455 254 q 460 28 460 103 q 433 0 460 0 l 302 0 q 275 28 275 0 l 275 332 q 266 340 275 340 q 256 332 256 340 l 256 28 q 228 0 256 0 l 96 0 q 69 28 69 0 q 72 179 69 104 q 75 330 75 254 l 75 332 q 67 339 72 338 q 56 340 62 340 q 24 342 39 340 q 9 368 9 343 l 9 528 z "},"¹":{"ha":406,"x_min":19,"x_max":361,"o":"m 19 942 q 46 970 19 970 l 334 970 q 361 942 361 970 q 359 728 361 836 q 357 514 357 621 l 357 372 q 330 344 357 344 l 167 344 q 140 372 141 344 q 139 440 138 406 q 140 508 140 474 q 139 632 139 570 q 138 755 138 694 q 127 767 138 767 l 50 767 q 22 795 24 767 q 20 868 20 831 q 19 942 19 905 z "},"²":{"ha":568,"x_min":39,"x_max":537,"o":"m 226 820 q 176 809 200 820 q 134 787 153 798 q 105 776 116 776 q 100 777 102 776 q 89 787 93 781 q 81 800 85 793 q 67 831 78 809 q 48 875 57 853 q 39 903 39 897 q 45 917 39 909 q 108 968 69 948 q 191 999 147 989 q 273 1008 235 1008 q 396 985 340 1008 q 487 915 452 962 q 521 795 521 867 q 503 707 521 748 q 462 634 486 667 q 421 583 439 602 q 404 559 404 564 q 408 556 404 557 q 415 556 413 556 l 510 556 q 537 528 537 556 l 537 397 q 510 369 537 369 l 96 369 q 69 397 69 369 l 69 482 q 85 508 69 499 q 174 561 125 530 q 257 633 222 592 q 292 726 292 673 q 280 790 292 761 q 226 820 268 820 z "},"³":{"ha":553,"x_min":45,"x_max":508,"o":"m 245 361 q 144 376 195 361 q 54 423 92 391 q 45 440 45 431 q 56 474 45 448 q 81 523 67 499 q 100 551 94 547 q 105 551 102 551 q 132 540 117 551 q 168 517 148 528 q 214 505 189 505 q 277 522 254 505 q 300 582 300 539 q 273 651 300 630 q 200 671 245 671 q 172 669 185 671 q 144 664 158 666 l 143 663 q 132 667 137 662 q 127 677 127 671 q 140 708 127 688 q 170 749 153 727 q 201 791 187 770 q 218 824 215 811 q 217 827 218 826 q 197 828 215 828 q 156 829 179 829 q 114 828 133 829 q 89 828 94 828 q 61 856 62 828 l 58 962 q 85 990 57 990 l 450 990 q 470 988 458 990 q 482 975 482 985 q 465 932 482 964 q 426 865 448 901 q 388 800 404 829 q 371 763 371 770 q 395 750 374 758 q 442 724 416 741 q 488 677 469 707 q 508 597 508 647 q 471 470 508 524 q 375 389 435 417 q 245 361 315 361 z "},"⁴":{"ha":597,"x_min":32,"x_max":566,"o":"m 493 643 q 500 634 493 636 q 513 632 507 632 q 548 631 530 632 q 566 605 566 631 l 566 536 q 535 507 566 507 q 513 508 527 507 q 494 502 499 509 q 493 476 493 498 q 493 431 492 454 q 493 401 493 408 q 466 373 493 373 l 332 373 q 304 401 304 373 l 304 500 q 296 508 304 508 l 60 508 q 36 522 40 508 q 32 551 32 535 q 37 570 32 562 q 110 674 69 621 q 186 777 150 727 q 266 888 226 832 q 348 998 305 944 q 370 1008 356 1008 l 473 1008 q 500 980 500 1008 q 496 812 500 896 q 493 643 493 728 m 239 633 l 304 633 l 304 726 q 272 680 288 703 q 239 633 256 656 z "},"⁄":{"ha":475,"x_min":-54,"x_max":579,"o":"m -54 19 q -52 30 -54 24 q -47 40 -50 35 q 1 144 -24 92 q 50 250 26 197 q 135 440 93 345 q 219 633 177 536 q 331 883 274 758 q 359 946 345 913 q 389 1007 372 978 q 414 1023 399 1023 l 552 1023 q 570 1020 562 1023 q 579 1004 579 1017 q 577 994 579 999 q 572 983 575 989 q 379 564 472 775 q 192 142 287 353 q 165 78 178 111 q 135 16 152 46 q 110 0 126 0 l -23 0 q -43 3 -33 0 q -54 19 -54 6 z "},"∕":{"ha":475,"x_min":-54,"x_max":579,"o":"m -54 19 q -52 30 -54 24 q -47 40 -50 35 q 1 144 -24 92 q 50 250 26 197 q 135 440 93 345 q 219 633 177 536 q 331 883 274 758 q 359 946 345 913 q 389 1007 372 978 q 414 1023 399 1023 l 552 1023 q 570 1020 562 1023 q 579 1004 579 1017 q 577 994 579 999 q 572 983 575 989 q 379 564 472 775 q 192 142 287 353 q 165 78 178 111 q 135 16 152 46 q 110 0 126 0 l -23 0 q -43 3 -33 0 q -54 19 -54 6 z "},"½":{"ha":1229,"x_min":21,"x_max":1191,"o":"m 195 19 q 197 31 195 25 q 203 41 200 37 q 351 321 279 180 q 492 604 422 462 q 563 745 528 674 q 633 886 597 816 q 664 949 648 916 q 697 1011 679 983 q 722 1026 707 1026 l 864 1026 q 882 1022 873 1026 q 892 1007 892 1019 q 889 996 892 1002 q 884 985 887 991 q 731 689 807 838 q 581 391 655 541 q 518 266 549 328 q 454 140 486 203 q 423 77 439 109 q 388 15 408 44 q 363 0 377 0 l 226 0 q 206 3 217 0 q 195 19 195 6 m 66 764 q 31 793 35 764 q 28 828 28 810 q 26 863 28 846 q 23 903 26 882 q 21 943 21 923 q 47 968 21 968 l 288 968 q 316 941 313 968 q 320 872 320 907 q 321 803 321 837 q 326 513 326 659 q 326 442 326 478 q 324 370 326 406 q 297 342 323 342 l 157 342 q 130 370 130 342 q 130 435 130 403 q 131 500 131 467 q 130 588 131 544 q 128 675 129 631 q 127 716 128 696 q 125 758 125 737 q 117 766 123 764 q 105 768 111 768 q 85 766 96 768 q 66 764 75 764 m 882 437 q 842 427 861 437 q 808 406 823 416 q 780 396 792 396 q 775 397 777 396 q 763 409 767 401 q 755 425 758 416 q 743 453 751 433 q 728 493 735 473 q 721 519 721 513 q 725 532 721 527 q 782 581 747 561 q 858 612 817 602 q 933 623 898 623 q 1094 563 1032 623 q 1156 403 1156 503 q 1141 320 1156 359 q 1107 249 1126 280 q 1072 198 1087 217 q 1057 176 1057 178 q 1059 173 1057 174 q 1105 171 1078 170 q 1154 172 1133 172 q 1181 145 1178 172 q 1188 77 1185 112 q 1191 9 1191 43 q 1164 -16 1191 -16 l 778 -16 q 750 12 751 -16 l 748 99 q 762 124 748 115 q 841 180 800 149 q 909 252 881 212 q 937 343 937 293 q 934 385 937 363 q 920 422 931 407 q 882 437 908 437 z "},"¼":{"ha":1238,"x_min":21,"x_max":1212,"o":"m 964 1026 q 985 1024 974 1026 q 996 1008 996 1021 q 993 995 996 1001 q 987 984 990 989 q 746 563 862 776 q 510 139 629 350 q 475 75 492 108 q 438 14 458 43 q 414 0 429 0 l 273 0 q 252 3 264 0 q 241 18 241 5 q 244 31 241 25 q 250 42 248 37 q 420 338 336 190 q 585 637 504 487 q 654 763 619 700 q 724 888 689 825 q 759 951 742 919 q 797 1013 776 983 q 821 1026 806 1026 l 964 1026 m 68 766 q 31 794 35 766 q 28 829 28 811 q 26 864 28 847 q 23 904 26 884 q 21 945 21 924 q 47 970 21 970 l 300 970 q 328 943 326 970 q 332 874 332 909 q 333 804 332 839 q 336 660 334 732 q 338 515 338 587 q 338 444 338 479 q 336 372 338 408 q 309 344 335 344 l 163 344 q 136 372 136 344 q 137 429 136 388 q 137 524 137 471 q 137 628 137 576 q 135 716 136 679 q 131 762 134 753 q 121 767 127 766 q 110 768 115 768 q 89 767 99 768 q 68 766 78 766 m 1136 608 q 1136 560 1136 597 q 1135 475 1135 523 q 1135 382 1135 428 q 1136 304 1135 336 q 1139 268 1137 272 q 1147 262 1142 263 q 1157 260 1152 260 q 1168 261 1162 260 q 1179 262 1174 262 q 1209 235 1206 262 q 1212 200 1211 218 q 1212 165 1212 182 q 1183 136 1212 136 q 1164 137 1177 136 q 1147 132 1152 138 q 1146 129 1147 131 q 1145 126 1145 127 q 1148 76 1145 101 q 1152 26 1152 51 q 1125 1 1152 1 l 990 1 q 962 28 963 1 l 958 127 q 949 137 958 137 l 730 137 q 705 152 708 137 q 701 184 701 168 q 705 199 701 192 q 764 289 732 245 q 825 376 796 332 q 908 502 867 439 q 992 624 948 564 q 1015 636 1001 636 l 1109 636 q 1136 608 1136 636 m 899 262 l 954 262 q 952 306 953 283 q 952 349 952 328 q 925 306 939 328 q 899 262 912 283 z "},"¾":{"ha":1374,"x_min":65,"x_max":1325,"o":"m 1083 1026 q 1104 1024 1092 1026 q 1117 1008 1117 1021 q 1113 995 1117 1002 q 1105 983 1108 988 q 744 420 920 707 q 657 279 701 350 q 568 138 613 209 q 529 75 549 107 q 487 13 509 43 q 464 0 477 0 l 318 0 q 297 2 309 0 q 285 18 285 5 q 288 31 285 25 q 296 43 292 37 q 467 308 382 175 q 634 576 551 441 q 722 717 678 646 q 810 858 766 788 q 860 937 836 897 q 912 1013 885 977 q 935 1026 922 1026 l 1083 1026 m 252 361 q 157 377 208 361 q 74 423 107 393 q 65 439 65 431 q 76 476 65 450 q 101 525 86 503 q 127 548 116 548 q 153 537 140 548 q 184 516 166 526 q 226 505 201 505 q 286 523 266 505 q 307 582 307 541 q 281 649 307 627 q 211 671 255 671 q 159 665 184 671 q 154 663 157 663 q 142 677 142 663 q 153 705 142 686 q 178 747 163 724 q 205 791 193 770 q 222 823 218 812 l 222 826 q 214 828 220 828 l 102 828 q 73 856 77 828 q 68 910 71 883 q 65 965 65 938 q 92 990 65 990 l 437 990 q 456 987 445 990 q 468 972 468 984 q 454 931 468 960 q 421 868 440 902 q 388 805 403 833 q 372 765 373 777 q 393 752 373 760 q 440 725 414 743 q 486 675 466 707 q 506 591 506 644 q 470 469 506 521 q 377 389 435 417 q 252 361 319 361 m 1242 610 q 1241 469 1242 540 q 1242 328 1240 399 q 1243 299 1242 321 q 1244 271 1243 277 q 1255 263 1246 264 q 1269 262 1263 262 q 1280 262 1274 262 q 1293 263 1286 263 q 1321 236 1318 263 q 1325 166 1325 203 q 1295 137 1325 137 q 1269 138 1287 137 q 1251 126 1251 140 q 1255 76 1251 101 q 1258 26 1258 52 q 1232 1 1258 1 l 1090 1 q 1062 28 1065 1 q 1059 77 1059 52 q 1057 126 1058 102 l 1057 132 q 1048 138 1054 138 l 799 138 q 774 153 778 138 q 771 184 771 169 q 776 200 771 193 q 851 304 810 254 q 929 406 891 355 q 1010 518 970 461 q 1094 627 1050 574 q 1116 637 1103 637 l 1215 637 q 1242 610 1242 637 m 983 263 l 1053 263 q 1052 311 1052 287 q 1051 359 1051 336 q 1017 311 1034 336 q 983 263 1000 287 z "},"*":{"ha":681,"x_min":56,"x_max":631,"o":"m 286 635 q 263 645 269 635 q 257 669 257 654 q 258 686 257 677 q 259 702 259 694 q 254 721 259 715 q 252 722 254 721 q 250 722 251 722 q 216 713 237 722 q 175 694 195 703 q 140 684 154 684 q 119 696 127 684 q 98 724 112 706 q 72 759 84 741 q 60 787 60 777 q 75 807 60 800 q 109 820 90 814 q 143 829 128 825 q 157 841 157 834 q 142 855 157 849 q 107 867 127 861 q 72 881 87 873 q 56 899 56 888 q 70 931 56 907 q 101 975 84 954 q 124 996 117 996 q 163 987 140 996 q 210 968 186 978 q 252 954 234 958 q 256 963 256 956 l 255 1025 q 282 1053 255 1053 l 402 1053 q 430 1027 430 1053 q 429 996 430 1012 q 427 964 427 979 q 433 955 427 956 q 475 968 451 959 q 522 986 499 978 q 560 995 545 995 q 585 974 568 995 q 616 929 602 953 q 631 898 631 906 q 607 877 631 887 q 556 859 583 867 q 519 844 529 850 l 517 842 q 533 828 517 835 q 570 815 549 822 q 607 801 591 808 q 623 784 623 793 q 610 756 623 776 q 583 718 597 737 q 562 691 568 699 q 545 680 555 680 q 507 691 531 680 q 459 711 482 701 q 428 722 437 722 l 425 722 q 419 705 418 719 q 420 675 420 692 q 415 647 420 659 q 394 635 410 635 l 286 635 z "},"\\":{"ha":521,"x_min":-12,"x_max":515,"o":"m 176 1100 q 203 1080 195 1100 q 225 1012 216 1050 q 243 941 235 974 q 376 474 310 708 q 513 9 441 241 q 515 -6 515 -1 q 506 -23 515 -19 q 486 -27 497 -27 l 330 -27 q 303 -7 311 -27 q 281 61 291 20 q 263 132 272 101 q 230 252 246 192 q 196 373 213 313 q 97 720 148 547 q -9 1064 45 892 q -12 1079 -12 1074 q -3 1096 -12 1093 q 16 1100 5 1100 l 176 1100 z "},"·":{"ha":481,"x_min":98,"x_max":381,"o":"m 98 424 q 120 485 98 458 q 174 525 142 511 q 238 539 207 539 q 302 525 269 539 q 358 485 336 511 q 381 424 381 459 q 359 362 381 388 q 303 323 336 336 q 238 309 271 309 q 173 323 205 309 q 119 362 141 336 q 98 424 98 388 z "},"∙":{"ha":481,"x_min":98,"x_max":381,"o":"m 98 424 q 120 485 98 458 q 174 525 142 511 q 238 539 207 539 q 302 525 269 539 q 358 485 336 511 q 381 424 381 459 q 359 362 381 388 q 303 323 336 336 q 238 309 271 309 q 173 323 205 309 q 119 362 141 336 q 98 424 98 388 z "},"•":{"ha":991,"x_min":91,"x_max":903,"o":"m 91 447 q 124 600 91 531 q 214 719 157 669 q 344 796 271 769 q 498 823 417 823 q 650 795 577 823 q 780 718 722 768 q 870 598 837 667 q 903 447 903 530 q 869 293 903 361 q 779 177 836 225 q 648 103 722 128 q 494 77 574 77 q 295 123 387 77 q 147 252 203 169 q 91 447 91 334 z "},":":{"ha":425,"x_min":66,"x_max":355,"o":"m 68 536 q 91 597 68 571 q 145 637 113 623 q 209 652 178 652 q 273 637 240 652 q 329 597 306 623 q 352 536 352 571 q 330 474 352 500 q 274 436 307 449 q 209 422 241 422 q 144 436 176 422 q 90 475 112 449 q 68 536 68 500 m 66 114 q 89 175 66 149 q 144 216 111 201 q 209 231 178 231 q 274 216 240 231 q 331 175 308 201 q 355 114 355 149 q 332 51 355 77 q 275 13 309 26 q 209 0 241 0 q 143 13 176 0 q 88 52 110 26 q 66 114 66 77 z "},",":{"ha":481,"x_min":31,"x_max":419,"o":"m 387 131 q 408 128 396 131 q 419 112 419 125 q 405 80 419 106 q 370 16 391 53 q 326 -60 348 -22 q 285 -128 303 -98 q 260 -167 267 -157 q 237 -180 251 -180 l 64 -180 q 43 -177 55 -180 q 31 -162 31 -174 q 34 -149 31 -155 q 40 -138 37 -143 q 80 -68 60 -102 q 119 1 100 -34 q 149 59 134 30 q 181 115 164 87 q 206 131 190 131 l 387 131 z "},"…":{"ha":1442,"x_min":189,"x_max":1253,"o":"m 189 106 q 212 172 189 144 q 269 215 235 199 q 337 231 303 231 q 402 216 369 231 q 457 175 435 201 q 479 114 479 149 q 454 52 479 78 q 394 13 429 26 q 327 0 358 0 q 264 12 296 0 q 211 48 233 24 q 189 106 189 72 m 576 114 q 600 175 576 149 q 657 216 623 201 q 722 231 691 231 q 787 216 753 231 q 843 175 820 201 q 865 114 865 149 q 843 51 865 77 q 787 13 821 26 q 721 0 754 0 q 655 13 688 0 q 599 51 621 26 q 576 114 576 77 m 964 114 q 985 176 964 150 q 1039 216 1006 202 q 1103 231 1072 231 q 1170 215 1135 231 q 1229 173 1205 200 q 1253 110 1253 146 q 1232 50 1253 74 q 1177 13 1210 25 q 1113 0 1145 0 q 1047 13 1082 0 q 988 52 1012 26 q 964 114 964 78 z "},"!":{"ha":454,"x_min":61,"x_max":393,"o":"m 91 1094 q 118 1122 91 1122 l 325 1122 q 353 1094 353 1122 q 349 795 353 945 q 346 497 346 646 l 346 324 q 319 296 346 296 l 124 296 q 97 324 97 296 q 98 427 97 376 q 98 530 98 479 q 95 812 98 671 q 91 1094 91 953 m 229 -31 q 155 -20 194 -31 q 89 15 116 -9 q 61 83 61 40 q 81 136 61 113 q 131 173 100 158 q 193 194 161 187 q 250 201 225 201 q 318 188 285 201 q 372 148 351 174 q 393 83 393 122 q 367 15 393 40 q 302 -20 340 -9 q 229 -31 264 -31 z "},"¡":{"ha":454,"x_min":66,"x_max":389,"o":"m 228 836 q 302 824 264 836 q 364 788 339 813 q 389 719 389 762 q 368 655 389 680 q 314 619 347 631 q 247 607 281 607 q 170 620 212 607 q 97 659 127 632 q 66 728 66 686 q 93 793 66 770 q 158 826 120 816 q 228 836 195 836 m 85 -290 q 87 -164 85 -227 q 92 -39 90 -101 q 95 138 94 50 q 97 315 96 227 l 98 433 q 97 458 98 445 q 98 483 97 471 q 104 504 99 496 q 125 511 110 511 l 318 511 q 345 483 345 511 q 347 221 345 352 q 351 -41 349 90 q 354 -165 353 -103 q 355 -290 355 -228 q 328 -318 355 -318 l 113 -318 q 85 -290 85 -318 z "},"#":{"ha":1040,"x_min":36,"x_max":989,"o":"m 493 958 q 522 934 522 958 q 521 930 522 932 q 521 926 521 928 q 509 848 517 887 q 495 772 501 810 q 489 741 492 757 q 485 711 485 726 q 486 702 485 706 q 493 699 486 699 l 592 699 q 599 702 597 699 q 601 710 600 706 q 619 823 611 766 q 640 935 627 880 q 668 958 644 958 l 854 958 q 873 954 864 958 q 883 939 883 950 q 882 932 883 935 q 881 925 882 928 q 865 848 873 886 q 849 770 857 809 q 842 739 846 757 q 838 707 838 721 q 846 699 838 699 l 961 699 q 989 675 989 699 q 983 610 989 644 q 971 547 977 577 q 945 524 967 524 l 819 524 q 814 524 814 524 q 808 517 810 522 q 800 477 804 499 q 795 437 795 455 q 798 429 795 430 q 806 427 800 427 l 921 427 q 949 404 949 427 q 945 366 949 392 q 937 314 941 340 q 930 275 933 288 q 903 250 926 250 q 877 251 897 250 q 831 252 856 252 q 788 251 807 252 q 768 246 770 250 q 765 225 768 246 q 759 174 762 205 q 750 110 755 142 q 743 54 746 78 q 739 24 740 30 q 713 0 736 0 l 526 0 q 506 5 514 0 q 498 23 498 10 q 498 27 498 25 q 498 31 498 29 q 508 103 502 67 q 520 174 515 138 q 527 207 523 191 q 530 241 530 224 q 522 250 530 250 l 425 250 q 418 247 419 250 q 416 239 417 243 q 397 132 406 185 q 379 24 389 78 q 351 0 375 0 l 163 0 q 136 23 136 0 q 138 35 136 28 q 153 108 145 71 q 167 181 160 144 q 173 211 170 195 q 177 241 177 228 q 169 250 177 250 l 62 250 q 36 273 36 250 q 40 312 36 288 q 50 362 45 337 q 58 403 56 387 q 86 427 64 427 l 203 427 q 210 434 208 427 q 215 456 212 439 q 220 492 218 474 q 223 513 223 509 q 212 524 223 524 l 109 524 q 81 549 81 524 q 86 612 81 580 q 96 675 92 644 q 122 699 98 699 l 239 699 q 248 706 245 699 q 253 739 252 722 q 257 772 254 756 q 268 854 263 813 q 280 935 273 895 q 307 958 284 958 l 493 958 m 460 524 q 453 475 457 499 q 444 427 449 451 l 559 427 q 567 475 563 451 q 574 524 571 500 l 460 524 z "},".":{"ha":481,"x_min":96,"x_max":385,"o":"m 96 114 q 119 175 96 149 q 175 216 142 201 q 239 231 208 231 q 304 216 271 231 q 362 175 338 201 q 385 114 385 149 q 362 51 385 77 q 306 13 340 26 q 239 0 272 0 q 174 13 207 0 q 118 52 140 26 q 96 114 96 77 z "},"?":{"ha":619,"x_min":17,"x_max":600,"o":"m 205 293 q 181 306 184 293 q 178 334 178 319 q 199 500 178 428 q 285 643 220 572 q 344 715 319 680 q 370 804 370 750 q 352 856 370 828 q 307 884 335 884 q 251 866 271 884 q 219 824 231 848 q 200 782 208 800 q 181 764 193 764 q 155 772 176 764 q 109 794 134 781 q 61 817 83 806 q 33 831 40 827 q 17 854 17 841 q 20 868 17 860 q 133 1034 55 972 q 323 1095 211 1095 q 528 1030 455 1095 q 600 830 600 966 l 600 806 q 579 693 600 741 q 527 606 558 646 q 464 527 496 566 q 412 441 433 488 q 391 331 391 395 q 391 308 391 323 q 380 293 391 293 l 205 293 m 280 -29 q 194 0 229 -29 q 159 83 159 28 q 180 144 159 117 q 232 185 201 170 q 295 200 263 200 q 375 166 347 200 q 404 83 404 132 q 368 -1 404 28 q 280 -29 332 -29 z "},"¿":{"ha":619,"x_min":16,"x_max":622,"o":"m 354 814 q 467 703 467 814 q 436 621 467 652 q 355 589 406 589 q 293 604 323 589 q 243 644 263 618 q 224 703 224 669 q 264 786 224 757 q 354 814 305 814 m 421 494 q 444 481 439 494 q 450 455 450 469 q 449 425 450 440 q 449 394 449 410 q 429 274 449 321 q 378 193 408 228 q 316 121 347 157 q 265 31 286 84 q 258 8 263 25 q 252 -15 252 -9 q 276 -74 252 -50 q 334 -98 299 -98 q 385 -79 366 -98 q 413 -37 403 -61 q 432 5 424 -13 q 452 24 441 24 q 479 15 458 24 q 527 -7 500 5 q 576 -30 553 -19 q 605 -45 598 -41 q 617 -53 612 -49 q 622 -67 622 -58 q 619 -81 622 -72 q 501 -251 583 -190 q 303 -311 418 -311 q 155 -286 220 -311 q 53 -206 90 -261 q 16 -61 16 -151 l 16 -33 q 38 88 16 37 q 93 179 60 138 q 158 259 125 219 q 213 347 191 298 q 235 461 235 395 q 235 481 235 469 q 245 494 235 494 l 421 494 z "},"\"":{"ha":661,"x_min":66,"x_max":609,"o":"m 292 1076 q 319 1047 319 1076 q 318 950 319 999 q 315 854 317 902 q 315 792 315 823 q 313 730 316 761 q 286 703 309 703 l 104 703 q 76 731 79 703 q 74 792 73 761 q 73 854 74 823 q 68 950 71 902 q 66 1047 66 999 q 93 1076 66 1076 l 292 1076 m 582 1076 q 609 1050 609 1076 q 606 977 609 1014 q 600 904 602 941 q 596 817 597 861 q 591 730 595 774 q 564 703 589 703 l 382 703 q 355 731 355 703 l 355 1048 q 384 1076 355 1076 l 582 1076 z "},"'":{"ha":403,"x_min":75,"x_max":332,"o":"m 304 1076 q 332 1046 332 1076 q 330 955 332 1001 q 325 863 327 909 q 324 797 323 830 q 320 730 324 763 q 292 703 317 703 l 107 703 q 79 731 79 703 q 77 889 79 810 q 75 1048 75 968 q 102 1076 75 1076 l 304 1076 z "},";":{"ha":425,"x_min":-10,"x_max":410,"o":"m 140 488 q 166 549 140 523 q 227 589 191 574 q 292 604 262 604 q 375 570 340 604 q 410 488 410 536 q 376 405 410 437 q 291 374 342 374 q 224 387 260 374 q 165 427 189 401 q 140 488 140 452 m 329 131 q 350 127 339 131 q 360 111 360 124 q 358 100 360 105 q 353 89 356 94 q 316 19 336 54 q 275 -50 295 -16 q 244 -109 259 -79 q 210 -166 229 -138 q 185 -180 201 -180 l 22 -180 q 1 -177 12 -180 q -10 -161 -10 -174 q -7 -149 -10 -155 q -2 -138 -5 -144 q 36 -69 17 -103 q 73 1 54 -35 q 103 58 89 29 q 134 115 117 87 q 158 131 142 131 l 329 131 z "},"/":{"ha":521,"x_min":19,"x_max":522,"o":"m 494 1100 q 513 1096 505 1100 q 522 1079 522 1093 q 519 1064 522 1074 q 379 599 446 832 q 247 132 313 366 q 229 60 238 100 q 207 -7 219 20 q 180 -27 199 -27 l 48 -27 q 28 -23 37 -27 q 19 -6 19 -19 q 22 9 19 -1 q 159 474 93 241 q 291 941 224 708 q 310 1012 300 974 q 332 1080 319 1050 q 359 1100 340 1100 l 494 1100 z "},"_":{"ha":676,"x_min":75,"x_max":602,"o":"m 75 28 q 77 99 75 64 q 80 169 78 134 q 108 197 82 197 l 568 197 q 596 170 595 197 l 600 28 q 573 0 602 0 l 102 0 q 75 28 75 0 z "},"{":{"ha":611,"x_min":35,"x_max":584,"o":"m 545 918 q 519 919 532 918 q 492 919 506 919 q 440 900 456 919 q 420 851 424 880 q 416 794 416 823 q 416 717 416 755 q 415 640 416 678 q 388 534 414 578 q 315 454 362 490 q 311 448 311 450 q 326 431 311 445 q 362 396 342 418 q 399 347 382 374 q 416 286 415 319 q 417 267 417 277 q 417 248 417 257 q 417 181 417 214 q 418 115 417 148 q 420 52 419 85 q 436 -5 421 18 q 494 -28 452 -28 q 521 -27 507 -28 q 549 -27 535 -26 q 577 -54 574 -28 q 583 -127 581 -90 q 584 -201 584 -165 q 556 -227 584 -227 l 443 -227 q 410 -227 427 -227 q 378 -227 394 -227 q 270 -216 318 -227 q 193 -170 221 -205 q 165 -64 165 -135 q 167 68 165 2 q 169 199 169 134 q 143 297 169 255 q 61 355 117 340 q 41 364 48 358 q 35 385 35 370 q 35 450 35 417 q 35 514 35 482 q 43 535 36 529 q 62 545 50 541 q 145 604 121 560 q 170 705 170 648 q 169 827 170 766 q 168 949 168 888 q 198 1059 168 1024 q 279 1105 228 1095 q 393 1116 331 1116 l 552 1116 q 580 1087 580 1116 q 578 1016 580 1052 q 573 945 576 980 q 566 925 572 932 q 545 918 560 918 z "},"}":{"ha":611,"x_min":27,"x_max":576,"o":"m 62 -27 q 90 -27 76 -27 q 117 -28 104 -28 q 175 -4 159 -28 q 192 53 190 19 q 194 116 193 86 q 195 181 195 149 q 195 246 195 214 q 211 332 195 296 q 247 390 227 367 q 284 426 268 413 q 302 444 300 439 q 300 448 301 446 q 297 451 298 450 q 281 465 290 458 q 265 479 273 472 q 218 535 238 505 q 197 606 198 566 q 196 690 195 648 q 195 774 197 732 q 193 839 195 805 q 176 896 191 872 q 118 919 161 919 q 92 919 105 919 q 66 918 79 918 q 45 925 52 919 q 38 945 39 930 q 36 973 37 959 q 35 1000 36 987 q 33 1044 35 1022 q 31 1087 31 1066 q 59 1116 31 1116 l 172 1116 q 200 1116 186 1116 q 229 1116 214 1116 q 342 1104 293 1116 q 418 1056 391 1093 q 446 944 446 1019 q 444 819 446 882 q 441 693 441 755 q 466 593 441 635 q 549 535 490 551 q 570 526 564 532 q 576 505 576 520 l 576 375 q 570 354 576 360 q 549 345 563 349 q 468 291 494 332 q 443 196 443 251 q 445 69 443 132 q 447 -58 447 5 q 416 -170 447 -134 q 332 -216 385 -206 q 217 -227 280 -227 l 55 -227 q 27 -198 27 -227 q 29 -154 27 -176 q 32 -111 31 -132 q 33 -82 33 -96 q 34 -54 33 -68 q 62 -27 37 -27 z "},"[":{"ha":636,"x_min":83,"x_max":591,"o":"m 87 1087 q 115 1116 87 1116 l 559 1116 q 587 1087 587 1116 q 584 1036 587 1061 q 581 984 581 1010 q 582 952 581 970 q 577 919 583 933 q 551 905 571 905 l 397 905 q 389 897 389 905 q 388 724 389 810 q 387 552 387 638 q 389 273 387 413 q 390 -6 390 134 q 397 -14 390 -14 l 554 -14 q 575 -21 570 -14 q 583 -41 580 -28 q 585 -67 585 -54 q 585 -94 585 -81 q 589 -145 587 -119 q 591 -197 591 -171 q 563 -225 591 -225 l 111 -225 q 83 -197 83 -225 q 87 -85 83 -141 q 93 26 92 -29 q 98 259 96 143 q 100 492 100 375 q 98 693 100 593 q 94 895 97 794 q 90 991 93 943 q 87 1087 87 1040 z "},"]":{"ha":636,"x_min":45,"x_max":553,"o":"m 553 -197 q 525 -225 553 -225 l 73 -225 q 45 -197 45 -225 q 48 -145 45 -171 q 51 -93 50 -119 q 52 -66 52 -79 q 54 -40 52 -53 q 61 -19 56 -26 q 82 -13 67 -13 l 235 -13 q 241 -13 238 -13 q 245 -7 245 -12 l 245 -2 q 247 275 245 137 q 248 553 248 414 q 248 725 248 639 q 247 897 247 811 q 238 906 247 906 l 85 906 q 57 925 60 906 q 55 964 55 945 q 52 1025 55 995 q 50 1087 50 1056 q 77 1116 50 1116 l 522 1116 q 549 1087 549 1116 q 546 991 549 1040 q 542 895 543 943 q 538 693 539 794 q 536 492 536 593 q 538 259 536 375 q 543 26 540 143 q 549 -85 545 -29 q 553 -197 553 -141 z "},"(":{"ha":618,"x_min":64,"x_max":570,"o":"m 64 428 q 97 678 64 554 q 196 911 130 802 q 357 1103 261 1021 q 372 1109 365 1109 q 401 1101 378 1109 q 455 1082 425 1093 q 509 1062 484 1072 q 543 1048 534 1052 q 558 1039 550 1044 q 566 1024 566 1034 q 560 1010 566 1016 q 549 998 555 1004 q 379 739 435 878 q 324 434 324 600 q 363 175 324 302 q 485 -56 402 48 q 519 -95 501 -77 q 555 -133 537 -114 q 565 -144 559 -138 q 570 -158 570 -151 q 562 -173 570 -168 q 547 -182 554 -178 q 513 -195 538 -185 q 457 -217 488 -205 q 402 -237 427 -229 q 373 -245 378 -245 q 358 -239 366 -245 q 197 -50 262 -158 q 97 181 131 58 q 64 428 64 304 z "},")":{"ha":618,"x_min":49,"x_max":554,"o":"m 53 1022 q 61 1037 53 1031 q 76 1046 69 1042 q 109 1060 84 1050 q 164 1082 134 1070 q 217 1101 194 1093 q 247 1109 241 1109 q 261 1103 254 1109 q 423 911 358 1020 q 521 678 488 802 q 554 428 554 554 q 521 181 554 303 q 422 -50 488 58 q 260 -239 357 -158 q 245 -245 253 -245 q 214 -237 238 -245 q 161 -218 191 -229 q 107 -197 132 -207 q 73 -182 82 -186 q 57 -174 65 -179 q 49 -159 49 -170 q 54 -145 49 -152 q 64 -134 59 -139 q 239 135 184 -5 q 294 452 294 275 q 237 747 294 612 q 69 996 181 882 q 59 1008 64 1002 q 53 1022 53 1015 z "},"—":{"ha":1299,"x_min":125,"x_max":1174,"o":"m 125 269 q 126 337 125 303 q 129 406 128 372 q 156 433 130 433 l 1143 433 q 1171 406 1169 433 q 1173 337 1172 372 q 1174 269 1174 303 q 1147 241 1174 241 l 152 241 q 125 269 125 241 z "},"–":{"ha":928,"x_min":146,"x_max":775,"o":"m 146 269 q 146 337 146 302 q 149 406 146 372 q 176 433 151 433 l 745 433 q 773 406 771 433 q 775 338 775 372 q 775 269 775 303 q 748 241 775 241 l 174 241 q 146 269 146 241 z "},"-":{"ha":644,"x_min":126,"x_max":511,"o":"m 126 272 q 127 342 126 307 q 127 412 127 376 q 155 439 127 439 l 483 439 q 510 412 510 439 q 511 342 511 376 q 511 272 511 307 q 484 244 511 244 l 153 244 q 126 272 126 244 z "},"‐":{"ha":644,"x_min":126,"x_max":511,"o":"m 126 272 q 127 342 126 307 q 127 412 127 376 q 155 439 127 439 l 483 439 q 510 412 510 439 q 511 342 511 376 q 511 272 511 307 q 484 244 511 244 l 153 244 q 126 272 126 244 z "},"«":{"ha":884,"x_min":41,"x_max":812,"o":"m 673 353 l 675 351 q 736 306 705 329 q 795 259 766 283 q 808 237 807 251 q 811 169 810 203 q 812 102 812 135 q 810 82 812 94 q 796 71 808 71 q 782 76 789 71 q 769 84 774 81 q 604 207 688 141 q 442 335 519 272 q 432 345 437 339 q 427 357 427 351 q 432 370 427 364 q 442 379 437 375 q 514 436 478 408 q 587 492 551 464 q 674 563 631 527 q 762 630 717 599 q 775 637 768 633 q 788 642 782 642 q 803 631 800 642 q 805 611 805 620 q 805 544 805 578 q 804 477 805 511 q 793 454 804 463 q 767 435 786 449 q 727 405 749 421 q 690 375 706 389 q 671 357 673 362 l 673 353 m 420 236 l 418 106 q 416 84 418 97 q 401 72 414 72 q 387 76 394 72 q 375 84 380 80 q 56 335 210 205 q 46 345 51 339 q 41 357 41 350 q 46 370 41 364 q 56 379 52 375 q 129 436 92 408 q 202 492 166 464 q 288 562 245 527 q 376 630 331 597 q 388 637 382 633 q 401 642 395 642 q 416 629 413 642 q 420 608 420 617 l 420 477 q 407 454 420 465 q 383 436 402 450 q 341 405 363 422 q 302 374 319 387 q 286 359 286 361 q 302 342 286 356 q 341 310 318 328 q 382 278 363 292 q 407 259 401 263 q 420 236 420 250 z "},"»":{"ha":884,"x_min":64,"x_max":836,"o":"m 201 358 q 186 376 201 363 q 149 406 170 390 q 110 436 128 422 q 85 454 91 450 q 73 477 73 465 l 73 611 q 75 631 73 619 q 89 642 77 642 q 103 638 96 642 q 115 630 110 633 q 209 558 163 595 q 300 484 254 521 q 368 431 334 458 q 435 379 401 405 q 445 369 440 374 q 450 357 450 364 q 445 345 450 350 q 435 335 441 339 q 358 274 397 304 q 279 214 318 244 q 195 148 237 182 q 109 85 153 115 q 95 77 103 81 q 81 72 87 72 q 67 83 70 72 q 64 102 64 94 q 66 169 64 136 q 70 236 67 203 q 82 259 71 250 q 107 278 88 264 q 148 309 126 292 q 185 339 170 326 q 201 358 201 353 m 459 106 l 459 236 q 471 259 459 250 q 532 307 500 285 q 591 357 564 329 l 591 361 q 559 389 583 372 q 510 425 535 407 q 471 454 484 444 q 459 477 459 465 l 459 608 q 462 629 459 617 q 477 642 465 642 q 490 637 483 642 q 503 630 498 633 q 586 567 545 601 q 667 500 626 532 q 744 440 705 470 q 821 379 783 410 q 831 369 827 374 q 836 357 836 364 q 832 345 836 350 q 823 335 828 339 q 741 270 783 302 q 659 206 699 238 q 581 143 619 175 q 502 83 542 112 q 490 76 497 79 q 477 72 483 72 q 461 85 464 72 q 459 106 459 98 z "},"‹":{"ha":510,"x_min":36,"x_max":442,"o":"m 442 104 q 440 83 442 96 q 425 71 437 71 q 412 74 418 71 q 399 81 405 78 q 297 154 348 117 q 196 229 247 191 q 123 280 160 255 q 52 334 86 306 q 41 343 47 338 q 36 357 36 349 q 41 370 36 365 q 52 380 47 376 q 136 440 94 410 q 219 502 178 471 q 307 570 263 535 q 396 633 350 604 q 409 641 401 637 q 422 644 416 644 q 436 631 434 644 q 438 610 438 618 l 438 479 q 424 454 438 465 q 398 436 418 450 q 353 404 377 421 q 310 374 328 387 q 291 358 292 360 q 295 351 292 355 q 299 349 296 350 q 362 305 331 328 q 425 260 394 282 q 439 235 439 250 l 442 104 z "},"›":{"ha":510,"x_min":61,"x_max":474,"o":"m 61 104 q 62 170 61 136 q 64 235 63 203 q 78 260 64 251 q 105 278 84 264 q 152 311 127 293 q 196 342 178 328 q 214 359 214 356 q 214 361 214 361 q 147 408 181 386 q 79 454 113 431 q 65 479 65 465 l 65 611 q 68 633 65 621 q 84 644 71 644 q 96 641 89 644 q 107 634 103 637 q 204 566 157 603 q 299 494 252 530 q 378 437 338 465 q 458 380 418 409 q 469 370 463 376 q 474 357 474 365 q 469 344 474 349 q 458 334 464 338 q 392 284 427 308 q 323 237 357 260 q 214 158 269 197 q 104 81 159 119 q 92 74 99 78 q 78 71 85 71 q 63 83 65 71 q 61 104 61 95 z "},"„":{"ha":667,"x_min":58,"x_max":632,"o":"m 342 138 q 320 52 342 95 q 262 -24 297 9 q 188 -76 227 -58 q 180 -79 185 -77 l 179 -79 q 177 -80 178 -79 q 174 -80 176 -80 q 136 -73 164 -80 q 83 -54 108 -65 q 58 -29 58 -42 q 74 4 58 -18 q 107 57 90 26 q 126 125 124 87 q 133 150 127 141 q 157 159 139 159 l 316 167 q 342 138 342 168 m 632 136 q 612 51 632 93 q 558 -24 591 9 q 486 -76 525 -58 q 477 -79 484 -77 l 477 -79 q 475 -80 477 -79 q 473 -80 474 -80 q 440 -74 463 -80 q 394 -59 416 -67 q 363 -44 371 -50 q 355 -28 355 -37 q 371 5 355 -16 q 401 56 386 26 q 417 124 417 85 q 423 149 417 140 q 446 159 429 159 q 528 164 486 161 q 609 167 569 167 q 628 158 624 167 q 632 136 632 149 z "},"“":{"ha":667,"x_min":33,"x_max":612,"o":"m 319 892 q 344 978 319 939 q 406 1046 368 1017 q 483 1092 444 1075 q 490 1095 488 1095 q 527 1087 500 1095 q 579 1071 553 1080 q 610 1055 604 1062 q 612 1049 612 1053 q 595 1016 612 1039 q 560 961 578 993 q 541 890 543 928 q 534 865 540 873 q 510 856 528 857 q 427 851 469 853 q 345 848 386 848 q 323 864 326 848 q 319 892 319 879 m 33 896 q 80 1016 33 964 q 186 1092 127 1067 q 197 1095 193 1095 q 233 1087 206 1095 q 285 1070 260 1080 q 315 1055 311 1061 q 318 1048 318 1053 q 302 1014 318 1036 q 269 960 286 991 q 253 890 253 929 q 247 865 253 873 q 223 856 241 857 l 62 848 q 37 864 42 847 q 33 896 33 880 z "},"”":{"ha":667,"x_min":63,"x_max":641,"o":"m 641 1039 q 616 952 641 996 q 555 872 592 908 q 482 819 519 837 q 468 814 474 814 q 434 822 460 814 q 384 839 408 829 q 354 855 359 849 q 352 862 352 859 q 356 875 352 867 q 384 922 370 902 q 407 964 397 942 q 418 1019 416 986 q 426 1044 420 1035 q 450 1054 433 1053 l 615 1061 q 641 1039 641 1063 m 342 1032 q 320 948 342 990 q 263 871 298 905 q 192 819 229 837 q 178 814 184 814 q 144 821 168 814 q 99 836 121 827 q 69 852 77 845 q 63 866 63 858 q 78 900 63 879 q 107 950 92 922 q 121 1015 121 979 q 126 1043 121 1032 q 151 1054 130 1053 l 316 1061 q 337 1054 332 1062 q 342 1032 342 1046 z "},"‘":{"ha":481,"x_min":83,"x_max":372,"o":"m 83 895 q 106 979 83 941 q 166 1046 130 1017 q 241 1092 202 1075 q 252 1095 248 1095 q 287 1087 260 1095 q 340 1070 314 1080 q 370 1055 366 1061 q 372 1048 372 1053 q 355 1014 372 1037 q 321 960 338 991 q 304 890 304 929 q 298 865 304 873 q 274 856 292 857 q 192 851 233 854 q 110 848 151 848 q 87 864 91 848 q 83 895 83 880 z "},"’":{"ha":481,"x_min":111,"x_max":397,"o":"m 397 1034 q 373 949 397 992 q 314 871 350 906 q 242 819 279 836 q 228 814 234 814 q 203 820 222 814 q 166 831 185 825 q 140 840 148 838 q 125 846 134 842 q 113 856 117 849 q 111 862 111 859 q 127 897 111 874 q 159 950 143 919 q 175 1019 175 981 q 181 1044 175 1035 q 205 1054 188 1053 l 371 1061 q 397 1034 397 1062 z "},"‚":{"ha":481,"x_min":111,"x_max":393,"o":"m 393 119 q 372 32 393 74 q 316 -44 351 -11 q 242 -97 282 -78 q 234 -100 239 -98 l 233 -100 q 231 -101 233 -100 q 229 -101 230 -101 q 189 -94 218 -101 q 135 -75 160 -87 q 111 -51 111 -64 q 126 -17 111 -39 q 158 36 142 5 q 176 104 174 66 q 183 129 178 119 q 206 138 189 138 q 288 143 246 140 q 370 146 329 146 q 393 119 393 146 z "}," ":{"ha":347,"x_min":0,"x_max":0,"o":""}," ":{"ha":347,"x_min":0,"x_max":0,"o":""},"¢":{"ha":546,"x_min":32,"x_max":511,"o":"m 32 306 q 47 431 32 368 q 96 546 62 493 q 187 631 130 599 q 210 641 195 635 q 240 652 226 647 q 257 659 255 657 q 262 668 261 662 q 263 680 263 675 q 262 696 263 688 q 261 712 261 704 q 267 735 261 726 q 290 745 273 745 l 355 745 q 383 717 383 745 q 382 689 383 703 q 382 661 381 674 q 387 653 382 656 q 389 652 388 652 q 391 652 390 652 q 450 629 421 642 q 502 592 479 616 q 508 586 505 589 q 511 578 511 583 q 499 550 511 571 q 472 506 488 530 q 440 465 456 482 q 416 448 425 448 q 401 456 407 448 q 389 465 395 465 l 385 465 q 382 456 382 462 q 382 319 382 388 q 383 182 383 251 q 389 174 383 176 q 402 182 395 176 q 414 189 409 189 q 432 171 417 189 q 465 129 447 153 q 497 85 484 105 q 511 59 511 64 q 494 33 511 44 q 454 13 477 22 q 412 -1 431 5 q 389 -11 393 -7 q 386 -18 386 -14 l 387 -73 q 359 -100 389 -100 l 290 -100 q 261 -67 261 -100 q 262 -50 261 -58 q 263 -33 263 -42 q 262 -22 263 -28 q 257 -12 260 -15 q 238 -5 256 -11 q 201 6 220 0 q 172 18 181 13 q 63 138 95 61 q 32 300 32 216 l 32 306 m 262 211 l 262 442 q 242 385 248 415 q 237 323 237 354 q 242 266 237 294 q 262 211 248 237 z "},"¤":{"ha":828,"x_min":99,"x_max":732,"o":"m 724 699 q 712 679 724 684 q 692 662 699 673 l 693 656 q 732 522 732 592 q 720 459 732 486 q 692 401 707 432 l 690 398 l 690 393 q 710 375 696 384 q 724 356 724 366 q 713 334 724 345 q 687 311 707 330 q 648 276 667 293 q 622 260 628 260 q 594 273 605 260 q 569 292 583 286 l 565 292 q 485 268 526 275 q 403 261 445 261 q 352 266 377 261 q 302 277 326 271 q 281 284 297 279 q 262 290 265 290 l 258 290 q 234 272 245 285 q 208 259 222 259 q 191 267 199 259 q 164 289 185 271 q 123 325 142 307 q 104 350 104 344 q 117 373 104 366 q 138 391 130 380 l 138 397 q 138 399 138 398 q 137 401 138 400 q 131 412 134 406 q 124 423 127 418 q 106 473 113 447 q 99 525 99 498 q 103 573 99 555 q 115 608 107 591 q 134 650 123 625 l 136 654 l 135 659 q 116 676 129 669 q 102 698 102 684 q 106 706 102 703 q 112 713 109 710 q 138 737 118 718 q 178 773 158 756 q 204 790 198 790 q 230 780 217 790 q 252 762 243 770 l 255 761 l 259 761 q 337 785 298 777 q 419 793 376 793 q 478 787 449 793 q 534 773 507 782 q 551 767 543 770 q 567 762 559 764 q 572 762 568 762 q 595 779 583 767 q 620 791 606 791 q 637 783 628 791 q 664 760 643 779 q 705 724 686 742 q 724 699 724 705 m 261 526 q 286 459 261 487 q 346 415 310 431 q 416 399 381 399 q 487 415 452 399 q 545 459 522 431 q 568 527 568 488 q 544 595 568 566 q 486 638 521 623 q 415 654 451 654 q 343 638 379 654 q 284 594 308 623 q 261 526 261 566 z "},"$":{"ha":747,"x_min":36,"x_max":724,"o":"m 306 -100 q 278 -73 278 -100 q 279 -41 278 -57 q 279 -9 279 -24 q 273 -3 277 -5 q 154 32 212 14 q 47 92 96 50 q 36 109 36 100 q 46 136 36 115 q 71 183 56 157 q 97 231 85 209 q 115 259 110 252 q 123 270 117 263 q 134 276 129 276 q 172 259 146 276 q 228 225 199 242 q 275 209 257 209 q 282 218 282 209 q 282 338 282 278 q 283 458 283 399 q 279 466 283 464 q 168 547 212 507 q 103 641 124 587 q 82 777 82 695 q 123 944 82 869 q 251 1058 165 1019 q 282 1068 260 1063 q 323 1079 304 1074 q 343 1085 342 1084 q 347 1092 347 1087 q 345 1130 347 1108 q 348 1168 343 1152 q 374 1184 353 1184 l 451 1184 q 479 1156 479 1184 q 478 1125 479 1141 q 477 1093 477 1109 q 483 1085 477 1088 l 489 1084 q 608 1053 552 1072 q 713 991 663 1033 q 720 984 716 988 q 724 974 724 979 q 714 948 724 969 q 692 902 705 928 q 668 854 679 876 q 652 825 656 832 q 637 809 646 812 q 635 809 636 809 q 632 808 633 808 q 592 824 621 808 q 532 855 564 840 q 481 870 501 870 q 475 862 475 870 q 474 748 475 805 q 473 635 473 692 q 473 632 473 633 q 473 629 473 631 l 478 625 l 481 623 q 645 505 591 576 q 699 312 699 435 q 654 132 699 213 q 513 14 608 52 q 481 5 505 10 q 436 -5 457 -1 q 414 -10 415 -9 q 409 -20 410 -14 q 408 -32 408 -26 q 409 -49 408 -41 q 410 -66 410 -58 q 404 -91 410 -81 q 381 -100 398 -100 l 306 -100 m 348 703 q 347 781 348 742 q 347 860 347 821 q 319 825 328 847 q 311 780 311 802 q 321 738 311 757 q 348 703 332 718 m 408 398 l 408 205 q 471 290 471 224 q 452 351 471 323 q 408 398 433 380 z "},"€":{"ha":703,"x_min":-35,"x_max":738,"o":"m -34 713 q -23 737 -35 731 q 3 743 -12 743 q 28 742 16 743 q 53 740 40 740 q 65 741 58 740 q 76 747 72 742 q 81 761 76 747 q 92 795 85 776 q 104 832 98 815 q 112 854 110 849 q 250 1028 161 965 q 461 1092 338 1092 q 592 1072 524 1092 q 709 1010 661 1051 q 720 993 720 1002 q 711 966 720 989 q 689 914 702 943 q 666 860 677 884 q 652 828 655 836 q 643 813 649 823 q 630 804 637 804 q 596 821 618 804 q 541 856 574 839 q 460 873 507 873 q 401 855 430 873 q 351 808 372 836 q 319 754 329 781 q 318 746 318 751 q 321 742 318 743 q 326 741 325 741 l 393 741 q 420 713 420 741 l 419 607 q 392 579 419 579 l 286 579 q 279 572 280 579 q 277 560 277 564 q 277 530 277 546 q 279 500 276 514 q 283 495 279 496 q 290 495 287 495 l 392 495 q 419 467 419 495 l 419 359 q 389 332 419 332 q 369 333 379 332 q 349 334 359 334 q 334 333 342 334 q 319 328 326 332 l 319 322 q 382 239 342 271 q 481 207 422 207 q 552 219 515 207 q 616 254 589 231 q 630 264 621 257 q 644 271 639 271 q 662 262 656 271 q 671 245 667 254 q 685 215 675 237 q 708 166 696 193 q 729 120 720 140 q 738 94 738 99 q 731 79 738 87 q 660 29 703 50 q 569 -1 616 9 q 481 -12 522 -12 q 270 47 360 -12 q 127 214 180 106 q 105 266 114 240 q 87 319 96 292 q 79 328 85 326 q 60 332 71 332 q 41 332 50 332 q 12 331 29 332 q -18 335 -5 330 q -31 359 -31 340 q -32 413 -31 386 q -31 467 -32 441 q -20 490 -29 484 q 4 496 -12 496 q 20 495 12 496 q 37 494 28 494 q 51 496 43 494 q 58 506 58 498 q 58 538 58 522 q 58 570 58 554 q 49 579 58 579 l -5 579 q -32 607 -31 579 l -34 713 z "},"ƒ":{"ha":705,"x_min":-46,"x_max":728,"o":"m 93 625 q 120 653 93 653 l 208 653 q 218 664 218 653 l 218 756 q 308 1017 218 924 q 555 1143 397 1109 q 628 1156 591 1151 q 701 1161 665 1161 q 728 1136 728 1161 q 725 1081 728 1109 q 721 1026 722 1054 q 720 992 720 1009 q 717 960 719 976 q 710 940 715 945 q 690 932 705 935 q 658 928 674 930 q 626 923 642 926 q 512 866 554 907 q 469 747 469 825 q 469 705 469 726 q 468 661 468 683 q 475 653 468 653 l 666 653 q 693 625 693 653 q 693 568 693 597 q 692 511 692 540 q 693 488 692 500 q 692 465 694 476 q 665 437 690 437 l 479 437 q 472 436 476 437 q 468 431 468 435 q 469 292 468 361 q 469 152 469 222 q 432 -40 469 36 q 327 -160 394 -116 q 172 -222 260 -203 q -18 -240 83 -240 q -46 -215 -46 -240 q -43 -161 -46 -188 q -39 -106 -40 -134 q -37 -73 -37 -90 q -35 -40 -37 -56 q -27 -21 -33 -26 q -7 -13 -22 -16 q 25 -8 9 -10 q 58 -3 42 -7 q 174 54 132 12 q 217 174 217 96 q 218 301 217 238 q 220 429 220 365 q 208 437 220 437 l 121 437 q 94 465 95 437 q 93 545 92 505 q 93 625 93 585 z "},"£":{"ha":761,"x_min":56,"x_max":728,"o":"m 728 191 q 709 99 728 142 q 654 27 690 55 q 565 0 618 0 l 83 0 q 56 28 56 0 q 57 115 56 71 q 62 201 58 159 q 72 223 64 218 q 94 228 79 228 q 110 227 102 228 q 125 227 117 227 q 160 242 151 227 q 172 279 170 258 q 174 319 174 301 l 175 390 q 175 393 175 391 q 174 395 174 394 q 166 401 172 400 q 156 401 161 401 q 120 402 137 401 q 102 429 104 402 q 101 513 100 471 q 101 598 101 556 q 132 626 101 626 q 157 625 139 626 q 174 636 174 624 q 173 723 174 680 q 172 810 172 766 l 172 827 q 213 969 174 909 q 317 1063 252 1029 q 462 1096 382 1096 q 614 1061 544 1096 q 720 949 684 1027 q 724 937 724 943 q 711 917 724 926 q 671 886 699 908 q 615 845 643 864 q 575 827 588 827 q 549 837 562 827 q 519 858 536 848 q 474 869 502 869 q 419 848 438 869 q 393 798 400 828 q 387 739 387 768 l 387 637 q 387 630 387 634 q 392 626 387 627 q 429 625 403 625 q 483 625 456 625 q 524 626 510 626 q 551 598 551 626 q 551 513 551 556 q 550 429 551 471 q 523 401 549 401 q 483 401 510 401 q 429 402 456 402 q 392 401 403 402 q 387 397 387 400 q 387 390 387 393 l 387 335 q 384 287 387 310 q 374 239 381 263 q 374 237 374 239 q 373 234 373 235 q 380 227 373 227 l 521 227 q 535 239 531 227 q 541 266 540 252 q 541 287 541 280 q 543 312 541 300 q 563 324 544 323 l 696 326 q 725 299 723 326 q 727 245 726 272 q 728 191 728 218 z "},"¥":{"ha":1116,"x_min":22,"x_max":1093,"o":"m 273 343 q 274 391 273 367 q 275 439 274 416 q 302 467 276 467 q 325 467 307 467 q 365 467 343 467 q 403 467 387 467 q 422 468 420 467 l 425 472 l 425 473 q 424 476 425 475 q 421 479 422 477 q 234 762 331 623 q 35 1038 136 901 q 27 1050 31 1043 q 22 1065 22 1058 q 35 1080 22 1077 q 56 1082 47 1082 l 283 1082 q 307 1071 296 1082 q 341 1026 325 1050 q 373 979 357 1002 q 465 847 420 913 q 555 714 509 781 l 562 710 l 568 715 q 649 836 608 775 q 730 956 689 896 q 769 1014 749 985 q 810 1070 789 1043 q 832 1082 819 1082 l 1059 1082 q 1081 1080 1068 1082 q 1093 1065 1093 1077 q 1088 1050 1093 1058 q 1080 1038 1084 1043 q 935 842 1007 940 q 794 642 863 743 q 738 560 766 602 q 684 476 710 518 q 682 471 682 472 q 684 469 682 470 q 692 467 689 467 l 838 467 q 865 439 865 467 q 866 391 865 416 q 866 343 866 367 q 839 315 866 315 l 680 315 q 668 307 668 315 l 669 248 q 671 239 669 241 q 680 237 672 237 l 842 237 q 869 210 868 237 l 871 116 q 844 87 873 87 l 682 87 q 675 87 679 87 q 671 82 671 86 q 672 48 671 68 q 669 15 674 29 q 644 0 664 0 l 463 0 q 435 28 435 0 q 437 55 435 41 q 437 82 439 69 q 433 87 436 87 q 426 87 429 87 l 298 87 q 271 116 269 87 l 273 210 q 300 237 274 237 l 427 237 q 437 239 435 237 q 438 248 438 241 l 439 307 q 428 315 439 315 l 300 315 q 273 343 273 315 z "},"+":{"ha":751,"x_min":73,"x_max":671,"o":"m 73 275 q 74 344 73 309 q 75 413 75 378 q 102 441 75 441 l 260 441 q 269 449 269 441 l 269 586 q 296 614 269 614 l 448 614 q 475 586 475 614 l 475 449 q 484 441 475 441 l 642 441 q 669 413 669 441 q 670 344 669 378 q 671 275 671 309 q 644 247 671 247 l 485 247 q 477 239 477 247 q 477 172 477 205 q 478 104 478 138 q 450 76 478 76 l 294 76 q 266 104 266 76 q 267 172 266 138 q 267 239 267 205 q 259 247 267 247 l 100 247 q 73 275 73 247 z "},"­":{"ha":610,"x_min":66,"x_max":545,"o":"m 66 243 q 67 313 66 279 q 68 383 68 348 q 96 411 68 411 l 515 411 q 543 383 543 411 q 544 313 543 348 q 545 243 545 279 q 517 216 545 216 l 94 216 q 66 243 66 216 z "},"−":{"ha":610,"x_min":66,"x_max":545,"o":"m 66 243 q 67 313 66 279 q 68 383 68 348 q 96 411 68 411 l 515 411 q 543 383 543 411 q 544 313 543 348 q 545 243 545 279 q 517 216 545 216 l 94 216 q 66 243 66 216 z "},"×":{"ha":751,"x_min":91,"x_max":694,"o":"m 91 397 q 101 418 91 408 q 170 489 135 454 q 241 557 205 524 q 258 565 250 565 q 290 549 270 565 q 331 513 310 534 q 370 477 352 493 q 395 462 387 462 q 418 477 401 462 q 455 511 435 492 q 494 545 475 530 q 525 559 513 559 q 534 556 530 559 q 541 551 538 553 q 607 485 575 519 q 671 416 639 450 q 679 407 675 412 q 683 395 683 401 q 668 372 683 387 q 633 341 653 357 q 596 310 612 325 q 578 287 580 296 q 603 263 585 278 q 642 230 621 248 q 679 198 663 213 q 694 176 694 184 q 690 165 694 170 q 683 156 687 160 q 653 126 676 149 q 603 75 631 102 q 553 28 576 48 q 526 9 531 9 q 495 23 515 9 q 453 56 475 37 q 412 90 431 75 q 387 104 394 104 q 364 90 380 104 q 327 58 347 77 q 288 26 307 40 q 257 13 269 13 q 230 32 252 13 q 182 77 209 51 q 133 125 155 102 q 104 155 111 148 q 94 175 94 165 q 111 199 94 184 q 150 231 128 214 q 189 261 172 247 q 205 283 205 275 q 188 306 205 292 q 148 338 171 321 q 108 371 125 355 q 91 397 91 387 z "},"÷":{"ha":568,"x_min":58,"x_max":507,"o":"m 183 642 q 212 720 183 684 q 286 755 241 755 q 360 719 331 755 q 389 640 389 683 q 359 563 389 598 q 285 528 329 528 q 211 564 239 528 q 183 642 183 600 m 58 332 q 58 401 58 367 q 58 470 58 435 q 85 498 58 498 l 479 498 q 507 470 507 498 q 507 401 507 435 q 507 332 507 367 q 480 304 507 304 l 85 304 q 58 332 58 304 m 182 168 q 211 249 182 212 q 286 286 239 286 q 359 249 329 286 q 390 171 390 212 q 360 92 390 127 q 285 57 330 57 q 211 91 240 57 q 182 168 182 125 z "},"=":{"ha":732,"x_min":74,"x_max":655,"o":"m 81 580 q 108 608 81 608 l 623 608 q 651 580 651 608 q 651 513 651 547 q 650 446 650 480 q 623 418 650 418 l 108 418 q 81 446 81 418 l 81 580 m 75 158 l 79 291 q 106 318 80 318 l 624 318 q 652 291 651 318 q 654 224 653 258 q 655 158 655 191 q 628 130 655 130 l 102 130 q 75 158 74 130 z "},"≠":{"ha":612,"x_min":6,"x_max":598,"o":"m 20 583 q 28 601 20 595 q 47 608 37 608 l 361 608 q 375 614 368 608 q 394 641 378 617 q 430 695 410 664 q 466 751 450 726 q 486 783 482 777 q 511 799 496 799 q 520 795 516 799 q 528 788 525 791 q 551 768 534 783 q 583 736 568 752 q 598 713 598 720 q 585 679 598 700 q 557 640 571 659 q 543 614 543 621 q 549 608 543 609 q 557 608 555 608 q 580 606 569 608 q 591 588 591 604 q 590 517 591 553 q 589 446 589 482 q 562 418 589 418 q 532 419 555 418 q 482 420 509 420 q 434 419 455 420 q 410 414 414 418 q 389 389 403 407 q 362 352 374 371 q 349 323 351 334 q 352 319 348 321 q 358 318 356 318 l 564 318 q 591 291 591 318 q 594 224 593 258 q 595 158 595 191 q 568 130 595 130 q 521 131 559 130 q 432 131 483 131 q 333 131 382 131 q 251 130 284 131 q 215 128 217 130 q 197 106 210 124 q 169 65 184 88 q 140 21 153 41 q 121 -7 127 1 q 112 -18 117 -14 q 99 -23 106 -23 q 79 -13 89 -23 l 16 46 q 6 66 6 56 q 20 95 6 77 q 38 125 33 113 l 37 128 q 30 130 35 130 q 20 130 26 130 q 15 137 15 130 l 19 291 q 43 318 20 318 l 163 318 q 189 339 172 318 q 221 384 206 360 q 235 416 235 408 q 207 419 233 418 q 147 419 181 420 q 84 419 113 419 q 47 418 55 418 q 20 443 20 418 l 20 583 z "},">":{"ha":618,"x_min":59,"x_max":570,"o":"m 59 31 q 60 84 59 58 q 62 138 62 111 q 63 177 63 157 q 64 215 62 196 q 73 235 65 227 q 96 259 79 242 q 135 297 114 277 q 170 335 155 318 q 185 357 185 351 q 171 379 185 363 q 136 417 156 396 q 98 455 115 437 q 75 479 81 473 q 67 499 68 488 q 65 589 65 544 q 66 679 66 634 q 68 699 66 688 q 82 709 71 709 q 96 706 90 709 q 109 699 102 703 q 232 612 171 657 q 353 524 292 568 q 455 452 404 488 q 555 378 507 417 q 566 369 561 374 q 570 356 570 363 q 566 343 570 349 q 555 333 561 338 q 527 312 542 322 q 498 292 512 302 q 432 245 465 269 q 367 198 399 222 q 235 103 301 151 q 102 11 170 56 q 90 3 96 7 q 75 -1 83 -1 q 61 11 64 -1 q 59 31 59 22 z "},"<":{"ha":618,"x_min":47,"x_max":559,"o":"m 552 678 q 552 587 552 633 q 551 496 553 542 q 544 477 551 487 q 521 452 538 470 q 483 414 503 435 q 448 377 463 393 q 433 355 433 361 q 448 333 433 350 q 484 296 463 316 q 522 258 504 275 q 545 233 539 241 q 553 214 553 224 q 555 178 555 196 q 555 142 555 159 q 557 87 556 115 q 559 31 559 59 q 556 11 559 22 q 543 -1 554 -1 q 529 3 535 -1 q 516 11 522 7 q 383 103 449 57 q 250 197 317 150 q 155 263 204 231 q 62 332 106 296 q 53 341 58 336 q 47 354 47 347 q 53 367 47 361 q 62 376 58 372 q 156 445 108 412 q 250 512 203 478 q 380 605 315 559 q 510 698 445 652 q 522 706 516 702 q 536 709 528 709 q 550 698 547 709 q 552 678 552 686 z "},"≥":{"ha":473,"x_min":-9,"x_max":502,"o":"m 123 682 q 107 707 123 688 q 69 749 91 726 q 28 793 47 773 q 3 822 9 814 q -4 841 -3 830 q -9 927 -8 880 q -9 1013 -9 973 q -7 1035 -9 1023 q 9 1046 -4 1046 q 46 1025 15 1046 q 125 969 78 1004 q 224 895 172 935 q 327 818 277 855 q 412 751 376 780 q 463 712 449 723 q 473 703 468 707 q 478 690 478 698 q 473 677 478 683 q 463 668 467 671 q 382 606 423 636 q 300 545 340 576 q 173 446 236 496 q 44 349 109 396 q 32 341 41 347 q 20 336 24 336 q 3 347 6 336 q 1 369 1 358 q 0 454 1 412 q 0 540 0 497 q 8 559 0 550 q 32 584 14 566 q 71 623 50 602 q 107 661 92 644 q 123 682 123 677 m -7 83 q -6 151 -7 117 q -3 217 -5 184 q 24 245 -2 245 l 469 245 q 496 217 495 245 l 500 83 q 473 55 502 55 l 20 55 q -7 83 -7 55 z "},"≤":{"ha":473,"x_min":-12,"x_max":490,"o":"m 465 371 q 463 349 465 362 q 448 336 461 336 q 434 341 441 336 q 422 349 427 345 q 293 446 356 395 q 165 545 230 496 q 84 606 125 576 q 3 668 43 637 q -7 677 -1 672 q -12 690 -12 682 q -7 702 -12 697 q 3 712 -2 707 q 84 775 43 745 q 165 837 125 806 q 297 936 231 887 q 431 1033 363 985 q 443 1041 435 1036 q 456 1046 451 1046 q 472 1035 469 1046 q 475 1013 475 1023 q 474 974 475 1002 q 473 915 474 947 q 471 859 473 884 q 465 825 469 833 q 446 796 461 816 q 414 754 431 777 q 384 712 397 731 q 371 687 371 694 q 385 659 371 678 q 418 617 399 640 q 451 571 437 593 q 465 534 465 549 l 465 371 m 12 83 q 13 150 12 117 q 16 217 14 184 q 43 245 17 245 l 456 245 q 484 217 483 245 l 488 83 q 461 55 490 55 l 39 55 q 12 83 12 55 z "},"±":{"ha":568,"x_min":66,"x_max":509,"o":"m 193 684 q 193 744 193 714 q 192 805 192 774 q 194 837 192 822 q 220 852 197 852 l 355 852 q 383 824 383 852 q 382 757 383 791 q 382 689 382 723 l 382 684 q 386 679 382 680 q 393 679 390 679 l 477 679 q 504 651 504 679 q 504 582 504 616 q 503 512 503 547 q 475 484 503 484 l 392 484 q 380 476 380 484 q 382 409 380 443 q 382 342 383 376 q 354 315 380 315 l 221 315 q 193 342 193 315 q 194 408 193 375 q 194 473 194 441 l 194 479 q 190 484 193 484 q 183 484 186 484 l 99 484 q 72 512 72 484 q 71 582 71 547 q 71 651 71 616 q 98 679 71 679 l 182 679 q 189 680 185 679 q 193 684 193 680 m 66 104 q 68 176 66 140 q 70 247 69 212 q 98 275 71 275 l 477 275 q 504 247 503 275 l 508 104 q 480 77 509 77 l 94 77 q 66 104 66 77 z "},"≈":{"ha":701,"x_min":20,"x_max":675,"o":"m 675 614 q 655 502 675 556 q 594 413 635 448 q 486 378 552 378 q 410 393 443 378 q 350 428 378 407 q 292 467 321 448 q 224 495 262 486 q 223 495 224 495 q 221 496 222 496 q 178 467 189 496 q 164 414 168 439 q 157 391 163 399 q 134 382 152 382 l 55 382 q 34 392 39 382 q 29 414 29 401 q 52 535 29 478 q 121 629 75 593 q 238 666 168 666 q 324 642 288 666 q 393 589 360 618 q 469 545 427 560 q 477 542 470 544 q 486 540 484 540 q 527 569 517 540 q 536 622 536 597 q 541 649 536 637 q 565 660 545 660 l 648 660 q 672 645 668 660 q 675 614 675 629 m 675 286 q 654 179 675 229 q 592 98 633 129 q 489 67 551 67 q 410 81 444 67 q 348 116 376 96 q 290 156 319 137 q 221 185 260 175 q 219 185 220 185 q 218 186 218 186 q 174 157 184 186 q 159 102 163 128 q 151 79 156 87 q 128 71 145 71 q 87 71 108 71 q 46 71 66 71 q 20 100 20 71 q 45 222 20 164 q 119 317 71 280 q 236 354 167 354 q 320 332 285 354 q 387 282 355 309 q 460 237 420 254 q 473 233 463 236 q 485 229 482 229 q 526 258 517 229 q 536 312 536 287 q 541 338 536 328 q 564 348 545 348 l 646 348 q 673 326 670 348 q 675 286 675 303 z "},"~":{"ha":822,"x_min":28,"x_max":802,"o":"m 802 856 q 739 679 802 748 q 566 610 676 610 q 465 631 509 610 q 380 678 421 652 q 289 720 339 704 q 273 724 286 721 q 258 727 261 727 q 206 703 221 727 q 186 647 191 679 q 179 623 184 631 q 156 615 174 615 l 55 615 q 31 630 34 615 q 28 661 28 646 q 61 787 28 734 q 150 869 94 840 q 277 898 206 898 q 373 875 331 898 q 456 824 416 852 q 543 779 496 796 q 557 775 546 779 q 572 771 568 771 q 623 801 613 771 q 637 861 633 830 q 644 884 639 876 q 667 892 650 892 l 774 892 q 797 881 792 892 q 802 856 802 870 z "},"¬":{"ha":639,"x_min":45,"x_max":597,"o":"m 45 298 q 46 383 45 340 q 47 467 47 425 q 75 495 47 495 l 564 495 q 592 467 592 495 q 594 311 592 389 q 597 153 597 232 q 570 124 597 124 l 393 124 q 366 153 366 124 l 366 262 q 357 271 366 271 l 72 271 q 45 298 45 271 z "},"∞":{"ha":861,"x_min":37,"x_max":825,"o":"m 825 458 q 794 368 825 404 q 716 315 763 332 q 623 297 670 297 q 527 311 571 297 q 437 349 483 325 l 434 350 q 425 349 430 351 q 334 310 376 323 q 235 297 292 297 q 144 315 190 297 q 67 368 98 333 q 37 454 37 404 q 68 544 37 509 q 146 596 99 579 q 239 614 193 614 q 336 600 294 614 q 426 562 378 586 q 428 562 427 562 q 430 561 429 561 l 435 561 l 438 562 q 528 600 484 587 q 625 614 572 614 q 716 596 670 614 q 793 545 762 579 q 825 458 825 510 m 366 453 q 340 482 366 473 q 284 495 315 492 q 240 498 254 498 q 192 492 217 498 q 166 454 166 486 q 193 417 166 423 q 243 411 220 411 q 286 414 256 411 q 341 426 315 417 q 366 453 366 435 m 497 453 q 523 426 497 435 q 578 414 548 417 q 620 411 608 411 q 669 417 643 411 q 696 454 696 424 q 670 492 696 486 q 620 498 644 498 q 577 495 606 498 q 522 481 547 491 q 497 453 497 472 z "},"∫":{"ha":330,"x_min":-45,"x_max":348,"o":"m 324 924 q 311 924 317 924 q 299 925 305 925 q 262 904 273 924 q 250 857 252 884 q 248 812 248 831 q 247 731 248 772 q 245 649 245 690 q 248 280 245 465 q 250 -89 250 96 q 215 -198 250 -169 q 104 -227 180 -227 q 84 -227 94 -227 q 65 -227 75 -227 l -17 -227 q -45 -201 -45 -227 q -43 -149 -45 -176 q -41 -97 -41 -123 q -41 -74 -41 -85 q -39 -52 -41 -62 q -18 -35 -37 -35 q -5 -35 -12 -35 q 7 -35 1 -35 q 41 -18 30 -35 q 56 23 52 -1 q 59 71 59 47 q 60 111 59 95 q 62 223 62 167 q 62 335 62 279 q 61 643 62 489 q 60 951 60 797 q 70 1043 60 1006 q 112 1098 81 1080 q 203 1116 142 1116 q 222 1115 213 1116 q 239 1114 231 1114 l 321 1114 q 348 1090 348 1114 q 347 1038 348 1064 q 345 986 345 1012 q 345 964 345 975 q 344 941 345 953 q 324 924 341 924 z "},"∏":{"ha":545,"x_min":20,"x_max":500,"o":"m 20 1092 q 48 1120 20 1120 l 473 1120 q 500 1092 500 1120 q 497 995 500 1044 q 493 898 494 946 q 489 695 490 797 q 488 492 488 593 q 489 289 488 391 q 493 86 490 188 q 497 -11 494 38 q 500 -108 500 -60 q 472 -136 500 -136 l 338 -136 q 310 -109 310 -136 q 309 194 310 43 q 308 496 308 345 q 309 710 308 603 q 309 923 309 817 q 301 932 309 932 l 222 932 q 213 923 213 932 q 213 740 213 831 q 214 557 214 649 q 214 332 214 445 q 213 106 214 220 l 212 -44 q 212 -76 212 -60 q 212 -109 213 -93 q 205 -130 211 -123 q 184 -136 199 -136 l 48 -136 q 21 -111 21 -136 q 24 -13 21 -62 q 28 86 26 37 q 33 289 31 188 q 35 492 35 391 q 33 695 35 593 q 28 898 31 797 q 23 995 26 946 q 20 1092 20 1044 z "},"∑":{"ha":496,"x_min":-25,"x_max":520,"o":"m 111 484 l 111 490 q 93 586 104 538 q 71 682 81 635 q -23 1084 28 882 q -24 1091 -24 1087 q -25 1098 -25 1095 q -17 1116 -25 1112 q 3 1120 -8 1120 l 494 1120 q 512 1117 503 1120 q 520 1102 520 1113 q 515 1076 520 1097 q 503 1029 510 1055 q 489 981 495 1003 q 479 953 482 960 q 470 937 475 942 q 452 932 465 932 l 232 932 q 224 925 224 932 q 224 924 224 924 q 224 922 224 923 q 266 707 245 814 q 307 492 286 600 q 307 491 307 492 q 307 490 307 490 q 307 481 307 484 q 265 268 286 375 q 224 53 244 160 q 224 52 224 52 q 224 50 224 51 q 232 41 224 41 l 452 41 q 470 36 465 41 q 479 20 475 31 q 489 -9 482 13 q 503 -56 495 -31 q 515 -102 510 -81 q 520 -129 520 -123 q 511 -143 520 -139 q 494 -146 502 -146 l 3 -146 q -16 -143 -6 -146 q -25 -127 -25 -139 q -24 -119 -25 -123 q -23 -112 -24 -115 q -5 -35 -15 -73 q 14 41 5 3 q 47 185 31 113 q 79 330 64 258 q 103 446 92 388 l 111 484 z "},"√":{"ha":1320,"x_min":132,"x_max":1157,"o":"m 570 227 l 573 227 q 576 229 574 228 q 578 232 578 231 q 593 255 586 243 q 607 277 600 267 q 640 331 624 304 q 673 385 656 357 q 770 546 722 465 q 869 707 819 627 q 912 776 890 741 q 955 844 933 810 q 974 874 964 859 q 994 902 983 889 q 1004 911 1000 908 q 1017 915 1008 915 l 1124 915 q 1145 912 1134 915 q 1157 897 1157 909 q 1154 883 1157 890 q 1147 871 1150 877 q 1091 785 1120 828 q 1034 699 1062 743 q 857 409 944 555 q 682 118 770 263 q 638 45 660 82 q 591 -27 616 7 q 582 -39 587 -33 q 568 -45 576 -45 q 554 -39 559 -45 q 545 -27 549 -33 q 515 18 530 -5 q 487 63 501 41 q 422 168 454 115 q 358 271 390 220 q 328 321 343 296 q 296 370 313 346 q 269 378 291 378 q 237 379 247 379 q 202 378 220 379 q 168 378 185 378 q 134 394 135 378 q 132 435 132 410 q 134 472 132 453 q 160 491 136 491 l 382 491 q 404 479 394 491 q 429 443 418 463 q 452 406 440 424 q 493 342 473 374 q 534 277 513 309 q 549 254 542 266 q 564 232 556 242 q 567 229 566 231 q 570 227 568 228 z "},"%":{"ha":1206,"x_min":40,"x_max":1166,"o":"m 289 442 q 143 486 197 442 q 64 599 88 529 q 40 751 40 669 q 97 940 40 867 q 276 1013 153 1013 q 420 974 364 1013 q 504 870 477 935 q 531 722 531 804 q 506 582 531 645 q 427 480 480 518 q 289 442 373 442 m 1060 1012 q 1082 1010 1069 1012 q 1095 994 1095 1008 q 1090 980 1095 987 q 1081 966 1085 972 q 1008 874 1046 920 q 935 782 971 829 q 694 457 812 621 q 455 132 576 294 q 409 68 432 101 q 360 7 386 35 q 337 -3 351 -3 l 186 -1 q 164 1 178 -1 q 151 16 151 3 q 156 31 151 24 q 165 44 161 39 q 237 137 201 91 q 309 229 273 182 q 536 539 425 382 q 764 848 648 695 q 823 925 793 886 q 883 1001 852 965 q 905 1012 893 1012 l 1060 1012 m 233 770 q 233 727 233 755 q 237 669 233 699 q 253 619 241 640 q 288 599 264 599 q 322 617 312 599 q 335 660 332 636 q 338 700 338 684 q 338 742 338 716 q 334 793 338 767 q 318 836 330 819 q 283 854 307 854 q 241 825 249 854 q 233 770 233 796 m 945 -45 q 795 -7 855 -45 q 706 98 736 31 q 675 249 675 164 q 705 390 675 328 q 791 489 734 452 q 930 525 848 525 q 1075 480 1023 525 q 1146 363 1126 435 q 1166 212 1166 292 q 1144 79 1166 138 q 1075 -12 1123 21 q 945 -45 1027 -45 m 868 275 q 868 232 868 259 q 873 178 869 205 q 889 131 878 150 q 924 112 901 112 q 955 127 945 112 q 968 163 965 142 q 971 199 971 184 q 972 243 971 216 q 969 299 972 271 q 954 346 966 327 q 918 366 943 366 q 883 350 893 366 q 870 314 873 335 q 868 275 868 293 z "},"‰":{"ha":1556,"x_min":44,"x_max":1513,"o":"m 267 442 q 155 472 199 442 q 87 549 112 501 q 54 654 63 597 q 44 766 44 711 q 63 890 44 834 q 125 979 81 945 q 245 1013 169 1013 q 383 969 332 1013 q 456 857 434 925 q 479 712 479 788 q 458 582 479 644 q 391 481 437 520 q 267 442 345 442 m 949 1012 q 970 1009 958 1012 q 982 994 982 1007 q 978 981 982 987 q 971 968 975 974 q 908 875 941 921 q 845 783 876 829 q 642 472 743 627 q 436 163 541 316 q 383 84 410 124 q 327 9 357 45 q 304 -3 317 -3 l 159 -1 q 139 2 151 -1 q 127 18 127 5 q 131 32 127 24 q 139 43 136 39 q 205 135 172 90 q 271 227 239 180 q 476 534 377 378 q 675 845 574 690 q 725 924 698 880 q 777 1000 751 968 q 800 1012 787 1012 l 949 1012 m 227 795 q 228 761 227 778 q 229 727 229 744 q 230 696 230 718 q 233 653 231 675 q 243 614 236 630 q 265 597 251 597 q 286 612 280 597 q 294 645 292 627 q 295 673 295 663 q 295 700 295 686 q 294 727 295 713 q 293 757 293 736 q 290 800 292 777 q 280 838 287 822 q 258 854 273 854 q 231 832 235 854 q 227 795 227 811 m 833 -45 q 702 -7 753 -45 q 627 94 651 31 q 603 229 603 156 q 625 371 603 303 q 696 481 646 438 q 832 525 747 525 q 936 498 896 525 q 998 427 976 471 q 1027 330 1019 382 q 1036 225 1036 277 q 1019 94 1036 156 q 959 -6 1002 33 q 833 -45 916 -45 m 1325 -45 q 1183 -3 1238 -45 q 1103 109 1128 40 q 1078 256 1078 178 q 1102 388 1078 326 q 1175 487 1126 449 q 1302 525 1225 525 q 1412 494 1371 525 q 1476 414 1454 463 q 1505 307 1497 364 q 1513 195 1513 249 q 1497 75 1513 130 q 1441 -13 1482 20 q 1325 -45 1400 -45 m 1261 279 q 1261 239 1261 267 q 1266 182 1262 212 q 1280 131 1271 152 q 1307 110 1290 110 q 1328 126 1324 110 q 1331 156 1331 143 q 1328 194 1331 175 q 1324 232 1324 213 l 1325 242 q 1324 251 1324 246 q 1324 260 1324 256 q 1325 291 1324 275 q 1326 323 1326 307 q 1324 349 1326 332 q 1309 366 1322 366 q 1277 351 1287 366 q 1263 316 1266 336 q 1261 279 1261 296 m 787 300 q 786 250 787 275 q 786 199 786 224 q 787 167 786 189 q 796 128 789 146 q 819 110 803 110 q 841 126 833 110 q 849 165 848 142 q 851 209 851 189 q 850 239 850 230 q 851 260 850 250 q 851 282 851 271 q 850 312 851 292 q 843 349 848 332 q 822 366 837 366 q 791 342 796 366 q 787 300 787 319 z "},"◊":{"ha":560,"x_min":56,"x_max":505,"o":"m 280 -33 q 264 -20 271 -33 q 254 1 257 -7 q 231 56 248 15 q 192 152 214 96 q 146 269 170 208 q 102 382 122 329 q 68 471 81 435 q 56 513 56 507 q 68 554 56 519 q 102 644 81 590 q 146 758 122 697 q 192 874 170 818 q 232 971 215 930 q 254 1027 248 1013 q 264 1046 258 1034 q 280 1058 271 1058 q 296 1046 290 1058 q 306 1027 303 1034 q 329 971 312 1013 q 368 874 345 930 q 414 758 391 818 q 459 644 438 697 q 492 555 479 591 q 505 513 505 519 q 492 472 505 507 q 459 382 479 436 q 414 268 438 329 q 368 151 391 208 q 329 54 345 95 q 306 -1 312 13 q 296 -20 303 -8 q 280 -33 290 -33 m 280 803 q 229 658 254 731 q 178 513 203 585 q 229 367 203 439 q 280 221 254 294 q 332 367 306 294 q 384 513 358 440 q 332 658 358 585 q 280 803 306 730 z "},"@":{"ha":1044,"x_min":22,"x_max":1021,"o":"m 517 -195 q 247 -134 357 -195 q 80 40 137 -73 q 22 311 22 154 q 76 600 22 472 q 242 803 130 728 q 526 878 354 878 q 786 819 675 878 q 959 649 897 759 q 1021 390 1021 540 q 1007 275 1021 333 q 963 170 993 218 q 887 93 934 122 q 773 64 840 64 q 677 85 717 64 q 600 146 638 106 q 595 149 597 149 q 579 136 592 149 q 545 104 566 122 q 496 72 524 85 q 437 58 469 58 q 355 86 388 58 q 302 158 321 115 q 273 250 282 202 q 264 336 264 297 q 274 430 264 381 q 304 522 283 479 q 363 591 326 565 q 456 618 400 618 q 511 602 490 618 q 546 569 532 585 q 566 553 559 553 q 575 562 574 553 q 581 582 576 572 q 599 591 585 591 l 723 591 q 750 563 750 591 q 748 432 750 497 q 747 301 747 367 q 747 271 747 288 q 755 241 748 254 q 780 228 762 228 q 820 248 804 228 q 844 296 836 267 q 856 354 852 325 q 859 400 859 382 q 821 577 859 500 q 712 696 784 653 q 537 739 641 739 q 376 705 444 739 q 266 611 309 671 q 203 475 223 552 q 182 314 182 399 q 276 39 182 134 q 549 -56 370 -56 q 672 -39 612 -56 q 787 8 731 -21 q 802 13 795 13 q 830 -6 812 13 q 861 -46 847 -24 q 875 -78 875 -68 q 871 -87 875 -83 q 863 -96 867 -92 q 699 -172 794 -149 q 517 -195 604 -195 m 507 204 q 547 223 535 204 q 561 268 558 242 q 564 313 564 294 q 565 357 564 335 q 566 401 566 380 q 548 450 566 425 q 505 474 530 474 q 466 448 477 474 q 453 389 455 421 q 452 338 452 357 q 454 287 452 319 q 468 230 456 255 q 507 204 480 204 z "},"&":{"ha":970,"x_min":46,"x_max":932,"o":"m 730 328 q 747 298 730 325 q 790 232 764 271 q 844 153 817 193 q 893 83 871 113 q 920 43 914 53 q 928 32 924 38 q 932 18 932 25 q 920 2 932 5 q 899 0 908 0 l 705 0 q 682 12 692 0 q 665 38 678 18 q 640 77 652 58 q 622 95 627 95 q 616 91 618 95 q 509 8 566 35 q 376 -18 451 -18 q 208 20 283 -18 q 90 130 133 59 q 46 296 46 200 l 46 301 q 210 602 52 492 q 240 620 224 612 q 271 637 255 628 q 273 639 272 638 q 276 641 275 640 l 275 648 q 221 756 246 700 q 196 873 196 812 q 230 1004 196 949 q 323 1089 264 1059 q 455 1118 382 1118 q 614 1082 538 1118 q 739 979 690 1046 q 743 972 741 976 q 745 966 745 969 q 739 947 745 958 q 721 923 734 941 q 692 882 708 904 q 662 844 675 861 q 645 824 649 827 q 637 821 641 821 q 611 836 626 821 q 576 871 595 851 q 535 905 557 890 q 486 920 513 920 q 441 899 456 920 q 427 850 427 878 q 442 786 427 821 q 472 726 457 751 q 508 668 490 696 q 545 610 526 639 q 568 575 557 593 q 591 540 579 557 l 597 533 q 612 557 604 533 q 629 610 621 582 q 642 646 637 637 q 668 665 651 665 l 806 665 q 825 662 814 665 q 836 649 836 659 q 834 641 836 646 q 819 594 830 628 q 792 517 807 560 q 763 432 777 474 q 739 362 749 391 q 730 328 730 333 m 511 274 q 446 378 478 326 q 380 483 413 431 q 321 453 345 477 q 285 394 297 428 q 273 328 273 360 q 307 233 273 273 q 397 193 340 193 q 469 213 442 193 q 511 274 496 233 z "},"¶":{"ha":879,"x_min":34,"x_max":816,"o":"m 316 473 l 316 625 q 301 631 316 629 q 268 636 286 634 q 241 640 250 638 q 94 729 153 661 q 34 889 34 796 q 74 1015 34 963 q 175 1094 113 1067 q 304 1122 237 1122 l 789 1122 q 816 1097 816 1122 q 811 998 816 1048 q 805 899 807 949 q 798 696 800 798 q 795 494 795 595 q 797 336 795 415 q 801 179 798 258 q 805 104 802 142 q 808 28 808 66 q 781 0 808 0 l 624 0 q 597 17 600 0 q 595 52 595 34 q 593 284 595 168 q 591 516 591 400 q 593 715 591 615 q 595 913 595 814 q 587 925 595 925 q 538 925 551 925 q 524 913 525 925 q 523 865 523 901 q 525 447 523 656 q 526 28 526 237 q 498 0 526 0 l 340 0 q 312 28 312 0 q 314 251 312 139 q 316 473 316 362 z "},"§":{"ha":768,"x_min":35,"x_max":720,"o":"m 367 -280 q 197 -258 286 -280 q 45 -182 108 -237 q 35 -167 35 -174 q 39 -156 35 -161 q 84 -73 57 -120 q 140 2 111 -25 q 161 12 149 12 q 205 -9 176 12 q 276 -50 235 -29 q 364 -70 317 -70 q 436 -48 407 -70 q 465 20 465 -26 q 439 72 465 52 q 379 103 413 92 q 321 121 345 114 q 199 168 259 138 q 100 249 139 199 q 61 372 61 298 q 76 467 61 430 q 112 524 92 503 q 149 556 132 545 q 166 572 165 566 q 164 576 165 574 q 161 579 163 578 q 147 595 155 587 q 132 612 139 603 q 93 688 105 648 q 80 772 81 728 l 80 779 q 164 1002 80 925 q 391 1078 248 1078 q 548 1054 469 1078 q 685 972 627 1029 q 691 965 688 969 q 694 956 694 961 q 682 928 694 951 q 653 876 669 905 q 621 825 636 848 q 601 799 606 803 q 595 798 600 798 q 557 817 583 798 q 496 856 532 836 q 414 875 460 875 q 371 870 393 875 q 333 851 349 865 q 317 811 317 837 l 319 805 q 373 743 337 766 q 455 707 410 721 q 547 677 500 692 q 632 636 593 661 q 695 566 671 610 q 720 450 720 522 q 704 356 720 400 q 653 277 688 313 q 637 262 646 269 q 621 248 628 256 q 618 244 619 247 q 615 241 616 242 q 617 237 616 239 q 620 233 618 235 q 635 218 627 225 q 650 203 644 211 q 691 130 679 169 q 705 47 704 92 l 705 37 q 660 -133 705 -62 q 539 -242 616 -204 q 367 -280 463 -280 m 501 406 q 478 452 501 433 q 425 481 456 471 q 372 491 395 491 q 332 485 354 491 q 295 466 311 479 q 280 430 280 452 q 304 371 280 397 q 357 332 329 346 q 368 327 359 331 q 379 323 376 323 q 429 333 400 323 q 479 362 458 343 q 501 406 501 380 z "},"©":{"ha":996,"x_min":17,"x_max":979,"o":"m 498 -123 q 292 -76 382 -123 q 141 53 203 -28 q 48 234 80 134 q 17 441 17 335 q 47 653 17 550 q 137 839 77 756 q 287 971 197 922 q 498 1020 377 1020 q 704 973 614 1020 q 855 845 794 926 q 947 664 916 764 q 979 456 979 564 l 979 441 q 947 236 979 336 q 853 54 915 135 q 702 -75 791 -27 q 498 -123 612 -123 m 498 52 q 636 89 578 52 q 731 188 694 127 q 786 320 768 249 q 804 460 804 392 q 786 599 804 530 q 730 725 768 668 q 635 817 692 782 q 498 851 577 851 q 363 818 421 851 q 267 728 305 784 q 210 604 229 672 q 191 468 191 536 l 191 450 q 210 314 191 384 q 269 184 230 244 q 365 88 307 125 q 498 52 422 52 m 528 345 q 570 356 553 345 q 602 378 588 367 q 627 389 615 389 q 640 382 634 389 q 649 370 646 376 q 670 338 654 362 q 700 291 686 315 q 713 260 713 268 q 707 248 713 255 q 616 176 671 202 q 503 149 561 149 q 401 176 445 149 q 326 247 357 203 q 280 342 296 290 q 264 446 264 395 q 288 596 264 524 q 366 713 312 667 q 509 758 419 758 q 594 747 547 758 q 669 708 640 735 q 677 692 677 702 q 665 659 677 684 q 639 608 652 633 q 620 571 625 582 q 611 557 616 564 q 595 549 605 549 q 566 560 583 549 q 530 571 549 571 q 493 552 504 571 q 479 508 481 533 q 477 463 477 483 q 479 418 477 446 q 493 367 482 390 q 528 345 504 345 z "},"®":{"ha":996,"x_min":32,"x_max":964,"o":"m 519 302 q 349 329 435 302 q 191 405 263 355 q 76 529 119 456 q 32 696 32 602 q 75 864 32 791 q 188 984 117 936 q 344 1057 258 1033 q 514 1082 429 1082 q 682 1057 601 1082 q 826 984 762 1033 q 927 864 890 936 q 964 697 964 792 q 927 534 964 607 q 826 409 890 461 q 683 330 763 357 q 519 302 604 302 m 509 422 q 661 454 591 422 q 774 547 731 486 q 817 696 817 608 q 774 843 817 785 q 661 931 731 902 q 509 960 591 960 q 394 943 452 960 q 287 893 336 926 q 210 810 239 859 q 180 695 180 760 q 210 581 180 631 q 287 495 239 530 q 393 441 335 460 q 509 422 452 422 m 332 850 q 359 878 332 878 l 526 878 q 606 867 568 878 q 667 829 644 857 q 690 751 690 802 q 678 700 690 724 q 644 658 665 675 q 635 651 640 654 q 625 645 630 648 q 623 643 624 644 q 621 640 622 642 q 632 610 619 631 q 657 566 644 589 q 671 528 671 543 q 660 513 671 517 q 640 510 649 510 l 549 510 q 524 527 531 510 l 486 618 l 481 623 l 475 623 q 469 612 470 618 q 467 599 467 605 q 469 573 467 586 q 471 548 471 561 q 465 522 471 533 q 442 510 460 510 l 363 510 q 335 538 335 510 q 333 694 335 616 q 332 850 332 772 m 500 713 q 532 720 519 713 q 545 748 545 727 q 533 779 545 769 q 500 788 520 788 l 469 788 q 470 750 470 769 q 470 713 470 732 l 500 713 z "},"™":{"ha":957,"x_min":24,"x_max":926,"o":"m 159 702 q 131 729 133 702 q 128 813 128 771 q 125 897 128 855 q 124 923 125 910 q 123 949 124 936 q 108 955 122 954 q 78 955 94 956 q 58 954 62 954 q 29 981 32 954 q 25 1020 27 1000 q 24 1058 24 1039 q 51 1083 24 1083 l 345 1083 q 373 1055 373 1083 q 374 1019 373 1037 q 374 982 374 1000 q 365 959 374 965 q 340 953 356 953 q 323 954 332 953 q 305 955 314 955 q 291 953 298 955 q 284 943 284 951 q 286 836 284 889 q 288 730 288 783 q 261 702 288 702 l 159 702 m 470 702 q 443 730 443 702 q 442 884 442 807 q 441 1038 441 961 q 443 1060 441 1045 q 455 1074 445 1074 q 491 1056 467 1074 q 544 1011 515 1038 q 602 958 574 985 q 651 913 631 931 q 678 895 672 895 q 706 913 684 895 q 758 958 728 931 q 820 1011 789 985 q 877 1056 852 1038 q 914 1074 903 1074 q 924 1064 922 1074 q 926 1048 926 1054 q 925 1043 926 1046 q 925 1036 925 1040 q 909 730 916 880 q 881 702 907 702 l 783 702 q 756 730 756 702 q 757 745 756 737 q 758 759 758 752 q 758 768 758 762 q 752 774 758 774 q 731 757 744 774 q 704 723 718 740 q 675 706 689 706 q 644 724 660 706 q 615 761 629 743 q 591 779 602 779 q 588 775 588 779 q 587 768 587 770 q 588 741 587 756 q 584 713 589 725 q 559 702 578 702 l 470 702 z "},"°":{"ha":610,"x_min":61,"x_max":542,"o":"m 61 837 q 100 937 61 897 q 194 995 138 976 q 302 1015 250 1015 q 409 995 353 1015 q 503 937 465 976 q 542 837 542 897 q 519 760 542 793 q 459 704 496 726 q 381 671 423 682 q 302 661 340 661 q 222 671 264 661 q 144 704 180 682 q 84 760 107 726 q 61 837 61 793 m 305 777 q 360 791 330 777 q 391 836 391 806 q 361 880 391 867 q 306 893 332 893 q 269 887 290 893 q 233 869 248 882 q 218 836 218 856 q 233 803 218 816 q 269 783 248 789 q 305 777 289 777 z "},"|":{"ha":521,"x_min":121,"x_max":397,"o":"m 128 1019 q 156 1047 128 1047 l 362 1047 q 390 1019 390 1047 q 387 761 390 890 q 385 503 385 632 q 386 216 385 359 q 390 -70 387 73 q 394 -197 391 -134 q 397 -324 397 -260 q 368 -353 397 -353 l 149 -353 q 121 -324 121 -353 q 124 -195 121 -260 q 128 -66 127 -130 q 134 507 134 220 q 131 763 134 635 q 128 1019 128 890 z "},"¦":{"ha":446,"x_min":89,"x_max":364,"o":"m 95 1019 q 123 1047 95 1047 l 330 1047 q 357 1019 357 1047 q 354 785 357 902 q 351 550 351 667 q 323 522 351 522 l 128 522 q 100 550 100 522 q 98 785 100 667 q 95 1019 95 902 m 89 -326 q 92 -173 89 -250 q 96 -20 94 -96 q 97 41 97 11 q 98 102 98 72 q 99 126 99 114 q 99 149 98 138 q 106 169 100 162 q 127 176 112 176 l 326 176 q 347 169 341 176 q 353 149 352 162 q 354 126 355 138 q 354 102 353 114 q 355 49 355 75 q 356 -5 355 22 q 360 -165 358 -85 q 364 -326 363 -245 l 364 -330 q 336 -355 364 -355 l 117 -355 q 89 -326 89 -355 z "},"†":{"ha":848,"x_min":157,"x_max":691,"o":"m 157 684 q 184 712 157 712 l 290 712 q 299 721 299 712 q 297 797 299 759 q 296 872 296 834 q 295 899 296 884 q 300 925 295 914 q 323 937 306 937 l 527 937 q 554 909 554 937 q 552 815 554 862 q 551 721 551 768 q 559 712 551 712 l 664 712 q 691 684 691 712 q 691 615 691 650 q 690 545 691 580 q 663 517 688 517 l 558 517 q 551 507 551 517 q 553 238 551 372 q 555 -31 555 103 q 528 -59 555 -59 l 321 -59 q 294 -31 294 -59 q 297 238 294 103 q 300 507 300 372 l 300 512 q 292 517 298 517 l 186 517 q 158 545 158 517 q 157 615 158 580 q 157 684 157 650 z "},"‡":{"ha":848,"x_min":120,"x_max":730,"o":"m 120 279 q 121 349 120 314 q 121 418 121 383 q 149 446 121 446 l 291 446 q 299 456 299 446 l 299 507 q 291 517 299 517 l 185 517 q 157 545 157 517 q 157 615 157 580 q 156 684 156 650 q 183 712 156 712 l 290 712 q 298 721 298 712 q 297 815 298 768 q 296 909 296 862 q 323 937 296 937 l 526 937 q 553 909 553 937 q 552 815 553 862 q 550 721 550 768 q 559 712 550 712 l 663 712 q 690 684 690 712 q 689 615 690 650 q 688 545 688 580 q 661 517 688 517 l 557 517 q 550 507 550 517 l 550 456 q 557 446 550 446 l 701 446 q 728 418 728 446 q 729 349 729 383 q 730 280 730 315 q 703 252 730 252 l 559 252 q 550 243 550 252 l 554 -31 q 527 -59 554 -59 l 321 -59 q 294 -31 294 -59 l 298 243 q 290 252 298 252 l 147 252 q 120 279 120 252 z "},"^":{"ha":798,"x_min":171,"x_max":621,"o":"m 484 715 q 442 734 463 715 q 401 762 421 754 q 371 752 386 764 q 341 727 357 740 q 309 715 326 715 l 209 715 q 187 718 203 715 q 171 729 171 720 l 171 733 q 178 749 172 742 q 189 762 183 755 q 281 864 235 813 q 376 964 327 916 q 385 972 380 968 q 395 975 389 975 q 407 972 401 975 q 416 964 412 968 q 449 931 425 955 q 501 877 472 907 q 558 816 530 846 q 603 762 585 785 q 621 728 621 738 q 606 717 621 720 q 584 715 591 715 l 484 715 z "},"̈":{"ha":277,"x_min":-7,"x_max":478,"o":"m 265 798 q 298 878 265 842 q 376 915 330 915 q 449 878 420 915 q 478 799 478 841 q 463 745 478 772 q 423 702 448 719 q 370 684 399 684 q 295 719 325 684 q 265 798 265 754 m -7 798 q 22 878 -7 842 q 98 914 52 914 q 175 879 144 914 q 206 799 206 843 q 174 720 206 756 q 98 684 142 684 q 24 720 55 684 q -7 798 -7 755 z "},"̇":{"ha":123,"x_min":31,"x_max":265,"o":"m 31 913 q 69 994 31 962 q 153 1025 106 1025 q 232 991 199 1025 q 265 912 265 958 q 248 857 265 882 q 203 816 230 831 q 147 801 176 801 q 66 834 102 801 q 31 913 31 867 z "},"̀":{"ha":176,"x_min":50,"x_max":336,"o":"m 229 715 q 210 723 219 715 q 139 794 174 757 q 70 866 104 831 q 58 879 65 871 q 50 893 52 886 q 50 896 50 895 q 50 897 50 897 q 65 911 50 909 q 90 913 81 913 l 250 913 q 276 897 268 913 q 290 864 280 888 q 310 813 300 841 q 329 763 321 785 q 336 733 336 740 q 326 719 336 722 q 307 715 316 715 l 229 715 z "},"́":{"ha":189,"x_min":103,"x_max":412,"o":"m 370 913 q 395 911 378 913 q 412 897 412 909 q 412 893 412 895 q 402 878 409 884 q 388 865 395 871 q 336 819 362 842 q 284 772 310 796 q 256 746 270 760 q 227 722 242 733 q 209 715 218 715 l 134 715 q 115 718 127 715 q 103 732 103 721 q 114 764 103 741 q 140 814 125 787 q 170 865 156 842 q 191 899 184 888 q 215 913 199 913 l 370 913 z "}}}
